<?xml version="1.0" encoding="utf-8"?>
<!-- Generator: Adobe Illustrator 22.0.1, SVG Export Plug-In . SVG Version: 6.00 Build 0)  -->
<svg version="1.1" id="Layer_1" xmlns="http://www.w3.org/2000/svg" xmlns:xlink="http://www.w3.org/1999/xlink" x="0px" y="0px"
	 viewBox="0 0 35 35" style="enable-background:new 0 0 35 35;" xml:space="preserve">
<style type="text/css">
	.st0{fill:#FFC10D;stroke:#194F82;stroke-width:1.872;stroke-miterlimit:10;}
	.st1{fill:#194F82;}
	.st2{fill:#FFC10D;}
	.st3{fill:#56ACE0;stroke:#194F82;stroke-width:1.872;stroke-miterlimit:10;}
</style>
<path class="st0" d="M14.9,19.6L10.2,25c-0.6,0.7-1.6,0.8-2.3,0.2l-3-2.6c-0.7-0.6-0.8-1.6-0.2-2.3l4.7-5.4c0.6-0.7,1.6-0.8,2.3-0.2
	l3,2.6C15.4,17.8,15.5,18.9,14.9,19.6z"/>
<path class="st1" d="M29.4,18.5c0,1.9,0,0.7,0,2.6c0,0.3,0.1,0.5,0.3,0.6l2.8,1.8c0.5,0.3,1.2,0,1.2-0.6v-9.7c0-0.6-0.7-1-1.2-0.6
	l-2.8,1.8c-0.2,0.1-0.3,0.4-0.3,0.6v1.8C29.4,17.4,29.4,18,29.4,18.5z"/>
<polygon class="st1" points="32.3,21.5 31,20.6 31,15.4 32.3,14.6 "/>
<polygon class="st2" points="31,20.7 32.3,21.5 32.3,14.6 31,15.4 "/>
<rect x="20.2" y="17.2" class="st1" width="9.7" height="1.8"/>
<path class="st3" d="M27.4,12.2c-4.2,3.7-8.3,7.3-12.5,11c-4-1.7-8.1-3.3-12.1-5l16.5-15c1.2-1.1,3-1,4,0.2l4.3,4.8
	C28.6,9.3,28.5,11.1,27.4,12.2z"/>
<path class="st1" d="M9.4,15.5l-2-1.5c-0.3-0.2-0.8-0.2-1.1,0.2c-0.2,0.3-0.2,0.8,0.2,1.1l2,1.5C8.8,17,9.3,17,9.6,16.6
	C9.8,16.3,9.8,15.8,9.4,15.5z"/>
<circle class="st1" cx="19.8" cy="7.4" r="1.3"/>
</svg>
