<?xml version="1.0" encoding="utf-8"?>
<!-- Generator: Adobe Illustrator 23.0.0, SVG Export Plug-In . SVG Version: 6.00 Build 0)  -->
<svg version="1.1" id="Layer_1" xmlns="http://www.w3.org/2000/svg" xmlns:xlink="http://www.w3.org/1999/xlink" x="0px" y="0px"
	 viewBox="0 0 35 35" style="enable-background:new 0 0 35 35;" xml:space="preserve">
<style type="text/css">
	.st0{fill:#56ACE0;}
	.st1{fill:#FFC10D;}
	.st2{fill:#194F82;}
	.st3{fill:none;stroke:#194F82;stroke-width:1.2;stroke-miterlimit:10;}
</style>
<path class="st0" d="M11,2.6c0.6,0,0.9,0.5,1.9,1.4c1,0.9,1.7,1.3,4,3.3c0.2,0.2,0.5,0.5,0.6,0.9c0.2,0.8-0.6,1.9-1.4,2
	c-0.5,0.1-0.9-0.2-1.6-0.7c-2.6-1.9-3.6-3.3-4.2-4.1C9.7,4.5,9.5,4,9.6,3.6C9.8,3,10.4,2.6,11,2.6z"/>
<path class="st0" d="M3.6,9.8c0.6,0,0.9,0.5,1.9,1.4c1,0.9,1.7,1.3,4,3.3c0.2,0.2,0.5,0.5,0.6,0.9c0.2,0.8-0.6,1.9-1.4,2
	c-0.5,0.1-0.9-0.2-1.6-0.7c-2.6-1.9-3.6-3.3-4.2-4.1c-0.6-0.9-0.8-1.4-0.7-1.8C2.4,10.2,3,9.8,3.6,9.8z"/>
<path class="st1" d="M20.2,6.4c0.1,0.2,1.2,2.8,3.1,3.4c1.1,0.3,1.9,0.2,1.9,0.2c0.7-0.1,1-0.3,1.4-0.1c0.4,0.2,0.6,0.7,0.6,1.2
	c-0.1,1-1.3,1.1-1.4,2c-0.1,0.8,0.9,1,2,2.7c0.6,1,1.3,2,1,3c-0.2,0.8-0.9,1-0.8,1.7c0.1,0.5,0.4,0.5,0.6,1.1c0.2,0.5,0.1,1.1,0,2.1
	c-0.2,1.1-0.3,1-0.2,1.3c0.1,1.1,1.5,1.4,2.9,2.9c0.7,0.8,1.1,1.1,1.1,1.6c0,1.3-2,2.8-3.5,2.5c-1.8-0.4-2-3.7-3.6-3.7
	c-1,0-1.7,0.5-1.7,0.5C23.2,28.8,23.2,29,23,29c-0.6,0.2-1.1-1-2-1.1c-0.5,0-0.5,0.3-1.3,0.6c-0.3,0.1-1.2,0.5-2.2,0.3
	c-1.7-0.2-2.7-1.5-2.8-1.6c-0.7-0.9-0.6-1.6-1.1-1.7c-0.2,0-0.3,0.1-1.5,0.9c-0.5,0.3-0.6,0.4-0.8,0.4c-0.5,0.1-1.3,0-1.6-0.4
	c-0.2-0.4,0.4-0.8,0.4-1.7c0-0.7-0.3-1.2-0.5-1.6c-1-1.6-2.6-1.5-3.1-2.9c-0.1-0.3-0.1-0.7-0.1-0.8c2.3-2.4,4.8-4.9,7.4-7.4
	C16,10.1,18.2,8.2,20.2,6.4z"/>
<path class="st2" d="M25.6,9.1c-1.6,1.1-2.1-0.5-3.1-1.3c-0.4-0.4-0.8-0.8-1.2-1.2c-1.5-1.5-1.5-1.5-3,0c-0.6,0.6-0.8,0.4-1.3,0
	c-1.3-1.4-2.7-2.8-4.1-4.1c-1-1-2.2-1-3.2,0s-1,2.2,0,3.2c1.4,1.4,2.7,2.8,4.1,4.1c0.5,0.5,0.5,0.8,0,1.3c-1,1-2,2-3,3
	c-0.5,0.5-0.8,0.4-1.2,0c-1.2-1.5-2.6-2.9-4-4.3c-1.1-1.1-2.3-1.1-3.3,0c-1,1-0.9,2.2,0.1,3.2c1.3,1.3,2.7,2.7,4,4
	c0.5,0.5,0.6,0.8,0,1.4c-1.4,1.4-1.4,1.4,0,2.9c0.6,0.6,1.2,1.2,1.8,1.8c0.6,0.6,1.5,1.1,0.8,2.3c-0.4,0.7,0.2,1.6,1,2
	c0.8,0.5,1.7,0.4,2.2-0.3c0.8-1,1.3-0.6,2,0.2c0.4,0.4,0.8,0.8,1.2,1.2c1.3,1.2,3,1.4,4.4,0.4c0.8-0.6,1.1-0.3,1.5,0.2
	c0.8,1.1,1.6,1.1,2.3,0c0.6-0.8,1-0.6,1.6,0c1,1.1,2.2,2.2,3.3,3.3c0.4,0.4,0.9,1.3,1.6,0.5c0.6-0.7-0.2-1.1-0.6-1.6
	c-1-1.1-2.1-2.2-3.2-3.2c-0.7-0.6-0.9-1.1,0-1.7c0.2-0.1,0.3-0.3,0.5-0.5c0.4-0.6,0.8-0.6,1.3,0c1.2,1.3,2.4,2.4,3.6,3.7
	c0.4,0.4,0.9,0.9,1.4,0.3c0.5-0.5,0-0.9-0.4-1.3c-1.2-1.2-2.4-2.5-3.7-3.6c-0.5-0.5-0.6-0.7,0-1.3c1.3-1.2,1.3-1.3,0-2.6
	c-0.4-0.4-0.6-0.6-0.2-1.3c1.1-1.6,0.9-3.3-0.5-4.7c-0.2-0.2-0.4-0.4-0.6-0.6c-0.8-0.8-1.9-1.4-0.4-2.6c0.5-0.4,0.5-1.3,0.1-1.9
	C27.1,9.5,26.5,9.2,25.6,9.1z M7.1,19.8c0.1-0.1,0.3-0.3,0.4-0.5c3.9-3.9,7.8-7.8,11.7-11.8c0.4-0.4,0.6-0.4,1,0
	c0.8,0.8,1.6,1.7,2.5,2.4c0.6,0.5,0.5,0.8,0,1.3c-3.1,3.1-6.2,6.2-9.3,9.3c-0.9,0.9-1.8,2.7-2.9,2.5s-2-1.8-2.9-2.7
	c-0.1-0.1-0.2-0.2-0.3-0.3C7.2,19.9,7.2,19.9,7.1,19.8z M18,28.2c-1.4-0.1-2-1.3-3-2.1c-0.7-0.5-0.6-0.9,0-1.5
	c2.8-2.7,5.5-5.5,8.3-8.3c2-2.1,2-2.1,4,0.1c1,1.1,1.1,2.2,0,3.3c-2.6,2.6-5.2,5.2-7.7,7.8C19.2,27.9,18.7,28.1,18,28.2z M10.5,25.7
	c0.1-0.5,0.5-0.7,0.8-1c4.5-4.5,8.9-9,13.4-13.4c0.2-0.2,0.4-0.4,0.7-0.6c0.2-0.2,0.5-0.1,0.7,0.1c0.2,0.2,0.3,0.5,0.1,0.7
	c-0.2,0.3-0.4,0.5-0.7,0.8c-4.4,4.4-8.9,8.9-13.3,13.3c-0.2,0.2-0.5,0.5-0.8,0.7C11,26.4,10.6,26.2,10.5,25.7z M15.5,9.3
	c-0.2-0.2-0.4-0.4-0.6-0.5c-1.3-1.3-2.7-2.7-4-4c-0.5-0.5-0.7-0.9-0.2-1.4s1-0.3,1.4,0.2c1.3,1.4,2.7,2.7,4,4
	c0.2,0.2,0.7,0.4,0.3,0.8C16.2,8.7,15.9,9,15.5,9.3z M4,10.4c0.1,0,0.2,0,0.3,0.1c1.6,1.6,3.2,3.1,4.7,4.7c0.4,0.5-0.3,0.7-0.5,1
	c-0.2,0.3-0.4,0.5-0.8,0.1c-1.5-1.5-3-3-4.5-4.5C3,11.6,3,11.3,3.2,11C3.3,10.7,3.6,10.5,4,10.4z M27.5,21.7
	c0.2,0.3,0.5,0.5,0.7,0.8c0.3,0.3,0,0.5-0.2,0.6c-1.6,1.6-3.2,3.2-4.8,4.8c-0.4,0.4-0.6,0.4-1,0c-0.5-0.4-0.3-0.7,0.1-1
	c1.6-1.6,3.1-3.1,4.7-4.7C27.1,22,27.2,21.9,27.5,21.7z"/>
<path class="st3" d="M29.4,32.5c0.2,0.1,0.4,0,0.6-0.1c0.9-0.4,1.5-1.3,2.1-2.1c0.3-0.4,0.5-0.8,0.8-1.2"/>
</svg>
