<?xml version="1.0" encoding="utf-8"?>
<!-- Generator: Adobe Illustrator 22.0.1, SVG Export Plug-In . SVG Version: 6.00 Build 0)  -->
<svg version="1.1" id="Layer_1" xmlns="http://www.w3.org/2000/svg" xmlns:xlink="http://www.w3.org/1999/xlink" x="0px" y="0px"
	 viewBox="0 0 35 35" style="enable-background:new 0 0 35 35;" xml:space="preserve">
<style type="text/css">
	.st0{fill:#FFC10D;}
	.st1{fill:#194F82;}
</style>
<path class="st0" d="M3.7,11.4c-0.5,0-0.9,0.4-0.9,0.9v5c0,0.5,0.4,0.9,0.9,0.9h27.5c0.5,0,0.9-0.4,0.9-0.9v-5
	c0-0.5-0.4-0.9-0.9-0.9"/>
<g>
	<path class="st1" d="M6.9,9.5c-1.1,0-2.1,0-3.2,0C2.2,9.5,1,10.7,1,12.2v5c0,1.5,1.2,2.7,2.7,2.7h0.9v0.6c0,0.5,0.4,0.9,0.9,0.9
		s0.9-0.4,0.9-0.9v-0.6h22v0.6c0,0.5,0.4,0.9,0.9,0.9s0.9-0.4,0.9-0.9v-0.6h0.9c1.5,0,2.7-1.2,2.7-2.7v-5c0.2-1.4-1-2.6-2.6-2.6
		C23.1,9.5,15,9.5,6.9,9.5z M32.2,17.3c0,0.5-0.4,0.9-0.9,0.9H3.7c-0.5,0-0.9-0.4-0.9-0.9v-5c0-0.5,0.4-0.9,0.9-0.9h4.9v2
		c0,0.5,0.4,0.9,0.9,0.9s0.9-0.4,0.9-0.9v-2h1.8v3.8c0,0.5,0.4,0.9,0.9,0.9s0.9-0.4,0.9-0.9v-3.8h17.1c0.5,0,0.9,0.4,0.9,0.9
		L32.2,17.3L32.2,17.3z"/>
	<path class="st1" d="M18.1,13.9h-1.2c-0.5,0-0.9,0.4-0.9,0.9s0.4,0.9,0.9,0.9h1.2c0.5,0,0.9-0.4,0.9-0.9S18.6,13.9,18.1,13.9z"/>
	<path class="st1" d="M23.4,13.9h-1.2c-0.5,0-0.9,0.4-0.9,0.9s0.4,0.9,0.9,0.9h1.2c0.5,0,0.9-0.4,0.9-0.9S23.9,13.9,23.4,13.9z"/>
	<path class="st1" d="M28.7,13.9h-1.2c-0.5,0-0.9,0.4-0.9,0.9s0.4,0.9,0.9,0.9h1.2c0.5,0,0.9-0.4,0.9-0.9
		C29.7,14.3,29.3,13.9,28.7,13.9z"/>
</g>
<path class="st0" d="M17.7,27.2c-0.6,0-1,0.4-1,1s0.4,1,1,1c0.6,0,1-0.4,1-1C18.7,27.6,18.3,27.2,17.7,27.2z"/>
<path class="st1" d="M17,18.8v7c-0.8,0.2-1.4,0.9-1.6,1.6H5.2c-0.4,0-0.7,0.3-0.7,0.7c0,0.4,0.3,0.7,0.7,0.7h10.1
	c0.3,1,1.3,1.7,2.4,1.7c1.1,0,2.1-0.7,2.4-1.7h10.1c0.4,0,0.7-0.3,0.7-0.7s-0.3-0.7-0.7-0.7H20.1c-0.2-0.8-0.9-1.4-1.6-1.6v-7"/>
<path class="st0" d="M17.7,29.2c-0.6,0-1-0.4-1-1s0.4-1,1-1c0.6,0,1,0.4,1,1S18.3,29.2,17.7,29.2z"/>
</svg>
