<?xml version="1.0" encoding="utf-8"?>
<!-- Generator: Adobe Illustrator 22.0.1, SVG Export Plug-In . SVG Version: 6.00 Build 0)  -->
<svg version="1.1" id="Layer_1" xmlns="http://www.w3.org/2000/svg" xmlns:xlink="http://www.w3.org/1999/xlink" x="0px" y="0px"
	 viewBox="0 0 35 35" style="enable-background:new 0 0 35 35;" xml:space="preserve">
<style type="text/css">
	.st0{fill:#FFC10D;}
	.st1{fill:#56ACE0;}
	.st2{fill:#194F82;}
</style>
<rect x="9.4" y="4.1" class="st0" width="14.8" height="26"/>
<rect x="10" y="9.7" class="st1" width="13.9" height="3.5"/>
<path class="st2" d="M23.1,3.1H10.8c-1.3,0-2.4,1.1-2.4,2.4v23.4c0,1.3,1.1,2.3,2.3,2.3H23c1.3,0,2.3-1.1,2.3-2.3V5.5
	C25.4,4.2,24.4,3.1,23.1,3.1z M10.8,4.7h12.3c0.4,0,0.8,0.3,0.8,0.8v2.6H10V5.5C10,5,10.3,4.7,10.8,4.7z M23.8,9.7v3.5H10V9.7H23.8z
	 M23.1,29.7H10.8c-0.4,0-0.8-0.3-0.8-0.8v-7h1.6c0.4,0,0.8-0.3,0.8-0.8c0-0.4-0.3-0.8-0.8-0.8H10v-1.6h3.1c0.4,0,0.8-0.3,0.8-0.8
	c0-0.4-0.3-0.8-0.8-0.8H10v-2.5h13.9v14.2C23.8,29.3,23.5,29.7,23.1,29.7z"/>
<path class="st1" d="M16.9,21.8c-0.6,0-1.1,0.5-1.1,1.1s0.5,1.1,1.1,1.1s1.1-0.5,1.1-1.1S17.5,21.8,16.9,21.8z"/>
<path class="st2" d="M16.9,20.3c-1.4,0-2.6,1.2-2.6,2.6s1.2,2.6,2.6,2.6s2.6-1.2,2.6-2.6S18.4,20.3,16.9,20.3z M16.9,24
	c-0.6,0-1.1-0.5-1.1-1.1s0.5-1.1,1.1-1.1s1.1,0.5,1.1,1.1S17.5,24,16.9,24z"/>
<path class="st2" d="M21,30.8v1.2c0,0.5,0.4,0.9,0.9,0.9c0.5,0,0.9-0.4,0.9-0.9v-1.2c0-0.5-0.4-0.9-0.9-0.9
	C21.4,29.9,21,30.3,21,30.8z"/>
<path class="st2" d="M10.9,30.8v1.2c0,0.5,0.4,0.9,0.9,0.9c0.5,0,0.9-0.4,0.9-0.9v-1.2c0-0.5-0.4-0.9-0.9-0.9
	C11.3,29.9,10.9,30.3,10.9,30.8z"/>
</svg>
