<?xml version="1.0" encoding="utf-8"?>
<!-- Generator: Adobe Illustrator 22.0.1, SVG Export Plug-In . SVG Version: 6.00 Build 0)  -->
<svg version="1.1" id="Layer_1" xmlns="http://www.w3.org/2000/svg" xmlns:xlink="http://www.w3.org/1999/xlink" x="0px" y="0px"
	 viewBox="0 0 35 35" style="enable-background:new 0 0 35 35;" xml:space="preserve">
<style type="text/css">
	.st0{fill:#FFC10D;}
	.st1{fill:#56ACE0;}
	.st2{fill:#194F82;}
</style>
<path class="st0" d="M10.7,8.2c-0.4,0-0.8,0.4-0.8,0.8v19.4c0,0.4,0.4,0.8,0.8,0.8h14.5c0.4,0,0.8-0.4,0.8-0.8V9
	c0-0.4-0.4-0.8-0.8-0.8"/>
<path class="st1" d="M9.3,8c2.8,0,5.5,0,8.3-0.1c0,0.5-0.1,1.1-0.1,1.6c0,0.7,0.1,1.4,0.1,2c0.9,1,1.7,1.9,2.6,2.9
	c0,5.1,0,10.1,0,15.2c-3.5,0-7.1-0.1-10.6-0.1C9.5,22.3,9.4,15.1,9.3,8z"/>
<g>
	<path class="st2" d="M10.7,6.6C9.4,6.6,8.3,7.7,8.3,9v19.4c0,1.3,1.1,2.4,2.4,2.4c0.8,0-0.1,0,0.7,0h11.4c0.8,0,1.6,0,2.4,0
		c1.3,0,2.4-1.1,2.4-2.4V9c0-1.3-1.1-2.4-2.4-2.4C17.2,6.6,18.8,6.6,10.7,6.6z M26.1,28.4c0,0.4-0.4,0.8-0.8,0.8H10.7
		c-0.4,0-0.8-0.4-0.8-0.8V9c0-0.4,0.4-0.8,0.8-0.8h2.6v1.7c0,0.4,0.4,0.8,0.8,0.8c0.5,0,0.8-0.4,0.8-0.8V8.2h1.6v3.3
		c0,0.4,0.4,0.8,0.8,0.8s0.8-0.4,0.8-0.8V8.2h7.1c0.4,0,0.8,0.4,0.8,0.8L26.1,28.4L26.1,28.4z"/>
	<path class="st2" d="M23.7,15.6h-1.1c-0.4,0-0.8,0.4-0.8,0.8c0,0.4,0.4,0.8,0.8,0.8h1.1c0.4,0,0.8-0.4,0.8-0.8
		C24.5,15.9,24.1,15.6,23.7,15.6z"/>
	<path class="st2" d="M23.7,17.7h-1.1c-0.4,0-0.8,0.4-0.8,0.8c0,0.4,0.4,0.8,0.8,0.8h1.1c0.4,0,0.8-0.4,0.8-0.8
		C24.5,18,24.1,17.7,23.7,17.7z"/>
	<path class="st2" d="M12.8,15.8h-1.1c-0.4,0-0.8,0.4-0.8,0.8c0,0.4,0.4,0.8,0.8,0.8h1.1c0.4,0,0.8-0.4,0.8-0.8
		C13.6,16.2,13.2,15.8,12.8,15.8z"/>
	<path class="st2" d="M12.8,18.2h-1.1c-0.4,0-0.8,0.4-0.8,0.8c0,0.4,0.4,0.8,0.8,0.8h1.1c0.4,0,0.8-0.4,0.8-0.8
		C13.6,18.6,13.2,18.2,12.8,18.2z"/>
	<path class="st2" d="M12.8,20.5h-1.1c-0.4,0-0.8,0.4-0.8,0.8c0,0.4,0.4,0.8,0.8,0.8h1.1c0.4,0,0.8-0.4,0.8-0.8
		C13.6,20.8,13.2,20.5,12.8,20.5z"/>
</g>
<path class="st2" d="M20.6,15.1L20.6,15.1c-0.4,0.3-0.9,0.3-1.1,0l-2.6-3c-0.3-0.3-0.2-0.8,0.1-1.1L17,11c0.3-0.3,0.8-0.2,1.1,0.1
	l2.6,3C20.9,14.3,20.9,14.8,20.6,15.1z"/>
<path class="st2" d="M20.1,30.5H20c-0.4,0-0.8-0.3-0.8-0.8v-15c0-0.4,0.3-0.8,0.8-0.8h0.1c0.4,0,0.8,0.3,0.8,0.8v15
	C20.9,30.2,20.5,30.5,20.1,30.5z"/>
<path class="st2" d="M23.6,7.9L23.6,7.9c-0.5,0-0.9-0.4-0.9-0.9V3.7c0-0.5,0.4-0.9,0.9-0.9h0c0.5,0,0.9,0.4,0.9,0.9V7
	C24.5,7.5,24.1,7.9,23.6,7.9z"/>
<path class="st2" d="M27.7,25.4L27.7,25.4c-0.5,0-0.9-0.4-0.9-0.9V13c0-0.5,0.4-0.9,0.9-0.9h0c0.5,0,0.9,0.4,0.9,0.9v11.5
	C28.6,25,28.2,25.4,27.7,25.4z"/>
<path class="st2" d="M8.3,25.3L8.3,25.3c-0.5,0-0.9-0.4-0.9-0.9V13c0-0.5,0.4-0.9,0.9-0.9h0c0.5,0,0.9,0.4,0.9,0.9v11.5
	C9.2,25,8.8,25.3,8.3,25.3z"/>
</svg>
