<?xml version="1.0" encoding="utf-8"?>
<!-- Generator: Adobe Illustrator 22.0.1, SVG Export Plug-In . SVG Version: 6.00 Build 0)  -->
<svg version="1.1" id="Layer_1" xmlns="http://www.w3.org/2000/svg" xmlns:xlink="http://www.w3.org/1999/xlink" x="0px" y="0px"
	 viewBox="0 0 35 35" style="enable-background:new 0 0 35 35;" xml:space="preserve">
<style type="text/css">
	.st0{fill:#FFC10D;}
	.st1{fill:#194F82;}
</style>
<path class="st0" d="M3.9,12.4c-0.5,0-0.9,0.4-0.9,0.9v8c0,0.5,0.4,0.9,0.9,0.9h27.5c0.5,0,0.9-0.4,0.9-0.9v-8
	c0-0.5-0.4-0.9-0.9-0.9"/>
<g>
	<path class="st1" d="M3.9,10.5c-1.5,0-2.7,1.2-2.7,2.7v8c0,1.5,1.2,2.7,2.7,2.7h0.9v0.6c0,0.5,0.4,0.9,0.9,0.9s0.9-0.4,0.9-0.9
		v-0.6h22v0.6c0,0.5,0.4,0.9,0.9,0.9s0.9-0.4,0.9-0.9v-0.6h0.9c1.5,0,2.7-1.2,2.7-2.7v-8c0-1.5-1.2-2.7-2.8-2.7
		C22.2,10.5,13,10.5,3.9,10.5z M32.3,21.3c0,0.5-0.4,0.9-0.9,0.9H3.9c-0.5,0-0.9-0.4-0.9-0.9v-8c0-0.5,0.4-0.9,0.9-0.9
		c9.1,0,18.3,0,27.4,0c0.5,0,0.9,0.4,0.9,0.9L32.3,21.3z"/>
	<path class="st1" d="M8.2,14.9H7c-0.5,0-0.9,0.4-0.9,0.9c0,0.5,0.4,0.9,0.9,0.9h1.2c0.5,0,0.9-0.4,0.9-0.9
		C9.1,15.3,8.7,14.9,8.2,14.9z"/>
	<path class="st1" d="M13.5,14.9h-1.2c-0.5,0-0.9,0.4-0.9,0.9c0,0.5,0.4,0.9,0.9,0.9h1.2c0.5,0,0.9-0.4,0.9-0.9
		C14.4,15.3,14,14.9,13.5,14.9z"/>
	<path class="st1" d="M18.9,14.9h-1.2c-0.5,0-0.9,0.4-0.9,0.9c0,0.5,0.4,0.9,0.9,0.9h1.2c0.5,0,0.9-0.4,0.9-0.9
		C19.8,15.3,19.4,14.9,18.9,14.9z"/>
	<path class="st1" d="M8.1,17.5H6.9c-0.5,0-0.9,0.4-0.9,0.9s0.4,0.9,0.9,0.9h1.2c0.5,0,0.9-0.4,0.9-0.9S8.6,17.5,8.1,17.5z"/>
	<path class="st1" d="M13.4,17.5h-1.2c-0.5,0-0.9,0.4-0.9,0.9s0.4,0.9,0.9,0.9h1.2c0.5,0,0.9-0.4,0.9-0.9S13.9,17.5,13.4,17.5z"/>
	<path class="st1" d="M18.8,17.5h-1.2c-0.5,0-0.9,0.4-0.9,0.9s0.4,0.9,0.9,0.9h1.2c0.5,0,0.9-0.4,0.9-0.9
		C19.7,17.9,19.3,17.5,18.8,17.5z"/>
</g>
</svg>
