<?xml version="1.0" encoding="utf-8"?>
<!-- Generator: Adobe Illustrator 23.0.0, SVG Export Plug-In . SVG Version: 6.00 Build 0)  -->
<svg version="1.1" id="Layer_1" xmlns="http://www.w3.org/2000/svg" xmlns:xlink="http://www.w3.org/1999/xlink" x="0px" y="0px"
	 viewBox="0 0 29.6 30.9" style="enable-background:new 0 0 29.6 30.9;" xml:space="preserve">
<style type="text/css">
	.st0{fill:url(#XMLID_4_);}
	.st1{fill:url(#XMLID_5_);}
	.st2{fill:url(#XMLID_6_);}
	.st3{fill:url(#XMLID_7_);}
	.st4{fill:url(#XMLID_8_);}
	.st5{fill:#E61E67;}
</style>
<g id="XMLID_32_">
	
		<linearGradient id="XMLID_4_" gradientUnits="userSpaceOnUse" x1="18.6179" y1="493.9441" x2="10.8098" y2="489.6161" gradientTransform="matrix(1 0 0 1 0 -476)">
		<stop  offset="0" style="stop-color:#E71E66"/>
		<stop  offset="0.107" style="stop-color:#C21C66"/>
		<stop  offset="0.2751" style="stop-color:#8D1965"/>
		<stop  offset="0.4402" style="stop-color:#611765"/>
		<stop  offset="0.5984" style="stop-color:#3F1564"/>
		<stop  offset="0.7481" style="stop-color:#271464"/>
		<stop  offset="0.8857" style="stop-color:#181364"/>
		<stop  offset="1" style="stop-color:#131364"/>
	</linearGradient>
	<path id="XMLID_38_" class="st0" d="M9.7,15.6c0.8-1.4,1.6-2.6,2.3-4c0.1-0.2,0.3-0.2,0.4-0.2c0.3,0,0.7,0,1.1,0c1.1,0,2.2,0,3.3,0
		c0.2,0,0.4,0,0.6,0.2c0.3,0.5,0.6,1,0.8,1.5c0.4,0.8,0.9,1.6,1.4,2.3c0.2,0.3,0.2,0.5,0,0.8c-0.6,1-1.2,2-1.7,3
		c-0.2,0.3-0.3,0.7-0.6,1l0,0c-0.1,0-0.3,0-0.4,0c-1.4,0-2.9,0-4.3,0c-0.3,0-0.5-0.1-0.6-0.3c-0.5-0.9-1-1.7-1.5-2.6
		c-0.2-0.4-0.4-0.8-0.7-1.2C9.7,15.9,9.6,15.7,9.7,15.6z M11.2,16.3c0.4,0.7,0.8,1.4,1.3,2.2c0.1,0.2,0.2,0.3,0.4,0.4
		c0.2,0.1,0.5,0.1,0.6,0.1c0.5,0,1.4,0,2.7,0c0.1,0,0.2,0,0.3,0c0,0,0,0,0.1-0.1c0.1-0.1,0.1-0.2,0.1-0.2c0.4-0.8,0.9-1.6,1.4-2.3
		c0.2-0.3,0.2-0.6,0-0.9c-0.3-0.6-0.5-0.8-0.6-1c-0.2-0.4-0.3-0.6-0.4-0.7c0-0.1-0.2-0.3-0.4-0.7c-0.2-0.3-0.4-0.4-0.7-0.4
		c-0.9,0-1.8,0-2.7,0c-0.3,0-0.6,0.1-0.7,0.4c-0.4,0.8-1,1.6-1.4,2.5C11.1,15.7,11.1,16,11.2,16.3z"/>
	
		<linearGradient id="XMLID_5_" gradientUnits="userSpaceOnUse" x1="1.3055" y1="494.0232" x2="19.9103" y2="494.0232" gradientTransform="matrix(1 0 0 1 0 -476)">
		<stop  offset="0" style="stop-color:#131364"/>
		<stop  offset="0.3685" style="stop-color:#131364"/>
		<stop  offset="0.5386" style="stop-color:#2B2BE0"/>
		<stop  offset="1" style="stop-color:#E71E66"/>
	</linearGradient>
	<path id="XMLID_1614_" class="st1" d="M17.6,21.4c-0.2-0.3-0.3-0.4-0.7-0.3c-1.6,0-3.1,0-4.7,0c-0.2,0-0.4,0-0.6,0
		c0-0.1-0.1-0.2-0.2-0.3c-0.9-1.6-1.8-3.2-2.8-4.8c-0.1-0.2-0.2-0.4,0-0.7c0.2-0.3,0.3-0.6,0.6-1c0.7-1.1,1.4-2.3,2-3.5
		c0.1-0.2,0-0.3,0-0.5c-0.7-1.2-1.4-2.5-2.2-3.7C8.9,6.4,8.8,6.3,8.4,6.3c-1.4,0-2.7,0-4,0c-0.3,0-0.5,0-0.6,0
		c-0.1,0-0.2,0.2-0.4,0.6C3.3,7,3.2,7.2,3.2,7.4C2.6,8.5,2.2,9,1.9,9.5C1.8,9.8,1.7,10,1.5,10.2c-0.2,0.3-0.2,0.6,0,0.8
		c0.8,1.4,1.6,2.8,2.5,4.2c0.1,0.2,0.1,0.4,0,0.6c-0.4,0.6-0.7,1.3-1.1,1.9C2.4,18.5,2,19.3,1.5,20c-0.2,0.3-0.2,0.5,0,0.8
		c0.7,1.2,1.4,2.5,2.2,3.7c0,0,0.1,0.2,0.2,0.2l0,0c0.2,0.1,0.3,0,0.5,0c1.6,0,3.1,0,4.7,0c0.3,0,0.5,0.1,0.7,0.4
		c0.5,0.9,1.1,1.7,1.5,2.6c0.2,0.3,0.4,0.9,0.8,1.4c0,0,0.1,0.2,0.2,0.2c0.1,0.1,0.3,0.2,0.4,0.2c2.5,0,4.3,0,4.5,0c0,0,0.2,0,0.3,0
		c0,0,0.1-0.1,0.2-0.2c0.7-1.3,1.5-2.6,2.2-3.9c0.1-0.2,0.1-0.3,0-0.6C19.1,24,18.3,22.7,17.6,21.4z M18.3,26
		c-0.4,0.7-0.8,1.4-1.2,2.1c-0.1,0.2-0.2,0.3-0.4,0.5c-0.2,0.1-0.5,0.2-0.7,0.1c-0.8,0-1.7,0-2.6,0c-0.1,0-0.3,0-0.4-0.1
		c-0.1,0-0.2-0.2-0.2-0.2c-0.2-0.4-0.4-0.8-0.7-1.2c-0.6-1-1.2-2-1.7-3c-0.1-0.2-0.3-0.4-0.6-0.4c-0.3,0-4.5,0-5,0
		c-0.1,0-0.2,0-0.2,0c-0.2-0.1-0.3-0.3-0.3-0.3c-0.2-0.4-0.7-1.2-1-1.7C3.2,21.4,3,21.2,2.9,21c-0.2-0.3-0.2-0.6,0-1
		c0.3-0.5,0.4-0.7,0.6-1.1c0.2-0.3,0.2-0.3,0.4-0.7c1.2-2,1.2-2.1,1.2-2.1c0.3-0.4,0.2-0.8,0-1.2c-0.7-1.2-1.4-2.5-2.2-3.8
		c-0.2-0.3-0.2-0.6,0-1C3.6,8.9,4,8.4,4,8.2C4.2,8,4.3,7.7,4.6,7.6C4.7,7.4,5,7.4,5.1,7.4c1.2,0,2.1,0,2.5,0c0,0,0.3,0,0.5,0.1
		c0.2,0,0.3,0.2,0.3,0.4c0.4,0.8,0.8,1.5,1.3,2.3c0.2,0.3,0.2,0.6,0,1c-0.3,0.6-0.6,1.1-1,1.6c-0.3,0.4-0.2,0.3-0.4,0.7
		c-0.4,0.6-0.6,1-1,1.7c-0.2,0.3-0.1,0.5,0,0.8c0.6,1,1.1,1.9,1.7,2.9c0.6,0.9,1.1,1.8,1.6,2.7c0.2,0.3,0.3,0.6,0.7,0.6
		c0.8,0,1.2,0,2.3,0c0.6,0,0.4,0,0.9,0c0.3,0,0.7,0,1.6,0c0.3,0,0.6,0.1,0.7,0.4c0.4,0.8,1,1.6,1.4,2.4C18.5,25.4,18.4,25.7,18.3,26
		z"/>
	
		<linearGradient id="XMLID_6_" gradientUnits="userSpaceOnUse" x1="25.7586" y1="491.2403" x2="20.5718" y2="482.6081" gradientTransform="matrix(1 0 0 1 0 -476)">
		<stop  offset="0" style="stop-color:#E71E66"/>
		<stop  offset="1" style="stop-color:#131364"/>
	</linearGradient>
	<path id="XMLID_37_" class="st2" d="M20.9,6.5c0.2,0,0.4,0,0.7,0c1.3,0,2.5,0,3.8,0c0.2,0,0.4,0,0.4,0.2l0,0c0,0.1,0.2,0.2,0.2,0.4
		c0.7,1.1,1.3,2.3,1.9,3.4c0.2,0.3,0.2,0.6,0,1c-0.7,1.2-1.4,2.5-2.1,3.7c-0.1,0.3-0.3,0.3-0.6,0.3c-0.9,0-1.8,0-2.7,0
		c-0.6,0-1.1,0-1.6,0c-0.2,0-0.4,0-0.5-0.2l0,0c-0.3-0.4-0.6-1-0.9-1.5c-0.4-0.8-1-1.6-1.4-2.4c-0.1-0.2-0.2-0.3,0-0.6
		c0.8-1.4,1.6-2.6,2.3-4C20.7,6.6,20.8,6.4,20.9,6.5z M19.8,11.4c0.4,0.7,0.8,1.5,1.3,2.2c0,0,0.2,0.2,0.3,0.3c0.2,0,0.3,0,0.3,0
		c0.2,0,0.3,0,2.7,0c0.1,0,0.3,0,0.6-0.2c0.1,0,0.2-0.2,0.3-0.3c0.4-0.8,0.8-1.5,1.3-2.3c0.2-0.3,0.2-0.6,0-0.8
		c-0.5-0.9-0.7-1.1-0.8-1.5c0,0-0.2-0.4-0.7-1.1c0,0,0-0.1-0.2-0.2c-0.2-0.1-0.4-0.1-0.4,0c-0.9,0-1.7,0-2.6,0
		c-0.4,0-0.6,0.2-0.8,0.5c-0.4,0.7-0.8,1.5-1.2,2.2C19.6,10.7,19.7,11,19.8,11.4z"/>
	
		<linearGradient id="XMLID_7_" gradientUnits="userSpaceOnUse" x1="12.6687" y1="-562.0726" x2="12.6687" y2="-562.0726" gradientTransform="matrix(1 0 0 -1 0 -553.9995)">
		<stop  offset="0" style="stop-color:#5167B0"/>
		<stop  offset="1" style="stop-color:#41C7F4"/>
	</linearGradient>
	<path id="XMLID_34_" class="st3" d="M12.7,8.1"/>
	
		<linearGradient id="XMLID_8_" gradientUnits="userSpaceOnUse" x1="17.3215" y1="485.8983" x2="12.1347" y2="477.2661" gradientTransform="matrix(1 0 0 1 0 -476)">
		<stop  offset="0" style="stop-color:#131364"/>
		<stop  offset="1" style="stop-color:#131364"/>
	</linearGradient>
	<path id="XMLID_1_" class="st4" d="M12.5,1.2c0.2,0,0.4,0,0.7,0c1.3,0,2.5,0,3.8,0c0.2,0,0.4,0,0.4,0.2l0,0c0,0.1,0.2,0.2,0.2,0.4
		c0.7,1.1,1.3,2.3,1.9,3.4c0.2,0.3,0.2,0.6,0,1c-0.7,1.2-1.4,2.5-2.1,3.7c-0.1,0.3-0.3,0.3-0.6,0.3c-0.9,0-1.8,0-2.7,0
		c-0.6,0-1.1,0-1.6,0c-0.2,0-0.4,0-0.5-0.2l0,0c-0.3-0.4-0.6-1-0.9-1.5c-0.4-0.8-1-1.6-1.4-2.4c-0.1-0.2-0.2-0.3,0-0.6
		c0.8-1.4,1.6-2.6,2.3-4C12.2,1.2,12.3,1.1,12.5,1.2z M11.4,6c0.4,0.7,0.8,1.5,1.3,2.2c0,0,0.2,0.2,0.3,0.3c0.2,0,0.3,0,0.3,0
		c0.2,0,0.3,0,2.7,0c0.1,0,0.3,0,0.6-0.2c0.1,0,0.2-0.2,0.3-0.3c0.4-0.8,0.8-1.5,1.3-2.3c0.2-0.3,0.2-0.6,0-0.8
		c-0.5-0.9-0.7-1.1-0.8-1.5c0,0-0.2-0.4-0.7-1.1c0,0,0-0.1-0.2-0.2c-0.2-0.1-0.4-0.1-0.4,0c-0.9,0-1.7,0-2.6,0
		c-0.4,0-0.6,0.2-0.8,0.5c-0.4,0.7-0.8,1.5-1.3,2.2C11.2,5.4,11.2,5.7,11.4,6z"/>
	<path id="XMLID_2_" class="st5" d="M20.9,16.1c0.2,0,0.4,0,0.7,0c1.3,0,2.5,0,3.8,0c0.2,0,0.4,0,0.4,0.2l0,0c0,0.1,0.2,0.2,0.2,0.4
		c0.7,1.1,1.3,2.3,1.9,3.4c0.2,0.3,0.2,0.6,0,1c-0.7,1.2-1.4,2.5-2.1,3.7c-0.1,0.3-0.3,0.3-0.6,0.3c-0.9,0-1.8,0-2.7,0
		c-0.6,0-1.1,0-1.6,0c-0.2,0-0.4,0-0.5-0.2l0,0c-0.3-0.4-0.6-1-0.9-1.5c-0.4-0.8-1-1.6-1.4-2.4c-0.1-0.2-0.2-0.3,0-0.6
		c0.8-1.4,1.6-2.6,2.3-4C20.7,16.2,20.8,16.1,20.9,16.1z M19.8,21c0.4,0.7,0.8,1.5,1.3,2.2c0,0,0.2,0.2,0.3,0.3c0.2,0,0.3,0,0.3,0
		c0.2,0,0.3,0,2.7,0c0.1,0,0.3,0,0.6-0.2c0.1,0,0.2-0.2,0.3-0.3c0.4-0.8,0.8-1.5,1.3-2.3c0.2-0.3,0.2-0.6,0-0.8
		c-0.5-0.9-0.7-1.1-0.8-1.5c0,0-0.2-0.4-0.7-1.1c0,0,0-0.1-0.2-0.2c-0.2-0.1-0.4-0.1-0.4,0c-0.9,0-1.7,0-2.6,0
		c-0.4,0-0.6,0.2-0.8,0.5c-0.4,0.7-0.8,1.5-1.2,2.2C19.6,20.4,19.7,20.6,19.8,21z"/>
</g>
</svg>
