<?xml version="1.0" encoding="utf-8"?>
<!-- Generator: Adobe Illustrator 23.0.0, SVG Export Plug-In . SVG Version: 6.00 Build 0)  -->
<svg version="1.1" id="Layer_1" xmlns="http://www.w3.org/2000/svg" xmlns:xlink="http://www.w3.org/1999/xlink" x="0px" y="0px"
	 viewBox="0 0 113.9 40.6" style="enable-background:new 0 0 113.9 40.6;" xml:space="preserve">
<style type="text/css">
	.st0{fill-rule:evenodd;clip-rule:evenodd;fill:#303030;}
</style>
<path class="st0" d="M103.7,28.8L103.7,28.8c-1.2,0-2.2-1-2.2-2.2V14.5c0-1.2,1-2.2,2.2-2.2l0,0c1.2,0,2.2,1,2.2,2.2v12.1
	C105.9,27.8,104.9,28.8,103.7,28.8z"/>
<path class="st0" d="M112.7,8.6L112.7,8.6c0,1.2-1,2.2-2.2,2.2H98.4c-1.2,0-2.2-1-2.2-2.2l0,0c0-1.2,1-2.2,2.2-2.2h12.1
	C111.7,6.4,112.7,7.4,112.7,8.6z"/>
<path class="st0" d="M98.4,13.9L98.4,13.9c-1.2,0-2.2-1-2.2-2.2V8.6c0-1.2,1-2.2,2.2-2.2l0,0c1.2,0,2.2,1,2.2,2.2v3.1
	C100.7,12.9,99.7,13.9,98.4,13.9z"/>
<path class="st0" d="M100.8,17.5L100.8,17.5c0,1.2-1,2.2-2.2,2.2h-7.1c-1.2,0-2.2-1-2.2-2.2l0,0c0-1.2,1-2.2,2.2-2.2h7.1
	C99.8,15.3,100.8,16.3,100.8,17.5z"/>
<path class="st0" d="M76.4,13c-0.6,0-1.1-0.2-1.5-0.6c-0.4-0.4-0.6-0.9-0.6-1.5c0-0.6,0.2-1.1,0.6-1.5c0.5-0.5,1.2-0.7,1.9-0.6
	c0.1,0,0.3,0.1,0.4,0.1C77.3,9,77.4,9,77.6,9.1c0.1,0.1,0.2,0.2,0.3,0.3c0.4,0.4,0.6,0.9,0.6,1.5c0,0.6-0.2,1.1-0.6,1.5
	c-0.1,0.1-0.2,0.2-0.3,0.3c-0.1,0.1-0.2,0.1-0.4,0.2c-0.1,0-0.3,0.1-0.4,0.1C76.7,12.9,76.5,13,76.4,13z"/>
<path class="st0" d="M81.4,13c-0.6,0-1.1-0.2-1.5-0.6c-0.4-0.4-0.6-0.9-0.6-1.5c0-0.6,0.2-1.1,0.6-1.5c0.5-0.5,1.2-0.7,1.9-0.6
	c0.1,0,0.3,0.1,0.4,0.1C82.3,9,82.4,9,82.6,9.1c0.1,0.1,0.2,0.2,0.3,0.3c0.4,0.4,0.6,0.9,0.6,1.5c0,0.6-0.2,1.1-0.6,1.5
	c-0.1,0.1-0.2,0.2-0.3,0.3c-0.1,0.1-0.2,0.1-0.4,0.2c-0.1,0-0.3,0.1-0.4,0.1C81.7,12.9,81.5,13,81.4,13z"/>
<path class="st0" d="M91.5,25.8L91.5,25.8c-1.2,0-2.2-1-2.2-2.2v-6.1c0-1.2,1-2.2,2.2-2.2l0,0c1.2,0,2.2,1,2.2,2.2v6.1
	C93.8,24.8,92.8,25.8,91.5,25.8z"/>
<path class="st0" d="M99.8,23.6L99.8,23.6c0,1.2-1,2.2-2.2,2.2h-6.1c-1.2,0-2.2-1-2.2-2.2l0,0c0-1.2,1-2.2,2.2-2.2h6.1
	C98.8,21.3,99.8,22.3,99.8,23.6z"/>
<path class="st0" d="M88.5,17.5L88.5,17.5c0,1.2-1,2.2-2.2,2.2h-16c-1.2,0-2.2-1-2.2-2.2l0,0c0-1.2,1-2.2,2.2-2.2h16.1
	C87.5,15.3,88.5,16.3,88.5,17.5z"/>
<path class="st0" d="M70.3,25.8L70.3,25.8c-1.2,0-2.2-1-2.2-2.2v-6.1c0-1.2,1-2.2,2.2-2.2l0,0c1.2,0,2.2,1,2.2,2.2v6.1
	C72.5,24.8,71.5,25.8,70.3,25.8z"/>
<path class="st0" d="M78.5,23.6L78.5,23.6c0,1.2-1,2.2-2.2,2.2h-6.1c-1.2,0-2.2-1-2.2-2.2l0,0c0-1.2,1-2.2,2.2-2.2h6.1
	C77.5,21.3,78.5,22.3,78.5,23.6z"/>
<path class="st0" d="M45.2,24.3h10.1c1.2,0,2.2,1,2.2,2.2s-1,2.2-2.2,2.2H43c-0.2,0-0.3,0-0.4,0h-0.1c-0.1,0-0.2-0.1-0.3-0.1
	c0,0-0.1,0-0.1-0.1c-0.1,0-0.2-0.1-0.2-0.1l-0.1-0.1c-0.1-0.1-0.1-0.1-0.2-0.2L41.5,28c-0.1-0.1-0.1-0.1-0.2-0.2l-0.1-0.1
	c0-0.1-0.1-0.2-0.1-0.2c0-0.1,0-0.1-0.1-0.2c0-0.1-0.1-0.2-0.1-0.2c0-0.1,0-0.1,0-0.2s0-0.2,0-0.2L40.6,14c0-1.2,1-2.3,2.2-2.3
	s2.2,1,2.2,2.2L45.2,24.3z"/>
<path class="st0" d="M23.1,24.3h22.1c1.2,0,2.2,1,2.2,2.2s-1,2.2-2.2,2.2H20.9c-0.2,0-0.3,0-0.4,0h-0.1c-0.1,0-0.2-0.1-0.3-0.1
	c0,0-0.1,0-0.1-0.1c-0.1,0-0.2-0.1-0.2-0.1l-0.1-0.1c-0.1-0.1-0.1-0.1-0.2-0.2L19.4,28c-0.1-0.1-0.1-0.1-0.2-0.2l-0.1-0.1
	c0-0.1-0.1-0.2-0.1-0.2c0-0.1,0-0.1-0.1-0.2c0-0.1-0.1-0.2-0.1-0.2c0-0.1,0-0.1,0-0.2s0-0.2,0-0.2L18.5,14c0-1.2,1-2.3,2.2-2.3
	s2.2,1,2.2,2.2L23.1,24.3z"/>
<path class="st0" d="M40.1,14.4L40.1,14.4c0,1.2-1,2.2-2.2,2.2H27.8c-1.2,0-2.2-1-2.2-2.2l0,0c0-1.2,1-2.2,2.2-2.2h10.1
	C39.1,12.1,40.1,13.1,40.1,14.4z"/>
<path class="st0" d="M27.7,22.7L27.7,22.7c-1.2,0-2.2-1-2.2-2.2v-6.1c0-1.2,1-2.2,2.2-2.2l0,0c1.2,0,2.2,1,2.2,2.2v6.1
	C30,21.7,29,22.7,27.7,22.7z"/>
<path class="st0" d="M36.1,20.5L36.1,20.5c0,1.2-1,2.2-2.2,2.2h-6.1c-1.2,0-2.2-1-2.2-2.2l0,0c0-1.2,1-2.2,2.2-2.2h6.1
	C35.1,18.3,36.1,19.3,36.1,20.5z"/>
<path class="st0" d="M33.9,26.9L33.9,26.9c-1.2,0-2.2-1-2.2-2.2v-4.1c0-1.2,1-2.2,2.2-2.2l0,0c1.2,0,2.2,1,2.2,2.2v4.1
	C36.1,25.9,35.1,26.9,33.9,26.9z"/>
<path class="st0" d="M49.1,20c-0.6,0-1.1-0.2-1.5-0.6C47.2,19,47,18.5,47,17.9s0.2-1.1,0.6-1.5c0.5-0.5,1.2-0.7,1.9-0.6
	c0.1,0,0.3,0.1,0.4,0.1c0.1,0.1,0.2,0.1,0.4,0.2c0.1,0.1,0.2,0.2,0.3,0.3c0.4,0.4,0.6,0.9,0.6,1.5S51,19,50.6,19.4
	c-0.1,0.1-0.2,0.2-0.3,0.3s-0.2,0.1-0.4,0.2c-0.1,0-0.3,0.1-0.4,0.1C49.4,19.9,49.3,20,49.1,20z"/>
<path class="st0" d="M54.1,20c-0.6,0-1.1-0.2-1.5-0.6C52.2,19,52,18.5,52,17.9s0.2-1.1,0.6-1.5c0.5-0.5,1.2-0.7,1.9-0.6
	c0.1,0,0.3,0.1,0.4,0.1c0.1,0.1,0.2,0.1,0.4,0.2c0.1,0.1,0.2,0.2,0.3,0.3c0.4,0.4,0.6,0.9,0.6,1.5S56,19,55.6,19.4
	c-0.1,0.1-0.2,0.2-0.3,0.3s-0.2,0.1-0.4,0.2c-0.1,0-0.3,0.1-0.4,0.1C54.4,19.9,54.3,20,54.1,20z"/>
<path class="st0" d="M15.5,28.8L15.5,28.8c-1.2,0-2.2-1-2.2-2.2v-6.1c0-1.2,1-2.2,2.2-2.2l0,0c1.2,0,2.2,1,2.2,2.2v6.1
	C17.7,27.8,16.7,28.8,15.5,28.8z"/>
<path class="st0" d="M9.4,28.8L9.4,28.8c-1.2,0-2.2-1-2.2-2.2v-6.1c0-1.2,1-2.2,2.2-2.2l0,0c1.2,0,2.2,1,2.2,2.2v6.1
	C11.7,27.8,10.7,28.8,9.4,28.8z"/>
<path class="st0" d="M17.7,20.5L17.7,20.5c0,1.2-1,2.2-2.2,2.2H9.4c-1.2,0-2.2-1-2.2-2.2l0,0c0-1.2,1-2.2,2.2-2.2h6.1
	C16.7,18.3,17.7,19.3,17.7,20.5z"/>
<path class="st0" d="M17.7,26.6L17.7,26.6c0,1.2-1,2.2-2.2,2.2H5.4c-1.2,0-2.2-1-2.2-2.2l0,0c0-1.2,1-2.2,2.2-2.2h10.1
	C16.7,24.3,17.7,25.4,17.7,26.6z"/>
<path class="st0" d="M5.4,38.9L5.4,38.9c-1.2,0-2.2-1-2.2-2.2V26.6c0-1.2,1-2.2,2.2-2.2l0,0c1.2,0,2.2,1,2.2,2.2v10.1
	C7.7,37.9,6.7,38.9,5.4,38.9z"/>
<path class="st0" d="M97.6,21.5c-1.2,0-2.2,1-2.2,2.2v6c0,3.1-2.5,5.6-5.6,5.6c-3.1,0-5.6-2.5-5.6-5.6v-2c0-1.2-1-2.2-2.2-2.2
	c-1.2,0-2.2,1-2.2,2.2v2c0,5.5,4.4,10,9.9,10.1l0,0c0,0,0.1,0,0.1,0c0,0,0.1,0,0.1,0l0,0c5.5-0.1,9.9-4.6,9.9-10.1v-6
	C99.8,22.5,98.8,21.5,97.6,21.5z"/>
<path class="st0" d="M76.3,21.4c-1.2,0-2.2,1-2.2,2.2v6c0,3.1-2.5,5.6-5.6,5.6c-3.1,0-5.6-2.5-5.6-5.6v-2c0-1.2-1-2.2-2.2-2.2
	c-1.2,0-2.2,1-2.2,2.2v2c0,5.5,4.4,10,9.9,10.1l0,0c0,0,0.1,0,0.1,0c0,0,0.1,0,0.1,0l0,0c5.5-0.1,9.9-4.6,9.9-10.1v-6
	C78.5,22.4,77.5,21.4,76.3,21.4z"/>
<path class="st0" d="M110.5,10.6L110.5,10.6c-1.2,0-2.2-1-2.2-2.2V5.3c0-1.2,1-2.2,2.2-2.2l0,0c1.2,0,2.2,1,2.2,2.2v3.1
	C112.8,9.6,111.8,10.6,110.5,10.6z"/>
</svg>
