<?xml version="1.0" encoding="utf-8"?>
<!-- Generator: Adobe Illustrator 23.0.0, SVG Export Plug-In . SVG Version: 6.00 Build 0)  -->
<svg version="1.1" id="Layer_1" xmlns="http://www.w3.org/2000/svg" xmlns:xlink="http://www.w3.org/1999/xlink" x="0px" y="0px"
	 viewBox="0 0 28 28" style="enable-background:new 0 0 28 28;" xml:space="preserve">
<g>
	<path d="M12.8,3.6L10.2,3C8.2,2.5,6.2,3.8,5.7,5.9L5.1,8.4C6.8,5.8,9.5,4,12.8,3.6z"/>
	<path d="M3.6,15.2L3,17.8c-0.5,2.1,0.8,4.1,2.9,4.6l2.5,0.6C5.8,21.2,4,18.5,3.6,15.2z"/>
	<path d="M22.1,5.7l-2.5-0.6c2.6,1.7,4.5,4.4,4.8,7.6l0.6-2.5C25.5,8.2,24.2,6.2,22.1,5.7z"/>
	<path d="M15.2,24.4l2.5,0.6c2.1,0.5,4.1-0.8,4.6-2.9l0.6-2.5C21.2,22.2,18.5,24,15.2,24.4z"/>
</g>
<path d="M14,4.7c-5.2,0-9.3,4.2-9.3,9.3s4.2,9.3,9.3,9.3s9.3-4.2,9.3-9.3S19.2,4.7,14,4.7z M11.7,7.6c1.3,0,2.3,1,2.3,2.3
	s-1,2.3-2.3,2.3s-2.3-1-2.3-2.3S10.4,7.6,11.7,7.6z M9.9,18.7c-1.3,0-2.3-1-2.3-2.3c0-1.3,1-2.3,2.3-2.3s2.3,1,2.3,2.3
	C12.3,17.6,11.2,18.7,9.9,18.7z M12.8,14c0-0.6,0.5-1.2,1.2-1.2c0.6,0,1.2,0.5,1.2,1.2s-0.5,1.2-1.2,1.2
	C13.4,15.2,12.8,14.6,12.8,14z M16.3,20.4c-1.3,0-2.3-1-2.3-2.3c0-1.3,1-2.3,2.3-2.3s2.3,1,2.3,2.3C18.7,19.4,17.6,20.4,16.3,20.4z
	 M18.1,14c-1.3,0-2.3-1-2.3-2.3s1-2.3,2.3-2.3c1.3,0,2.3,1,2.3,2.3S19.4,14,18.1,14z"/>
</svg>
