<?xml version="1.0" encoding="utf-8"?>
<!-- Generator: Adobe Illustrator 23.0.0, SVG Export Plug-In . SVG Version: 6.00 Build 0)  -->
<svg version="1.1" id="Layer_1" xmlns="http://www.w3.org/2000/svg" xmlns:xlink="http://www.w3.org/1999/xlink" x="0px" y="0px"
	 viewBox="0 0 124 45" style="enable-background:new 0 0 124 45;" xml:space="preserve">
<style type="text/css">
	.st0{fill:#0A0A0A;}
</style>
<g>
	<path class="st0" d="M121.5,19.5c0-0.4,0-0.8-0.1-1.1c-0.6-3.5-3.1-5.7-6.7-5.8c-1.6,0-3.1,0-4.7,0c0,0,0,0,0,0c-1.7,0-3.3,0-5,0
		c-0.8,0-1.2,0.4-1.2,1.2c0,0.9,0,1.9,0,2.8c0,0.8,0.4,1.1,1.2,1.1c1.5,0,2.9,0,4.4,0c1.6,0,3.3,0,4.9,0c1.3,0,1.9,0.6,2,1.8
		c0,0.2,0,0.3,0,0.5c0,1.8,0,3.6,0,5.4c0,2-0.5,2.5-2.5,2.5c-2.8,0-5.6,0-8.4,0c-1.2,0-1.5,0.3-1.5,1.5c0,0.8,0,1.6,0,2.3
		c0,1,0.3,1.3,1.3,1.3c3,0,6.1,0,9.1,0c0.7,0,1.3-0.1,1.9-0.2c3-0.6,5.1-3.1,5.3-6.1C121.6,24.3,121.5,21.9,121.5,19.5z"/>
	<path class="st0" d="M102.3,10.5c0-0.4,0-0.7,0-1.1c0-1,0-2,0-3c0-0.9-0.4-1.3-1.2-1.3c-1,0-2,0-3,0c-0.6,0-1,0.4-1,1
		c0,0.2,0,21.4,0,21.5l0,0c0,0.4,0,0.7,0,1.1c0,1,0,2,0,3c0,0.9,0.4,1.3,1.2,1.3c1,0,2,0,3,0c0.6,0,1-0.4,1-1
		C102.3,31.9,102.3,10.6,102.3,10.5L102.3,10.5z"/>
	<path class="st0" d="M94.8,17.4c-0.9,0-1.9,0-2.8,0c-0.8,0-1.2,0.4-1.2,1.2c0,2,0,4,0,6c0,1.8-1.6,3.2-3.5,3
		c0.2-0.6,0.3-1.2,0.4-1.8c0.1-2,0-3.9,0-5.9c0-0.5,0-0.9,0-1.4c0-0.7-0.4-1.1-1.1-1.1c-0.9,0-1.9,0-2.8,0c-0.9,0-1.3,0.4-1.3,1.3
		c0,2,0,4,0,6c0,1.4-1.1,2.7-2.6,2.8c-0.3,0-0.6,0.1-0.9,0.1c-0.2,0-0.3,0-0.3,0c-0.1,0-0.4,0-0.8,0c-0.2,0-0.4,0-0.6,0
		c-1.2-0.1-1.8-0.6-1.9-1.7c0,0,0-0.1,0-0.1c0-2.4,0-4.8,0-7.3c0-0.6-0.4-1.1-0.9-1.1c-0.6,0-1.2,0-1.7,0c-0.6,0-1.2,0-1.7,0
		c-0.5,0-0.9,0.5-0.9,1.1c0,2.4,0,4.8,0,7.3c0,0,0,0.1,0,0.1c-0.1,1.1-0.8,1.7-2,1.7c-0.1,0-0.1,0-0.2,0c-1.4,0-2.7,0-4.1,0
		c0.1-0.6,0.2-1.2,0.2-1.8c0-2.4,0-4.8,0-7.3c0-0.6-0.4-1.1-0.9-1.1c-1.1,0-2.3,0-3.4,0c-0.5,0-0.9,0.4-0.9,0.9c0,0.2,0,0.3,0,0.5
		c0,2.3,0,4.5,0,6.8c0,1.4-0.6,2-2.1,2.1c-0.1,0-0.1,0-0.2,0c-2.3,0-4.5,0-6.8,0c0-1.6,0-3,0-3.8c0-0.4,0-0.8-0.1-1.1
		c-0.6-3.5-3.1-5.7-6.7-5.8c-1.6,0-3.1,0-4.7,0c0,0,0,0,0,0c-1.1,0-2.3,0-3.4,0c-0.1,0-0.3,0-0.4,0c-0.4,0-0.8,0-1.1,0
		c-0.1,0-0.1,0-0.2,0c0,0-0.1,0-0.1,0c-0.5,0-0.9,0.5-0.9,1.1c0,0.2,0,0.4,0,0.6c0,0.5,0,0.9,0,1.4c0,1.7,0,3.5,0,5.2
		c0,0.9,0.2,1.9,0.5,2.8c1,2.4,2.8,3.7,5.4,4.1c0.6,0.1,1.2,0.1,1.8,0.1c1.6,0,3.2,0,4.8,0c0,1.3,0,2.5,0,3c0,2-0.5,2.5-2.5,2.5
		c-2.8,0-5.6,0-8.4,0c-1.2,0-1.5,0.3-1.5,1.5c0,0.8,0,1.6,0,2.3c0,1,0.3,1.3,1.3,1.3c3,0,6.1,0,9.1,0c0.7,0,1.3-0.1,1.9-0.2
		c3-0.6,5.1-3.1,5.3-6.1c0-0.8,0.1-2.2,0.1-3.8c0,0,0.1,0,0.1,0c2.1,0,4.3,0,6.4,0c0.6,0,1.2,0,1.8-0.1c0.6-0.1,1.2-0.3,1.7-0.5
		c0.4,0.4,0.8,0.6,1.3,0.6c2.1,0,4.3,0,6.4,0c0.6,0,1.2,0,1.8-0.1c1.3-0.2,2.4-0.6,3.3-1.3c0.9,0.7,2,1.1,3.3,1.3
		c0.2,0,0.4,0.1,0.6,0.1l0,0c0.1,0,0.3,0,0.4,0c0.1,0,0.2,0,0.2,0c-0.2,0-0.1,0,0.5,0c0,0,0.1,0,0.1,0c0.8,0,0.5,0,0,0
		c0,0,0,0,0.1,0c0.5,0,1,0,1.5,0c1.9,0.1,3.5-0.4,5-1.5c0.2-0.1,0.3-0.1,0.4,0.1c0.3,0.4,0.6,0.7,0.9,1.1c0.2,0.2,0.4,0.4,0.7,0.4
		c0.9,0,1.8,0.1,2.6-0.1c3.8-0.5,6.6-3.7,6.6-7.5c0-2.2,0-4.3,0-6.5C96,17.9,95.6,17.5,94.8,17.4z M39.8,27.1c-0.1,0-0.1,0-0.2,0
		c-1.4,0-2.1-0.7-2.1-2.1c0-1,0-2,0-3c0.1,0,0.2,0,0.4,0c1.6,0,3.3,0,4.9,0c1.3,0,1.9,0.6,2,1.8c0,0.2,0,0.3,0,0.5
		c0,0.5,0,1.6,0,2.8C43.1,27.1,41.5,27.1,39.8,27.1z"/>
	<path class="st0" d="M78.7,27.7C79.2,27.7,78.7,27.7,78.7,27.7L78.7,27.7z"/>
	<path class="st0" d="M55.9,36.8c-0.6,0-1.1,0-1.7,0c-0.6,0-1.2,0-1.8,0c-0.7,0-1.1,0.4-1.1,1.2c0,1,0,1.9,0,2.9
		c0,0.7,0.4,1.1,1.1,1.2c1.2,0,2.3,0,3.5,0c0.7,0,1.1-0.4,1.1-1.1c0-0.9,0-1.9,0-2.8C57,37.3,56.6,36.9,55.9,36.8z"/>
	<path class="st0" d="M29.4,21.5L29.4,21.5c0-0.4,0-0.7,0-1.1c0-1,0-1.5,0-2.5c0-0.9-0.4-1.3-1.2-1.3c-1,0-2,0-3,0c-0.6,0-1,0.4-1,1
		c0,0.2,0,14.5,0,14.6l0,0c0,0.4,0,0.7,0,1.1c0,1,0,2,0,3c-0.2,1.1-0.8,1.4-2.4,1.4c-2.8,0-5.6,0-8.4,0c-1.2,0-1.5,0.3-1.5,1.5
		c0,0.8,0,1.6,0,2.3c0,1,0.3,1.3,1.3,1.3c3,0,6.1,0,9.1,0c0.7,0,1.3-0.1,1.9-0.2c3-0.6,5.1-3.1,5.3-6.1l0,0
		C29.4,35.6,29.4,21.7,29.4,21.5z"/>
	<path class="st0" d="M15.3,32.8c3-0.6,5.1-3.1,5.3-6.1c0.1-2.4,0-4.8,0-7.2c0-0.4,0-0.8-0.1-1.1c-0.6-3.5-3.1-5.7-6.7-5.8
		c-1.6,0-3.1,0-4.7,0c0,0,0,0,0,0c-1.7,0-3.3,0-5,0c-0.8,0-1.2,0.4-1.2,1.2c0,0.9,0,1.9,0,2.8c0,0.8,0.4,1.1,1.2,1.1
		c1.5,0,2.9,0,4.4,0c1.6,0,3.3,0,4.9,0c1.3,0,1.9,0.6,2,1.8c0,0.2,0,0.3,0,0.5c0,1.8,0,3.6,0,5.4c0,2-0.5,2.5-2.5,2.5
		c-2.8,0-5.6,0-8.4,0c-1.2,0-1.5,0.3-1.5,1.5c0,0.8,0,1.6,0,2.3c0,1,0.3,1.3,1.3,1.3c3,0,6.1,0,9.1,0C14,33,14.7,33,15.3,32.8z"/>
	<path class="st0" d="M80.8,7.3c1.2,0,2.3,0,3.5,0c0.7,0,1.1-0.4,1.1-1.1c0-0.9,0-1.9,0-2.8c0-0.8-0.4-1.2-1.2-1.2
		c-0.6,0-1.1,0-1.7,0c-0.6,0-1.2,0-1.8,0c-0.7,0-1.1,0.4-1.1,1.2c0,1,0,1.9,0,2.9C79.6,6.8,80,7.3,80.8,7.3z"/>
	<path class="st0" d="M77,14.3c1.3,0,2.6,0,3.9,0c1.3,0,6.3,0,7.7,0c0.8,0,1.2-0.4,1.2-1.2c0-0.9,0-1.8,0-2.7c0-0.9-0.4-1.3-1.3-1.3
		c-2.6,0-8.9,0-11.5,0c-0.9,0-1.3,0.4-1.3,1.3c0,0.9,0,1.7,0,2.6C75.7,13.9,76.1,14.3,77,14.3z"/>
</g>
</svg>
