<?xml version="1.0" encoding="UTF-8"?>
<svg width="68px" height="65px" viewBox="0 0 68 65" version="1.1" xmlns="http://www.w3.org/2000/svg" xmlns:xlink="http://www.w3.org/1999/xlink">
    <title>Artboard</title>
    <g id="Artboard" stroke="none" stroke-width="1" fill="none" fill-rule="evenodd">
        <g id="Group" transform="translate(4, 4.312)">
            <path d="M39.9999967,37.8920892 L19.9999967,37.8920892 C17.1289967,37.8923892 14.3346967,38.7701892 12.0322967,40.3952892 C9.7297967,42.0202892 8.0421967,44.3056892 7.2199967,46.9119892 C10.0333967,50.0293892 13.5269967,52.5314892 17.4597967,54.2456892 C21.3925967,55.9599892 25.6709967,56.8455892 29.9999967,56.8415034 C34.3289967,56.8455892 38.6074967,55.9599892 42.5402967,54.2456892 C46.4730967,52.5314892 49.9665967,50.0293892 52.7799967,46.9119892 C51.9578967,44.3056892 50.2701967,42.0202892 47.9677967,40.3952892 C45.6653967,38.7701892 42.8709967,37.8923892 39.9999967,37.8920892 Z" id="Path" fill="#FFFFFF" fill-rule="nonzero" opacity="0.16"></path>
            <path d="M60.000038,28.4175892 C60.0098967,34.0605892 58.2383967,39.5775892 54.9132967,44.2592892 C52.1711967,48.1342892 48.4635967,51.3094892 44.1182967,53.5040892 C39.7730967,55.6985892 34.9239967,56.8449892 30,56.8417959 C25.0759967,56.8449892 20.2268967,55.6985892 15.8816967,53.5040892 C11.5363967,51.3094892 7.8287967,48.1342892 5.0866667,44.2592892 C2.4757667,40.5717892 0.813006704,36.3559892 0.231686704,31.9498892 C-0.349633296,27.5437892 0.166646704,23.0698892 1.7391567,18.8868892 C3.3116667,14.7038892 5.8966467,10.9281892 9.2868967,7.86238921 C12.6770967,4.79651921 16.7782967,2.52589921 21.2616967,1.23250921 C25.7450967,-0.0608807889 30.4858967,-0.341060789 35.1040967,0.414419211 C39.7223967,1.16990921 44.0895967,2.94003921 47.8556967,5.58292921 C51.6216967,8.22578921 54.6818967,11.6678892 56.7908967,15.6333892 C58.8997967,19.5987892 59.9988967,23.9771892 60.000038,28.4175892 Z" id="Path" stroke="#FFFFFF" stroke-width="6.66667"></path>
            <path d="M33.3332967,18.9429892 C33.3332967,19.7805892 32.9820967,20.5838892 32.3569967,21.1761892 C31.7318967,21.7684892 30.8839967,22.1011892 29.9999967,22.1011892 L29.9999967,28.4176892 C32.6520967,28.4176892 35.1956967,27.4194892 37.0709967,25.6425892 C38.9463967,23.8657892 39.9999967,21.4557892 39.9999967,18.9429892 L33.3332967,18.9429892 Z M29.9999967,22.1011892 C29.1158967,22.1011892 28.2680967,21.7684892 27.6429967,21.1761892 C27.0177967,20.5838892 26.6665967,19.7805892 26.6665967,18.9429892 L19.9999967,18.9429892 C19.9999967,21.4557892 21.0534967,23.8657892 22.9288967,25.6425892 C24.8042967,27.4194892 27.3477967,28.4176892 29.9999967,28.4176892 L29.9999967,22.1011892 Z M26.6665967,18.9429892 C26.6665967,18.1053892 27.0177967,17.3020892 27.6429967,16.7097892 C28.2680967,16.1174892 29.1158967,15.7847892 29.9999967,15.7847892 L29.9999967,9.46828921 C27.3477967,9.46828921 24.8042967,10.4664892 22.9288967,12.2433892 C21.0534967,14.0201892 19.9999967,16.4300892 19.9999967,18.9429892 L26.6665967,18.9429892 Z M29.9999967,15.7847892 C30.8839967,15.7847892 31.7318967,16.1174892 32.3569967,16.7097892 C32.9820967,17.3020892 33.3332967,18.1053892 33.3332967,18.9429892 L39.9999967,18.9429892 C39.9999967,16.4300892 38.9463967,14.0201892 37.0709967,12.2433892 C35.1956967,10.4664892 32.6520967,9.46828921 29.9999967,9.46828921 L29.9999967,15.7847892 Z M7.2199967,46.9123892 L4.0233167,46.0122892 L3.5066467,47.6639892 L4.6899867,48.9683892 L7.2199967,46.9123892 Z M52.7799967,46.9123892 L55.3132967,48.9683892 L56.4932967,47.6639892 L55.9765967,46.0122892 L52.7799967,46.9123892 Z M19.9999967,41.0506892 L39.9999967,41.0506892 L39.9999967,34.7341892 L19.9999967,34.7341892 L19.9999967,41.0506892 Z M19.9999967,34.7341892 C16.4103967,34.7341892 12.9166967,35.8316892 10.0381967,37.8635892 C7.1597967,39.8955892 5.0502367,42.7533892 4.0233167,46.0122892 L10.4132967,47.8124892 C11.0307967,45.8581892 12.2970967,44.1447892 14.0241967,42.9265892 C15.7512967,41.7084892 17.8468967,41.0505892 19.9999967,41.0506892 L19.9999967,34.7341892 Z M29.9999967,53.6836892 C26.1515967,53.6877892 22.3480967,52.9006892 18.8519967,51.3766892 C15.3558967,49.8526892 12.2504967,47.6279892 9.7499967,44.8563892 L4.6899867,48.9683892 C7.8162967,52.4313892 11.6978967,55.2109892 16.0673967,57.1154892 C20.4368967,59.0199892 25.1902967,60.0041892 29.9999967,60.000102 L29.9999967,53.6836892 Z M39.9999967,41.0506892 C44.5232967,41.0506892 48.3532967,43.8993892 49.5865967,47.8155892 L55.9765967,46.0122892 C54.9498967,42.7538892 52.8374967,39.8964892 49.9596967,37.8645892 C47.0818967,35.8326892 43.5889967,34.7347892 39.9999967,34.7341892 L39.9999967,41.0506892 Z M50.2499967,44.8563892 C47.7494967,47.6279892 44.6439967,49.8526892 41.1478967,51.3766892 C37.6517967,52.9006892 33.8483967,53.6877892 29.9999967,53.6836892 L29.9999967,60.000102 C34.8095967,60.0041892 39.5629967,59.0199892 43.9324967,57.1154892 C48.3019967,55.2109892 52.1869967,52.4313892 55.3132967,48.9683892 L50.2499967,44.8563892 Z" id="Shape" fill="#FFFFFF" fill-rule="nonzero"></path>
        </g>
    </g>
</svg>