<?xml version="1.0" encoding="UTF-8"?>
<svg width="2500.25003px" height="2500px" viewBox="0 0 2500.25003 2500" version="1.1" xmlns="http://www.w3.org/2000/svg" xmlns:xlink="http://www.w3.org/1999/xlink">
    <title>pinterest</title>
    <g id="Page-1" stroke="none" stroke-width="1" fill="none" fill-rule="evenodd">
        <g id="pinterest" fill="#D8D8D8" fill-rule="nonzero">
            <path d="M0,1250.12501 C6.50065007,895.339534 131.763176,599.059906 376.037604,361.536154 C620.312031,124.012401 911.591159,3.25032503 1250.12501,0 C1614.66147,6.50065007 1913.44134,131.013101 2146.21462,373.537354 C2378.9879,616.061606 2496.9997,908.340834 2500.25003,1250.12501 C2493.74937,1601.66017 2368.48685,1897.18972 2124.21242,2136.46365 C1879.93799,2375.48755 1588.65887,2496.74967 1250.12501,2500 C1132.86329,2500 1015.85159,2481.9982 898.589859,2446.24462 C921.342134,2410.49105 944.094409,2369.73697 966.846685,2324.23242 C992.849285,2268.9769 1025.35254,2164.71647 1064.60646,2011.70117 C1074.35744,1969.44694 1089.10891,1912.44124 1108.61086,1840.68407 C1131.36314,1879.68797 1170.36704,1915.44154 1225.87259,1948.19482 C1372.38724,2016.45165 1526.90269,2009.951 1689.66897,1928.69287 C1858.93589,1830.93309 1976.19762,1679.66797 2041.20412,1474.64746 C2099.70997,1259.87599 2092.45925,1060.35604 2019.20192,876.587659 C1945.94459,692.569257 1814.93149,560.056006 1626.16262,478.547855 C1388.63886,410.291029 1157.36574,417.541754 932.843284,500.550055 C708.320832,583.558356 552.055206,726.072607 464.046405,927.842784 C441.294129,1002.60026 427.542754,1076.85769 422.542254,1150.11501 C417.541754,1223.37234 420.042004,1294.87949 429.792979,1364.88649 C439.543954,1434.89349 464.046405,1497.64976 503.050305,1552.90529 C542.054205,1608.16082 594.309431,1650.66507 659.315932,1679.91799 C675.567557,1686.41864 688.568857,1686.41864 698.319832,1679.91799 C711.321132,1673.41734 724.322432,1647.41474 737.323732,1601.91019 C750.325033,1556.40564 755.325533,1525.40254 752.075208,1509.15092 C748.824882,1502.65027 742.324232,1491.14911 732.573257,1474.89749 C664.316432,1364.13641 641.314131,1247.87479 664.316432,1125.86259 C687.068707,1003.85039 737.573757,900.340034 815.581558,815.831583 C936.093609,708.320832 1076.85769,649.814981 1237.87379,640.064006 C1398.88989,630.313031 1536.65367,674.317432 1650.41504,771.827183 C1712.17122,843.334333 1752.17522,929.592959 1769.92699,1030.60306 C1787.67877,1131.61316 1787.92879,1228.37284 1769.92699,1321.13211 C1751.92519,1413.89139 1720.17202,1500.90009 1674.66747,1582.40824 C1593.15932,1709.42094 1497.14971,1774.42744 1386.63866,1777.67777 C1321.63216,1774.42744 1268.62686,1749.17492 1227.87279,1701.92019 C1187.11871,1654.66547 1174.86749,1600.16002 1191.36914,1538.40384 C1197.86979,1502.65027 1217.37174,1432.64326 1249.87499,1328.38284 C1282.37824,1224.12241 1300.38004,1146.11461 1303.63036,1094.10941 C1293.87939,970.347035 1236.87369,906.840684 1132.61326,903.590359 C1051.10511,913.341334 991.09911,950.09501 951.845185,1013.35134 C912.591259,1076.60766 891.589159,1149.36494 888.338834,1230.62306 C898.089809,1325.13251 912.841284,1390.13901 932.343234,1425.89259 C896.589659,1572.40724 868.836884,1689.66897 849.334933,1777.42774 C842.834283,1800.18002 824.832483,1870.18702 795.579558,1987.44874 C766.326633,2104.71047 750.075008,2194.21942 746.824682,2255.9756 L746.824682,2392.73927 C515.80158,2285.22852 333.283328,2129.963 200.020002,1926.44264 C66.7566757,1722.92229 0,1497.39974 0,1250.12501 Z" id="Path"></path>
        </g>
    </g>
</svg>