<?xml version="1.0" encoding="utf-8"?>
<!-- Generator: Adobe Illustrator 23.0.0, SVG Export Plug-In . SVG Version: 6.00 Build 0)  -->
<svg version="1.1" id="Layer_1" xmlns="http://www.w3.org/2000/svg" xmlns:xlink="http://www.w3.org/1999/xlink" x="0px" y="0px"
	 viewBox="0 0 24 24" style="enable-background:new 0 0 24 24;" xml:space="preserve">
<style type="text/css">
	.st0{fill:none;}
	.st1{fill:none;stroke:#000000;stroke-width:2;stroke-linecap:round;stroke-linejoin:round;}
</style>
<path class="st0" d="M0.4,0.2"/>
<path class="st1" d="M14.3,12.6h2.8"/>
<path class="st1" d="M1.8,12.4C4,12.6,5.6,11,5.5,9.6C5.4,8.3,3.8,7.1,1.8,7.3"/>
<line class="st1" x1="1.5" y1="7.3" x2="1.5" y2="17.4"/>
<line class="st1" x1="1.8" y1="13" x2="6.7" y2="17.3"/>
<ellipse class="st1" cx="9.5" cy="12.4" rx="2.2" ry="5"/>
<line class="st1" x1="13.6" y1="7.3" x2="13.6" y2="17.4"/>
<line class="st1" x1="17.7" y1="7.3" x2="17.7" y2="17.4"/>
<path class="st1" d="M22.7,4.5c-1.2,0.6-2.7,1.7-2.9,3.2c-0.3,2.2,2.5,3.5,2.6,6c0.1,1.3-0.5,3.2-3.7,5.7"/>
</svg>
