<?xml version="1.0" encoding="UTF-8"?>
<svg width="678.4px" height="669.866673px" viewBox="0 0 678.4 669.866673" version="1.1" xmlns="http://www.w3.org/2000/svg" xmlns:xlink="http://www.w3.org/1999/xlink">
    <title>topic-selection</title>
    <g id="Page-1" stroke="none" stroke-width="1" fill="none" fill-rule="evenodd">
        <g id="topic-selection" transform="translate(-0, 0)" fill-rule="nonzero">
            <path d="M328.533334,469.333333 L320,469.333333 C290.133333,456.533333 200.533334,341.333333 200.533334,302.933333 C200.533334,260.266666 234.666667,221.866667 281.6,221.866667 C298.666667,221.866667 315.733333,226.133334 332.8,238.933333 C345.6,226.133333 362.666667,221.866667 384,221.866667 C426.666667,221.866667 465.066667,256 465.066667,302.933333 C465.066667,341.333333 371.2,456.533333 345.6,469.333333 L328.533334,469.333333 Z M328.533334,448 C328.533334,448 332.800001,448 328.533334,448 C354.133334,439.466667 439.466667,332.8 439.466667,298.666667 C439.466667,264.533334 413.866667,238.933333 379.733334,238.933333 C362.666667,238.933333 349.866667,243.2 337.066667,256 C337.066667,256 332.8,260.266667 328.533334,260.266667 C324.266668,260.266667 324.266667,260.266667 320,256 C307.2,243.2 294.4,238.933333 277.333334,238.933333 C243.200001,238.933333 217.6,264.533333 217.6,298.666667 C217.6,332.8 307.2,439.466667 328.533334,448 L328.533334,448 Z" id="Shape" fill="#000000"></path>
            <path d="M140.8,401.066667 C140.8,497.099659 192.032988,585.837804 275.199998,633.8543 C358.367009,681.870797 460.832991,681.870797 544.000002,633.8543 C627.167012,585.837804 678.4,497.099659 678.4,401.066667 C678.4,252.612526 558.054141,132.266667 409.6,132.266667 C261.145859,132.266667 140.8,252.612526 140.8,401.066667 L140.8,401.066667 Z" id="Path" fill="#FFDD48"></path>
            <path d="M76.8,661.333333 C72.533333,661.333333 68.266667,657.066666 64,657.066667 C59.733333,652.8 59.733333,648.533334 59.733334,644.266667 L64,529.066667 C21.333333,473.6 5.68434189e-14,401.066667 5.68434189e-14,332.8 C5.68434189e-14,149.333333 149.333333,-5.68434189e-14 332.8,-5.68434189e-14 C516.266667,-5.68434189e-14 665.6,149.333333 665.6,332.8 C665.6,516.266667 516.266667,665.6 332.8,665.6 L307.2,665.6 L76.8,661.333333 Z M302.933334,618.666667 L328.533334,618.666667 C490.666667,618.666667 622.933334,486.4 622.933334,324.266667 C622.933334,162.133333 490.666667,34.133333 328.533334,34.133333 C166.400001,34.133333 34.133334,166.4 34.133334,328.533333 C34.133334,392.533333 55.466667,456.533333 98.133334,507.733333 C102.400001,512 102.400001,516.266666 102.4,520.533333 L98.133334,618.666667 L302.933334,618.666667 Z" id="Shape" fill="#000000"></path>
        </g>
    </g>
</svg>