<?xml version="1.0" encoding="utf-8"?>
<!-- Generator: Adobe Illustrator 23.0.0, SVG Export Plug-In . SVG Version: 6.00 Build 0)  -->
<svg version="1.1" id="Layer_1" xmlns="http://www.w3.org/2000/svg" xmlns:xlink="http://www.w3.org/1999/xlink" x="0px" y="0px"
	 viewBox="0 0 28 28" style="enable-background:new 0 0 28 28;" xml:space="preserve">
<g transform="translate(0.000000,720.000000) scale(0.100000,-0.100000)">
	<path d="M134.6,7182.8c-13.8-1.2-29-5.5-42-12c-23.3-11.6-41.6-30.1-53-53.3c-16.7-34.1-16.2-72.1,1.3-107.6l2.8-5.6l-10.3-30.6
		c-7.7-23-10.2-30.7-9.9-31.2c0.2-0.3,0.7-0.6,1.2-0.7c0.6-0.1,0.8-0.4,0.8-1.2c0-1,0.1-1.1,0.9-0.9c2.6,0.8,24.1,7.7,41.8,13.3
		l20.4,6.5l5.4-2.5c21.2-10.1,42.7-13.8,65.2-11c33.5,4.1,63.7,22.8,82.5,51.1c15.2,22.9,22.8,51.3,20.6,77.2
		c-2,24-10.8,46.1-25.8,64.9c-14.7,18.4-35.7,32.4-58.6,39.1c-4.9,1.4-13.7,3.3-18.9,3.9C154.7,7183,139.7,7183.2,134.6,7182.8z
		 M158.4,7157.7c21.6-3.2,39.9-12.4,55.2-27.7c14.9-14.8,23.7-32.4,26.2-52.2c0.8-6.2,0.8-18,0-24.2c-2.6-21-12.1-40.3-27.2-55.4
		c-11.2-11.2-23.3-18.8-38.1-23.6c-9.8-3.2-18.1-4.5-29.4-4.5c-9.3,0-14.6,0.6-22.5,2.5c-10.8,2.6-17.9,5.7-30,12.8
		c-0.9,0.6-1.6,0.4-18.1-4.9c-9.4-3-17.3-5.4-17.5-5.3c-0.2,0.1,2.1,7.4,5.1,16.3c2.9,8.8,5.4,16.5,5.4,17s-1,2.4-2.2,4.3
		c-13.2,20.6-18.3,43-14.9,66.6c2,13.8,6.7,25.9,14.5,37.2c16.4,23.7,42,38.8,70.9,41.8C140.4,7158.7,154,7158.4,158.4,7157.7z"/>
	<path d="M102.7,7123.2c-2.3-0.8-4.2-2.2-7.1-5.1c-6.3-6.6-9.3-13.5-9.7-22.8c-0.5-10.7,3.7-22.5,13.1-37
		c15.7-24.3,31.5-38.5,52.4-47.2c10.7-4.5,17.7-6.8,22.3-7.4c3.5-0.4,10.3,0.6,14.5,2.2c3.8,1.5,9.2,5,11.6,7.6
		c3.6,4,6.8,12.9,6.8,19.3c0,2.6-0.1,3-1,4c-1.9,2.1-25.5,14.4-28.3,14.8c-2.5,0.3-3.5-0.4-7.7-5.2c-6.5-7.5-8.5-9.5-9.6-9.5
		c-1.3,0-10.3,4.5-14.6,7.3c-10.4,6.9-19.1,16.4-26,28.4c-0.6,1-1,1.9-1,2.1s1.2,1.7,2.6,3.3c3.5,3.8,4.6,5.6,6.1,9.2
		c1.7,4.1,1.6,5.1-0.6,11.3c-3.3,8.9-4.3,11.7-6.1,16.5c-1.9,5-3.3,7.2-5.2,8C113.6,7123.5,104.5,7123.8,102.7,7123.2z"/>
</g>
</svg>
