<?xml version="1.0" encoding="UTF-8"?>
<!-- Generator: Adobe Illustrator 23.0.0, SVG Export Plug-In . SVG Version: 6.00 Build 0)  -->
<svg version="1.1" id="Layer_1" xmlns="http://www.w3.org/2000/svg" xmlns:xlink="http://www.w3.org/1999/xlink" x="0px" y="0px" viewBox="0 0 866.7 251.6" style="enable-background:new 0 0 866.7 251.6;" xml:space="preserve">
<g>
	<path d="M519.4,53.2c-4,5.5-9.5,9.1-15.7,11.9c-14.8,6.7-30.4,9.8-46.4,11.4c-18.4,1.8-36.7,2.1-55-1.3   c-9.5-1.8-19.5-3.5-20.6-16.2c-0.1-0.7-0.3-1.7-1.1-1.7c-1.1,0-1.2,1-1.4,1.8c-1.6,7.2-2.4,14.6-2.9,22c-0.5,8,3.1,13.4,10.1,17   c4.7,2.4,9.7,3.4,14.9,3.9c12.4,1.3,24.9,1.1,37.3,0c16.9-1.5,33.3-4.9,49.2-11c16.3-6.3,27.4-17.5,33-34.1   c0.5-1.6,1.3-3.1,0.5-4.8C520.1,51.8,519.8,52.6,519.4,53.2z"/>
	<path d="M583.3,106.2c-14.7,7.1-28.6,15.4-40.8,26.5c-6,5.4-11.5,11.1-14.1,19c-1,2.9-0.3,4.1,2.9,4.1c6.8-0.1,13.4-1.5,20.1-2.9   c0.3,0,0.6,0,0.9,0c-0.3,0-0.6,0-0.9,0c0.2,0.3,0.5,0.5,0.7,0.8c-5.1,8.1-12.6,12.3-21.9,13.3c-7.8,0.9-12.8-2.4-15.1-9.9   c-1.3-4.3-2.2-8.8-2-13.4c0.8-15.4,3.1-30.7,4.9-46c0.5-4.1,1.7-8.3,0.9-12.5c-3,5.8-5.8,11.8-7.2,18.1   c-3.2,14.6-4.9,29.4-6.8,44.2c-1.2,9.3-2.5,18.5-0.7,27.9c2.3,12.5,11.5,18.9,23.9,15.9c7.3-1.8,12.6-6.6,17-12.4   c7.6-9.8,12.6-21.2,19-31.7c0.4-0.6,0.6-1.3,0.8-2.1c0.7-2.9-0.3-4-3.2-3.4c-2,0.4-4,1.1-6.1,1.6c-6.4,1.5-12.8,3.3-19.3,3.6   c-0.4-1-0.1-1.6,0.4-2c4.4-3.6,8.6-7.3,13.7-9.9c8-4.2,15.8-8.8,24-12.3c11.2-4.8,18.8-12.7,24.2-23.3c0.4-0.7,1.2-1.3,0.2-2.4   C593.8,100.4,588.7,103.6,583.3,106.2z"/>
	<path d="M343.9,87.5c-1.5,2.6-2.8,5-4.2,7.4c-0.8,1.4-2.1,2.8-3.8,2.3c-2.4-0.7-3.3,0.8-4.4,2.3c-3.5,4.6-6.5,6.7-12.3,3.9   c-2.5-1.2-5-0.8-7.5,0.3c-3.1,1.4-5.8,3.3-8.4,5.3c-6,4.7-9.6,11.4-14.6,17c-5.8,6.5-11.8,12.9-16.7,20.2c-0.9,1.4-2.3,2.5-4.1,1.9   c-6.5-2.2-11.6,0.2-16.3,4.6c-4.6,4.4-10.4,6.4-16.8,6.7c-10.3,0.4-21.2-8.3-15.5-20.9c0.6-1.3,1.1-2.8,1.5-4.2   c0.2-0.7,0.4-1.6-0.3-2c-1-0.5-1.6,0.3-2,1.1c-1.4,2.9-2.9,5.7-4.1,8.7c-7.2,17.9-19.4,31.2-36.3,40.4c-2.4,1.3-5,2.6-7,4.8   c5.1,1.5,20.5-2.6,25.1-6.5c3.6-3.1,6.3-6.9,9-10.7c0.6-0.9,0.8-2.7,2.4-2.3c1.2,0.3,0.8,1.9,1.1,2.9c3.1,12.3,14.5,17.2,25.6,10.9   c4.1-2.3,7.2-5.6,10-9.2c2.4-3.1,4.4-6.6,7.7-9c2.2-1.7,4.5-2.7,7.5-1.8c3.9,1.1,7.4,0.3,10-3.2c1.8-2.5,4-4.7,5.9-7.1   c3.9-5.1,8.3-8,14.8-4.7c0.3,0.2,0.7,0.2,1.1,0.3c4.1,0.6,7.7-1.7,10.4-6.7c2.1-3.7,0.9-6.4-1.9-9.1c-4.7-4.5-4.6-4.9-0.4-9.9   c3.6-4.4,8.4-6.5,12.2-4.5c5.5,2.9,9.7,1.1,13.8-2.5c2-1.8,3.9-4.2,6.6-4.7c5.3-1,7.5-4.7,9.4-9c1.5-3.3,2.3-6.8,3.1-10.2   C344.6,89.3,345,88.3,343.9,87.5z"/>
	<path d="M676.3,120.7c-4.1,9.6-6.5,19.4-6,30.1c0.6,12.7-3.1,24.5-11,34.9c-12.6,16.6-29.3,23.8-49.8,20.9   c-17.5-2.5-25.7-15.4-21.9-32.6c1.9-8.5,5.2-16.4,8.3-24.4c0.7-1.9,1.7-3.7,1-6.4c-1,1.9-1.8,3.4-2.6,4.9   c-8.2,15.9-14.3,32.4-14.8,50.6c-0.5,16.2,8.3,28.7,23.5,32.4c11.7,2.9,22.8,0,32.9-6.3c16.4-10.2,25.7-25.8,32.5-43.3   c6.2-15.9,8.6-32.6,10.3-49.4c0.6-6.4,1.4-12.9,2.1-19.3C678,114.9,677.5,118,676.3,120.7z"/>
	<path d="M139.4,107c-2.4-0.4-2.7,2.7-3.9,4.3c-0.3,0.4-0.5,0.8-0.7,1.3c-0.7,1.7-1.4,1.4-2.6,0.3c-4.8-4.2-8.8-3.8-13,1.1   c-3.3,3.8-4.9,8.5-6.7,13.1c-2,5.1-4.3,10-9.4,12.9c-1-2.4-1.6-4.9-3-7.1c-4.2-6.3-10.5-6.7-15.1-0.8c-4.4,5.6-7.5,11.9-9.5,18.7   c-1.9,6.8,2.1,11.9,9.2,12.3c3.1,0.2,6.1-0.2,9.4-0.9c-6,14.4-19.5,20.5-30.5,29.3c5.2,0.6,9.8-1.4,14.4-2.6c5.6-1.5,10-4.6,13-9.6   c2.5-4.2,4.7-8.7,6.6-13.2c1.2-2.7,1.6-6,3.5-8.1c6.7-7.4,11.4-16,15.8-24.9c3-6.1,5-7,11.1-4.7c4.5,1.7,8.2,1.3,11.5-2.1   c3.8-3.8,5.6-8.5,4.5-13.8C143.3,110.2,141.9,107.4,139.4,107z"/>
	<path d="M374.2,111c-2.3-0.4-2.7,2.7-3.9,4.3c-0.3,0.4-0.5,0.8-0.7,1.3c-0.6,1.3-1.2,1.5-2.4,0.5c-5.7-4.5-9.7-3.9-14,1.9   c-2.8,3.8-4.5,8.2-6.2,12.6c-2,5-4.1,9.7-9.2,12.4c-0.8-2-1.4-4-2.3-5.8c-3.2-5.9-10.4-9.8-16.4-1.3c-3.8,5.4-6.8,11.2-8.8,17.4   c-2.2,7,1.8,12.6,9.2,12.9c2.9,0.1,5.9,0,9.3-1.3c-2.9,7.7-7.8,12.8-13.5,17.1c-5.6,4.3-11.6,8.2-17.4,12.2   c6.4,0.6,12-1.5,17.6-3.4c3.9-1.3,6.8-3.8,9.1-7.2c3.1-4.5,5.4-9.4,7.5-14.4c1.2-2.8,1.7-6.2,3.6-8.4c6.8-7.5,11.5-16.3,15.9-25.2   c2.8-5.6,5-6.6,10.7-4.4c4.5,1.7,8.4,1.5,11.9-2c3.7-3.7,5.4-8.3,4.5-13.5C378.3,114.3,376.8,111.5,374.2,111z"/>
	<path d="M722.2,156.4c-1.4-0.9-2.6-1.2-3.3,1c-0.8,2.6-1.9,5.1-2.7,7.6c-1,3.2-2.9,3.2-5.4,1.8c-2.9-1.7-4.6-4.4-5.4-7.6   c-1.1-4.5-1.3-9.3-1.2-13.9c0.4-12.8,2.1-25.5,3.8-38.3c0.9-7.2,1.8-14.4,2.8-21.5c-0.4-0.1-0.7-0.2-1.1-0.3   c-2.9,6.7-5.9,13.3-7.3,20.5c-2.9,14.6-4.5,29.4-6.6,44.2c-1.3,9.3-1.9,18.5-0.1,27.9c1.4,7.2,6.5,13.4,11.9,14.1   c5.8,0.7,11.4-3,14.8-10.2c2.6-5.6,4.1-11.6,3.9-17.9C726.1,160.7,724.9,158.1,722.2,156.4z"/>
	<path d="M856,20.9c-1.5-1-2.9,1.7-4.1,2.9c-9.4,9.5-20.2,14.9-34.1,13.4c-18.4-2-33.4,13.5-39,23.5c-0.5,0.8-1.3,1.9-0.5,2.7   c0.9,0.9,1.8-0.1,2.6-0.6c7.6-5.1,16.1-6.5,25.1-5.8c9.4,0.7,18.5-0.3,26.5-5.8c9.5-6.6,17-15,22.4-25.1   C855.8,24.4,858.1,22.3,856,20.9z"/>
	<path d="M25.3,82.4c-6.2,13.6-12.1,27.1-12.2,42.6c-0.2,13.8-1.9,27.5-5,41.1c-0.5,2.4-1.9,4.6-1.7,7.5c2.7-1.7,3.9-4,5.1-6.3   c5.6-10.7,8.9-22.1,10-34.2c1.2-13.4,2.4-26.8,3.7-40.2c0.4-3.8,1.1-7.6,1.7-11.4c-0.2-0.1-0.5-0.1-0.7-0.2   C25.9,81.7,25.5,82,25.3,82.4z"/>
	<path d="M806.7,93.5c-1.8,4.2-3.5,8.7-5.6,12.9c-4.3,8.8-6.3,18-6.7,27.8c-0.5,11.7-1.8,23.3-3.5,34.9c-0.8,5.4-2.4,10.7-4,16.4   c3-1.1,3.9-3.3,5-5.3c6.3-11.6,9.6-24.1,10.8-37.3c1.5-16.1,1.9-32.2,5.1-48.1C808,94.3,808.1,93.6,806.7,93.5z"/>
	<path d="M162.9,94c-0.7,1.4-1.4,2.9-2.1,4.3c-4.8,10.9-9.8,21.7-10.1,34c-0.3,12.6-1.8,25.1-3.7,37.5c-0.8,5.2-2.2,10.2-3.8,15.6   c3.1-1.7,3.7-2.6,6.2-7.4c6.7-12.9,9.1-26.9,10.2-41.3c0.9-12.5,1.7-25.1,3.7-37.5c0.3-1.9,1.3-3.7,0.6-5.8   C163.4,93.6,163,93.7,162.9,94z"/>
	<path d="M776.7,126.4c-1.3-0.3-1.6,1-1.9,1.9c-1.9,5.8-4.2,11.6-5.6,17.6c-3.2,13.4-10.2,24.1-21.4,32.2   c-4.4,3.2-8.4,6.9-12.5,10.4c-0.9,0.8-2.2,1.7-1.5,3c0.6,1,2,0.4,3.1,0.2c6.3-1.3,12.4-3.1,18.3-5.5c5-2,8.5-5.4,10.5-10.3   c6.3-15.2,8.8-31.2,11.5-47C777.2,127.8,777.9,126.7,776.7,126.4z"/>
	<path d="M491.8,126.4c-1.4-0.3-1.7,1.6-2.1,2.6c-1.9,5.8-3.9,11.7-5.5,17.6c-3.2,12.5-9.5,22.9-20.1,30.5   c-3.5,2.5-6.8,5.4-10.1,8.1c-1.6,1.3-3,2.9-4.5,4.4c-0.4,0.4-0.7,1.1-0.6,1.6c0.2,1,1.2,0.5,2,0.6c4.9-0.9,9.7-2.4,14.6-3.7   c9.3-2.6,14.8-8.5,17.7-17.6c4.3-13.4,7-27.2,9.2-41C492.6,128.5,493.4,126.7,491.8,126.4z"/>
	<path d="M56.5,126.3c-1-0.2-1.5,0.9-1.7,1.6c-1.9,5.7-3.9,11.4-5.5,17.2c-3.3,12-8.2,22.8-18.7,30.5c-5.5,4-10.4,8.6-15.6,13   c-0.8,0.7-2,1.6-1.3,2.8c0.6,1.1,2,0.5,3,0.3c5.8-1.1,11.4-2.8,17-4.9c6.2-2.3,10.3-6.4,12.6-12.5c5.6-14.8,8.4-30.3,10.9-46   C57.6,127.5,57.4,126.5,56.5,126.3z"/>
	<path d="M620,137.6c3.7,2.9,7.4,5.7,10.7,9.1c0.6,0.7,1.4,1.5,2.5,0.6c5.7-4.3,9.7-9.6,11-16.8c-0.1-1.6-0.4-3-1.2-4.3   c-2.7-4.4-7.1-7-11.2-10.1c-1.3-1-2,0.1-2.5,1.1c-3.3,5.5-6.5,11-9.8,16.5C618.5,135.4,618.5,136.4,620,137.6z"/>
	<path d="M237.9,81.2c3.2,2.3,6.2,4.8,9.3,7.2c0.9,0.7,1.6,1.2,3,0.7c4.7-1.8,11.7-11.7,11.6-17.4c-0.5-5.3-4.8-8.5-9.3-11.6   c-1.8-1.2-2.9-1.2-4.1,0.8c-3.5,5.6-7.2,11.1-10.9,16.6C236.5,79,236.3,80,237.9,81.2z"/>
	<path d="M527.3,214c-1.8-1.2-3-1-4.2,0.9c-3.5,5.6-7.2,11.2-10.9,16.6c-1.2,1.7-0.8,2.7,0.8,3.9c3.1,2.2,6,4.6,9,7   c0.9,0.7,1.6,1.3,2.9,0.7c4.6-1.8,11.8-11.8,11.7-16.9C536,220.5,531.9,217,527.3,214z"/>
	<path d="M591.9,23.2c-1.2-0.7-2-0.3-2.8,0.9c-3.6,5.7-7.3,11.4-10.9,17c-0.2-0.2-0.5-0.4-0.5-0.5c1.7-7.6-2.9-11.6-8.3-15.3   c-1.9-1.3-3.2-1.1-4.5,1c-2.8,4.5-5.8,8.9-8.7,13.3c-2.8,4.3-2.8,4.3,1.1,7.2c1.5,1.1,2.9,2.3,4.3,3.5c5.2,4.2,5.6,4.2,10-1   c1.6-1.9,2.9-4,4.4-6c0.6-0.8,0.9-1.9,2.1-2.2c-1.9,1.5,0,2,0.7,2.7c2.8,2.2,5.8,4.2,8.4,6.6c2.2,2,3.9,1.7,5.7-0.1   c3-3.1,5.7-6.5,7.6-10.4c1.4-2.9,1.3-5.7-0.1-8.5C598.8,27.7,595.5,25.3,591.9,23.2z"/>
	<path d="M431.3,32.2c3.1,2.2,6.1,4.6,9,7.1c1.5,1.2,2.9,1.4,4.3,0.1c3.5-3.3,6.8-6.8,8.4-11.4c1.1,2.7,3.7,3.9,5.8,5.5   c8.7,6.9,9,6.9,15.5-2.4c5.4-7.7,4.5-13.3-3.1-18.9c-4.6-3.4-4.7-3.4-7.7,1.3c-2.2,3.5-4.5,7.1-6.9,10.5c-0.9,1.3-1.2,3.3-3.1,3.8   c1.5-7-2.6-14.1-9.4-16.3c-1.4-0.5-2,0.1-2.7,1.2c-3.5,5.5-7.1,10.9-10.7,16.3C429.6,30.4,429.9,31.2,431.3,32.2z"/>
	<path d="M321,31.5c3.1,2.2,6,4.6,9,7c1,0.8,1.9,1.4,3.3,0.8c3.7-1.6,10.5-11.7,10.5-15.8c0-4.6-5.8-11.6-10.4-12.8   c-1.5-0.4-2,0.6-2.6,1.5c-3.5,5.3-6.9,10.7-10.4,16C319.6,29.5,319.5,30.5,321,31.5z"/>
	<path d="M349.4,55.5c1.5-3.2,1.4-6.4-0.4-9.5c-2-3.2-4.9-5.4-8.2-7.3c-1.4-0.8-2.2-0.4-3,0.8c-3.7,5.9-7.4,11.8-11.2,17.7   c-0.3,0.5-0.2,1,0.2,1.3c3.5,2.7,6.9,5.5,10.4,8.2c1.4,1.1,2.8,0.6,4-0.5C344.5,63.2,347.4,59.7,349.4,55.5z"/>
	<path d="M369.5,169.5c-3.2,1.2-4.4,3.2-5.6,5.1c-5.2,8.5-8.8,17.6-10.8,27.3c-0.6,3.2-0.6,6.4,0.5,9.5c0.7,1.9,1.7,3.6,4,3.8   c2.3,0.2,4.1-0.6,5.4-2.5c3.6-5,3-9.9-2.3-13.4c-2.4-1.6-2.7-3.2-2.1-5.7C360.7,185.3,364.4,177.6,369.5,169.5z"/>
	<path d="M130.6,165.3c-3.4,1.5-4.8,3.8-6,5.9c-4.9,8.3-8.6,17.1-10.4,26.6c-0.6,3.2-0.7,6.6,0.6,9.8c0.7,1.8,1.6,3.3,3.8,3.6   c2.3,0.3,4.1-0.5,5.5-2.3c3.7-4.9,3-10.2-2.3-13.6c-2.4-1.5-2.6-2.9-2-5.4C121.7,181.4,125.6,173.7,130.6,165.3z"/>
	<path d="M329.6,57.3C329.6,57.3,329.5,57.4,329.6,57.3c2.1-4.4,1.3-8.4-1.9-12c-1.7-2-3.9-3.3-6.1-4.8c-1.6-1.1-2.5-0.8-3.6,0.8   c-3.4,5.4-7,10.7-10.5,16.1c-1.1,1.6-0.7,2.5,0.8,3.6c2.9,2.1,5.7,4.3,8.4,6.7c1.9,1.6,3.5,1.5,5.2-0.1   C325,64.6,327.6,61.2,329.6,57.3c0.3,0,0.7,0,1,0c0,0,0,0,0,0c0,0,0,0,0,0C330.3,56.9,329.9,56.9,329.6,57.3z"/>
</g>
</svg>