<?xml version="1.0" encoding="utf-8"?>
<!-- Generator: Adobe Illustrator 22.0.1, SVG Export Plug-In . SVG Version: 6.00 Build 0)  -->
<svg version="1.1" id="Layer_1" xmlns="http://www.w3.org/2000/svg" xmlns:xlink="http://www.w3.org/1999/xlink" x="0px" y="0px"
	 viewBox="0 0 125.7 38" style="enable-background:new 0 0 125.7 38;" xml:space="preserve">
<style type="text/css">
	.st0{fill:#252360;}
	.st1{fill:url(#XMLID_2_);}
	.st2{fill:url(#XMLID_4_);}
	.st3{fill:url(#XMLID_5_);}
	.st4{fill:url(#XMLID_6_);}
	.st5{fill:url(#XMLID_7_);}
	.st6{fill:url(#XMLID_8_);}
	.st7{fill:url(#XMLID_9_);}
	.st8{fill:url(#XMLID_10_);}
	.st9{fill:url(#XMLID_12_);}
	.st10{fill:#E62067;}
</style>
<path id="XMLID_40_" class="st0" d="M87,26.4c-0.1,0-0.1,0-0.2,0c-0.2,0-0.4,0-0.7,0c-0.6,0-1,0.1-1.5,0.3c-0.4,0.2-0.8,0.5-1.1,0.9
	c-0.3,0.4-0.5,0.8-0.6,1.3c-0.1,0.4-0.2,0.9-0.2,1.4c0,0,0,0,0,0v0c0,0.4,0.1,0.9,0.2,1.2c0.1,0.4,0.4,0.8,0.7,1.1
	c0.3,0.4,0.6,0.6,1.1,0.8c0.4,0.2,0.9,0.3,1.5,0.3c0.6,0,1.1-0.1,1.5-0.2c0.4-0.1,0.7-0.4,0.9-0.6c0.3-0.4,0.4-0.8,0.5-1
	c0.2-0.5,0.8-1,2.3-1.3c0,0.4,0.3,2.7-1.3,4.4c-2,2.1-5.6,2.1-7.7,0.4c-2.2-1.8-2.3-5-2.3-5.2c0-0.5-0.1-3.3,2.1-5.2
	c1.9-1.7,5.1-2,7.1-0.3c1.5,1.2,1.8,3,1.9,3.6c-0.3,0.2-0.9,0.5-1.5,0.3c-0.4-0.1-0.7-0.4-1.1-0.8C88,27.2,87.7,26.6,87,26.4z"/>
<g id="XMLID_32_">
	
		<linearGradient id="XMLID_2_" gradientUnits="userSpaceOnUse" x1="23.5594" y1="-472.0706" x2="14.1114" y2="-477.3078" gradientTransform="matrix(1 0 0 1 0 494.1102)">
		<stop  offset="0" style="stop-color:#E62067"/>
		<stop  offset="0.107" style="stop-color:#C21D66"/>
		<stop  offset="0.2751" style="stop-color:#8D2166"/>
		<stop  offset="0.4402" style="stop-color:#612366"/>
		<stop  offset="0.5984" style="stop-color:#3F2464"/>
		<stop  offset="0.7481" style="stop-color:#2A2363"/>
		<stop  offset="0.8857" style="stop-color:#262261"/>
		<stop  offset="1" style="stop-color:#252360"/>
	</linearGradient>
	<path id="XMLID_38_" class="st1" d="M12.8,19.2c0.9-1.6,1.9-3.2,2.8-4.8c0.1-0.2,0.3-0.3,0.5-0.3c0.4,0,0.9,0,1.3,0
		c1.3,0,2.7,0,4,0c0.3,0,0.5,0,0.6,0.3c0.3,0.6,0.7,1.2,1,1.8c0.5,0.9,1.1,1.9,1.6,2.8c0.2,0.3,0.2,0.6,0,1
		c-0.7,1.2-1.4,2.4-2.1,3.7c-0.2,0.4-0.4,0.8-0.7,1.2l0,0c-0.1,0.1-0.3,0.1-0.5,0.1c-1.7,0-3.4,0-5.2,0c-0.4,0-0.6-0.1-0.8-0.4
		c-0.6-1.1-1.2-2.1-1.8-3.2c-0.3-0.5-0.6-1-0.8-1.5C12.7,19.5,12.7,19.4,12.8,19.2z M14.7,19.9c0.5,0.9,1,1.8,1.5,2.7
		c0.1,0.2,0.3,0.4,0.5,0.5c0.3,0.2,0.6,0.2,0.7,0.2c0.6,0,1.7,0,3.2,0c0.1,0,0.3,0,0.4-0.1c0,0,0.1-0.1,0.1-0.1
		c0.1-0.1,0.1-0.3,0.2-0.3c0.5-0.9,1.1-1.9,1.6-2.8c0.2-0.4,0.3-0.7,0-1.1c-0.4-0.7-0.6-1-0.7-1.2c-0.3-0.4-0.4-0.7-0.5-0.8
		c-0.1-0.2-0.3-0.4-0.5-0.8c-0.2-0.3-0.5-0.5-0.9-0.5c-1.1,0-2.2,0-3.3,0c-0.4,0-0.6,0.1-0.8,0.5c-0.6,1-1.2,2-1.7,3
		C14.5,19.3,14.5,19.6,14.7,19.9z"/>
	
		<linearGradient id="XMLID_4_" gradientUnits="userSpaceOnUse" x1="2.6311" y1="-471.8647" x2="25.1438" y2="-471.8647" gradientTransform="matrix(1 0 0 1 0 494.1102)">
		<stop  offset="0" style="stop-color:#252360"/>
		<stop  offset="0.3685" style="stop-color:#252360"/>
		<stop  offset="0.5386" style="stop-color:#4451A3"/>
		<stop  offset="1" style="stop-color:#E62067"/>
	</linearGradient>
	<path id="XMLID_1614_" class="st2" d="M22.4,26.2c-0.2-0.3-0.4-0.4-0.8-0.4c-1.9,0-3.8,0-5.7,0c-0.2,0-0.5,0-0.7,0
		c-0.1-0.1-0.1-0.2-0.2-0.4c-1.1-1.9-2.2-3.9-3.3-5.8c-0.2-0.3-0.2-0.5,0-0.8c0.2-0.4,0.4-0.8,0.7-1.2c0.9-1.4,1.6-2.8,2.4-4.2
		c0.1-0.2,0-0.4-0.1-0.6c-0.9-1.5-1.7-3-2.6-4.5c-0.2-0.3-0.4-0.5-0.8-0.5c-1.6,0-3.2,0-4.9,0c-0.4,0-0.6,0-0.7,0
		C5.5,8.1,5.4,8.2,5.2,8.6C5.1,8.9,4.9,9.1,4.8,9.3c-0.7,1.3-1.1,2-1.5,2.6c-0.2,0.3-0.4,0.6-0.5,0.9c-0.2,0.4-0.2,0.7,0,1
		c1,1.7,1.9,3.4,2.9,5.1c0.2,0.3,0.2,0.5,0,0.8c-0.5,0.8-0.9,1.6-1.3,2.3c-0.5,0.9-1.1,1.9-1.6,2.8c-0.2,0.3-0.2,0.6,0,0.9
		c0.9,1.5,1.8,3,2.6,4.6c0.1,0.1,0.1,0.2,0.2,0.3l0,0c0.2,0.1,0.4,0.1,0.6,0.1c1.9,0,3.8,0,5.7,0c0.4,0,0.6,0.1,0.8,0.5
		c0.6,1.1,1.3,2.1,1.8,3.2c0.2,0.4,0.6,1,1,1.8c0.1,0.1,0.1,0.2,0.3,0.3c0.2,0.1,0.3,0.2,0.4,0.3c3,0,5.1,0,5.4,0c0,0,0.2,0,0.3-0.1
		c0.1,0,0.2-0.1,0.2-0.2c0.9-1.6,1.8-3.2,2.7-4.7c0.1-0.2,0.1-0.4,0-0.6C24.1,29.3,23.2,27.8,22.4,26.2z M23.2,31.7
		c-0.5,0.9-1,1.7-1.5,2.6c-0.1,0.2-0.2,0.4-0.5,0.6C20.9,35,20.6,35,20.4,35c-1,0-2.1,0-3.1,0c-0.1,0-0.3,0-0.5-0.2
		c-0.1-0.1-0.2-0.2-0.2-0.2c-0.3-0.5-0.6-1-0.8-1.5c-0.7-1.2-1.4-2.4-2.1-3.7c-0.2-0.3-0.4-0.5-0.8-0.5c-0.4,0-5.5,0.1-6,0
		C6.7,29,6.6,29,6.5,29c-0.2-0.1-0.3-0.3-0.4-0.4c-0.2-0.5-0.8-1.4-1.2-2c-0.1-0.3-0.3-0.5-0.5-0.8c-0.2-0.4-0.3-0.7,0-1.1
		c0.4-0.6,0.5-0.9,0.7-1.3C5.5,23,5.5,23,5.8,22.5c1.4-2.5,1.5-2.5,1.5-2.5c0.3-0.5,0.3-1,0-1.5c-0.9-1.5-1.8-3.1-2.7-4.6
		c-0.2-0.4-0.3-0.8,0-1.2c0.9-1.5,1.3-2.2,1.4-2.4C6.1,10,6.2,9.7,6.5,9.5C6.8,9.4,7,9.4,7.2,9.4c1.5,0,2.6,0,3.1,0
		c0.1,0,0.3,0,0.6,0.1c0.2,0.1,0.3,0.2,0.4,0.5c0.5,0.9,1,1.8,1.6,2.7c0.2,0.4,0.2,0.8,0,1.2c-0.4,0.7-0.7,1.3-1.1,2
		c-0.3,0.5-0.2,0.4-0.5,0.9c-0.5,0.7-0.7,1.2-1.2,2.1c-0.2,0.3-0.1,0.6,0,0.9c0.7,1.2,1.4,2.3,2,3.5c0.6,1.1,1.3,2.2,1.9,3.3
		c0.2,0.3,0.4,0.7,0.9,0.7c1,0,1.5,0,2.8,0c0.6,0,0.5,0,1.1,0c0.4,0,0.9,0,1.9,0c0.4,0,0.7,0.1,0.9,0.5c0.6,1,1.1,1.9,1.7,2.9
		C23.4,31,23.4,31.3,23.2,31.7z"/>
	
		<linearGradient id="XMLID_5_" gradientUnits="userSpaceOnUse" x1="32.2924" y1="-475.4226" x2="26.0162" y2="-485.868" gradientTransform="matrix(1 0 0 1 0 494.1102)">
		<stop  offset="0" style="stop-color:#E62067"/>
		<stop  offset="1" style="stop-color:#252360"/>
	</linearGradient>
	<path id="XMLID_37_" class="st3" d="M26.4,8.1c0.3,0,0.5,0,0.8,0c1.5,0,3,0,4.6,0c0.2,0,0.4,0,0.6,0.2l0,0c0.1,0.1,0.2,0.3,0.3,0.5
		c0.8,1.4,1.6,2.8,2.4,4.1c0.2,0.4,0.3,0.7,0,1.1c-0.9,1.5-1.7,2.9-2.6,4.4c-0.2,0.3-0.4,0.4-0.7,0.4c-1.1,0-2.1,0-3.2,0
		c-0.7,0-1.3,0-2,0c-0.2,0-0.5,0-0.6-0.3l0,0c-0.4-0.6-0.7-1.2-1.1-1.8c-0.6-1-1.1-1.9-1.7-2.9c-0.1-0.2-0.2-0.4-0.1-0.6
		C24,11.6,25,10,25.9,8.4C26,8.2,26.2,8.1,26.4,8.1z M25.1,14.1c0.5,0.9,1,1.8,1.6,2.7c0.1,0.1,0.2,0.3,0.4,0.4
		c0.2,0.1,0.3,0.1,0.4,0.1c0.2,0,0.4,0,3.2,0c0.1,0,0.4,0,0.7-0.2c0.1-0.1,0.3-0.2,0.4-0.4c0.5-0.9,1-1.9,1.6-2.8
		c0.2-0.3,0.2-0.7,0-1c-0.6-1.1-0.8-1.4-1-1.8c0,0-0.3-0.5-0.8-1.3c0,0-0.1-0.1-0.2-0.2c-0.2-0.1-0.4-0.1-0.5-0.1
		c-1.1,0.1-2.1,0-3.2,0c-0.4,0-0.8,0.2-1,0.6c-0.5,0.9-1,1.8-1.6,2.7C24.8,13.3,24.8,13.6,25.1,14.1z"/>
	
		<linearGradient id="XMLID_6_" gradientUnits="userSpaceOnUse" x1="12.7443" y1="-486.6099" x2="24.9112" y2="-486.6099" gradientTransform="matrix(1 0 0 1 0 494.1102)">
		<stop  offset="0" style="stop-color:#252360"/>
		<stop  offset="1" style="stop-color:#252360"/>
	</linearGradient>
	<path id="XMLID_35_" class="st4" d="M24.8,7.9c-0.9,1.5-1.8,3.1-2.7,4.6c-0.1,0.3-0.3,0.4-0.6,0.4c-1.8,0-3.5,0-5.3,0
		c-0.3,0-0.6-0.1-0.7-0.4c-0.3-0.6-0.7-1.1-1-1.7c-0.5-0.9-1.1-1.9-1.6-2.8c-0.1-0.2-0.2-0.4,0-0.7c0.9-1.5,1.8-3.1,2.7-4.6
		c0.2-0.3,0.4-0.4,0.8-0.4c0.9,0,1.7,0,2.6,0c0.8,0,1.6,0,2.4,0c0.5,0,0.8,0.2,1,0.6c0.8,1.5,1.7,2.9,2.5,4.3
		C25,7.4,25,7.6,24.8,7.9z M23.4,7.1c-0.6-1.1-1.3-2.2-1.9-3.3c-0.2-0.3-0.4-0.5-0.8-0.5c-1.2,0-2.4,0-3.7,0c-0.4,0-0.6,0.1-0.8,0.4
		C15.6,4.9,15,6,14.3,7.1c-0.1,0.2-0.2,0.5,0,0.7c0.7,1.2,1.3,2.3,2,3.5c0.1,0.2,0.3,0.3,0.6,0.3c0.7,0,1.3,0,2,0c0.6,0,1.3,0,1.9,0
		c0.3,0,0.5-0.1,0.7-0.4c0.6-1.1,1.3-2.2,1.9-3.3C23.5,7.6,23.5,7.4,23.4,7.1z"/>
	
		<linearGradient id="XMLID_7_" gradientUnits="userSpaceOnUse" x1="16.3651" y1="1558.0507" x2="16.3651" y2="1558.0507" gradientTransform="matrix(1 0 0 -1 0 1568.1102)">
		<stop  offset="0" style="stop-color:#5168B0"/>
		<stop  offset="1" style="stop-color:#45C8F5"/>
	</linearGradient>
	<path id="XMLID_34_" class="st5" d="M16.4,10.1"/>
</g>
<g id="XMLID_1602_">
	
		<linearGradient id="XMLID_8_" gradientUnits="userSpaceOnUse" x1="41.0547" y1="1544.4937" x2="41.0547" y2="1544.4937" gradientTransform="matrix(1 0 0 -1 0 1568.1102)">
		<stop  offset="4.878049e-03" style="stop-color:#E62067"/>
		<stop  offset="1" style="stop-color:#252360"/>
	</linearGradient>
	<path id="XMLID_1605_" class="st6" d="M41.1,23.6L41.1,23.6L41.1,23.6L41.1,23.6z"/>
	
		<linearGradient id="XMLID_9_" gradientUnits="userSpaceOnUse" x1="39.9795" y1="1541.9061" x2="55.8094" y2="1538.5414" gradientTransform="matrix(1 0 0 -1 0 1568.1102)">
		<stop  offset="4.878049e-03" style="stop-color:#E62067"/>
		<stop  offset="1" style="stop-color:#252360"/>
	</linearGradient>
	<path id="XMLID_1604_" class="st7" d="M57.2,20.6c-0.1-0.1-0.2-0.1-0.2-0.1c-0.3,0-6.4,0-6.7,0c-2.9,0-4,0-6.9,0
		c-0.3,0-1.6,0-1.9,0c0,0-0.1,0-0.2,0.1c-0.1,0.1-0.1,0.1-0.1,0.2c0,0.6,0,1.2,0,1.9c0,0,0,0.1,0.1,0.2c0.1,0.1,0.3,0.1,0.3,0.1
		c0.5,0,2.1,0,2.6,0c0.8,0-0.3,0,0.5,0c0,4.5,0,9,0,13.5c0,0,0,0.1,0.1,0.2c0.1,0.1,0.2,0.1,0.3,0.1c0.3,0,0.6,0,0.9,0s0.6,0,0.9,0
		c0,0,0.2,0,0.3-0.1c0.1-0.1,0.1-0.1,0.1-0.2c0-4.5,0-9,0-13.5c0.8,0,1.5,0,2.3,0c0.5,0,6.9,0,7.5,0c0,0,0.2,0,0.3-0.1
		c0.1-0.1,0.1-0.1,0.1-0.2c0-0.6,0-1.2,0-1.9C57.3,20.7,57.3,20.6,57.2,20.6z"/>
	
		<linearGradient id="XMLID_10_" gradientUnits="userSpaceOnUse" x1="51.5539" y1="1544.4937" x2="51.5539" y2="1544.4937" gradientTransform="matrix(1 0 0 -1 0 1568.1102)">
		<stop  offset="4.878049e-03" style="stop-color:#E62067"/>
		<stop  offset="1" style="stop-color:#252360"/>
	</linearGradient>
	<path id="XMLID_1603_" class="st8" d="M51.6,23.6L51.6,23.6L51.6,23.6L51.6,23.6z"/>
</g>
<path id="XMLID_31_" class="st0" d="M65,36.6h-1.7c-0.2,0-0.4-0.2-0.4-0.4V20.8c0-0.2,0.2-0.4,0.4-0.4H65c0.2,0,0.4,0.2,0.4,0.4
	v15.4C65.4,36.4,65.2,36.6,65,36.6z"/>
<path id="XMLID_1598_" class="st0" d="M78.5,30.5c-1.6,0.3-2.1,0.9-2.3,1.3c-0.1,0.3-0.2,0.6-0.5,1c-0.2,0.3-0.5,0.5-0.9,0.6
	s-0.9,0.2-1.5,0.2c-0.5,0-1-0.1-1.5-0.3c-0.4-0.2-0.8-0.4-1.1-0.8c-0.3-0.4-0.5-0.7-0.7-1.1c-0.1-0.4-0.2-0.8-0.2-1.2v0
	c0,0,0-0.1,0-0.1c0-0.1,0,0,0-0.1c2.9,0,5.7,0,8.6,0c0-0.1,0.4-3.4-2.1-5.3c-2.2-1.7-5.4-1.2-7.1,0.3c-2.1,1.8-2.1,4.6-2.1,5.2
	c0,0.2,0.1,3.4,2.3,5.2c2,1.7,5.7,1.7,7.7-0.4C78.7,33.2,78.5,30.9,78.5,30.5z M71.8,26.6c0.4-0.2,0.9-0.3,1.5-0.3c0,0,0.4,0,0.7,0
	c1.1,0.2,1.8,1.3,2,1.6h-5.5c0.1-0.2,0.2-0.3,0.3-0.5C71,27.1,71.3,26.8,71.8,26.6z"/>
<path id="XMLID_27_" class="st0" d="M123.3,27.1c0,0-0.1-0.4-0.3-0.7c-0.9-1.7-2.7-2.4-2.7-2.4c-1.8-0.6-3.9-0.1-5,1.2
	c-0.1,0.1-0.1,0.2-0.2,0.2c-0.1-0.1-0.1-0.2-0.2-0.2c-1.1-1.3-3.2-1.8-5-1.2c0,0-1.9,0.7-2.7,2.4c-0.2,0.4-0.3,0.7-0.3,0.7
	c0,0.3-0.1,0.5-0.1,0.8c0,2.7,0,5.3,0,8c0,0,0,0.1,0.1,0.2c0.1,0.1,0.2,0.1,0.2,0.1c0.9,0,1.6,0,1.8,0c0.1,0,0.2,0,0.3-0.1
	c0.1-0.1,0.1-0.2,0.1-0.3c0-2.2,0-4.4,0-6.6c0-0.1,0-0.2,0-0.3v0c0,0,0,0,0,0c0-0.3,0-0.7,0.1-1c0-0.1,0-0.2,0.1-0.3
	c0.1-0.3,0.3-0.6,0.3-0.6c0.2-0.3,1.2-1.3,2.5-1c1,0.3,1.4,1.2,1.6,1.5c0,0.1,0,0.1,0,0.1c0.1,0.4,0.2,0.8,0.2,1c0,2.4,0,4.8,0,7.3
	c0,0,0,0.1,0.1,0.2c0.1,0.1,0.2,0.1,0.2,0.1c0.5,0,0.9,0,1.4,0c0.1,0,0.2,0,0.2-0.1c0.1-0.1,0.1-0.2,0.1-0.2c0-2.4,0-4.8,0-7.3
	c0-0.3,0-0.6,0.2-1c0,0,0-0.1,0-0.1c0.1-0.4,0.6-1.3,1.6-1.5c1.2-0.3,2.3,0.6,2.5,1c0,0.1,0.2,0.3,0.3,0.6c0,0.1,0.1,0.2,0.1,0.3
	c0.1,0.3,0.1,0.6,0.1,1c0,0,0,0,0,0v0c0,0.1,0,0.2,0,0.3c0,2.2,0,4.4,0,6.6c0,0.1,0,0.2,0.1,0.3c0.1,0.1,0.2,0.1,0.3,0.1
	c0.2,0,0.9,0,1.8,0c0,0,0.1,0,0.2-0.1c0.1-0.1,0.1-0.2,0.1-0.2c0-2.7,0-5.3,0-8C123.3,27.6,123.3,27.3,123.3,27.1z"/>
<linearGradient id="XMLID_12_" gradientUnits="userSpaceOnUse" x1="50.9051" y1="-468.4882" x2="59.8729" y2="-459.5205" gradientTransform="matrix(1 0 0 1 0 494.1102)">
	<stop  offset="0" style="stop-color:#E62067"/>
	<stop  offset="1" style="stop-color:#252360"/>
</linearGradient>
<path id="XMLID_25_" class="st9" d="M60.8,30.5c-1.6,0.3-2.1,0.9-2.3,1.3c-0.1,0.3-0.2,0.6-0.5,1c-0.2,0.3-0.5,0.5-0.9,0.6
	s-0.9,0.2-1.5,0.2c-0.5,0-1-0.1-1.5-0.3c-0.4-0.2-0.8-0.4-1.1-0.8c-0.3-0.4-0.5-0.7-0.7-1.1c-0.1-0.4-0.2-0.9-0.2-1.3v0c0,0,0,0,0,0
	c0-0.1,0,0,0-0.1c2.9,0,5.7,0,8.6,0c0-0.1,0.4-3.4-2.1-5.3c-2.2-1.7-5.4-1.2-7.1,0.3c-2.1,1.8-2.1,4.6-2.1,5.2
	c0,0.2,0.1,3.4,2.3,5.2c2,1.7,5.7,1.7,7.7-0.4C61.1,33.2,60.9,30.9,60.8,30.5z M54.1,26.6c0.4-0.2,0.9-0.3,1.5-0.3c0,0,0.4,0,0.7,0
	c1.1,0.2,1.8,1.3,2,1.6h-5.5c0.1-0.2,0.2-0.3,0.3-0.5C53.4,27.1,53.7,26.8,54.1,26.6z"/>
<g id="XMLID_18_">
	<path id="XMLID_22_" class="st10" d="M29.1,23.6L29.1,23.6L29.1,23.6C29.1,23.6,29.1,23.6,29.1,23.6z"/>
	<path id="XMLID_21_" class="st10" d="M30.2,20.4c0.4,0.8,0.9,1.6,1.3,2.4c0.6,0,1.4,0,2,0c0,4.5,0,9,0,13.5c0,0,0,0.1,0.1,0.2
		c0.1,0.1,0.2,0.1,0.2,0.1c0.6,0,1.3,0,1.9,0c0,0,0.2,0,0.3-0.1c0.1-0.1,0.1-0.1,0.1-0.2c0-4.5,0-9,0-13.5c1.3,0,2.6,0,3.9,0
		c0,0,0.2,0,0.3-0.1c0.1-0.1,0.1-0.1,0.1-0.2c0-0.6,0-1.2,0-1.9c0,0,0-0.1-0.1-0.2c-0.1-0.1-0.2-0.1-0.2-0.1
		C36.8,20.4,33.4,20.4,30.2,20.4z"/>
</g>
<path id="XMLID_17_" class="st10" d="M28.8,36.5h-1.7c-0.2,0-0.4-0.2-0.4-0.4v-9.5h2.5v9.5C29.2,36.4,29,36.5,28.8,36.5z"/>
<path id="XMLID_11_" class="st10" d="M30.7,22.8c-0.3-0.5-0.5-0.9-0.8-1.4c-0.1-0.3-0.3-0.6-0.5-0.9c-0.1-0.1-0.2-0.1-0.3-0.1
	c-0.6,0-1.3,0-1.9,0c-0.2,0-0.4,0-0.6,0c-0.1,0-0.2,0-0.3,0.1c-0.4,0.8-0.9,1.6-1.3,2.4c-0.1,0.1,0,0.2,0,0.3
	c0.1,0.2,0.3,0.5,0.4,0.7c0.3,0.5,0.6,1,0.9,1.6c0.1,0.2,0.2,0.2,0.4,0.2c0.8,0,1.6,0,2.5,0c0.1,0,0.2,0,0.2,0l0,0
	c0.1-0.2,0.2-0.4,0.3-0.6c0.3-0.6,0.7-1.2,1-1.8C30.8,23.1,30.8,23,30.7,22.8z M29.5,23.2c-0.2,0.3-0.4,0.7-0.6,1
	c-0.1,0.1-0.1,0.2-0.2,0.3l0,0c0,0-0.1,0-0.1,0c-0.5,0-0.9,0-1.4,0c-0.1,0-0.1,0-0.2-0.1c-0.2-0.3-0.3-0.6-0.5-0.9
	c-0.1-0.1-0.1-0.3-0.2-0.4c0,0,0-0.1,0-0.1c0.2-0.4,0.5-0.9,0.7-1.3c0-0.1,0.1-0.1,0.1-0.1c0.1,0,0.2,0,0.3,0c0.3,0,0.7,0,1,0
	c0.1,0,0.1,0,0.2,0.1c0.1,0.2,0.2,0.3,0.3,0.5c0.1,0.3,0.3,0.5,0.4,0.8C29.5,23,29.5,23.1,29.5,23.2z"/>
<g id="XMLID_3_">
	<g>
		<path id="XMLID_55_" class="st0" d="M97.9,26.6c0.2-0.1,0.4-0.2,0.6-0.2l-2.7-1.8c-0.2,0.1-0.3,0.2-0.5,0.4
			c-0.3,0.3-0.6,0.6-0.8,0.8l2.4,1.6C97.2,27.1,97.5,26.8,97.9,26.6z"/>
		<path id="XMLID_54_" class="st0" d="M102.5,30c0,0.3,0,0.7-0.1,1.1l2.2,1.5c0.2-0.7,0.2-1.4,0.2-1.9l-2.4-1.7
			C102.4,29.4,102.5,29.8,102.5,30z"/>
		<path id="XMLID_53_" class="st0" d="M104.6,28.4c-0.2-1.2-0.7-2.7-2.1-3.7c-1.3-1-3.1-1.2-4.7-0.9L104.6,28.4z"/>
		<path id="XMLID_52_" class="st0" d="M101.7,32.9c-0.2,0.2-0.3,0.4-0.5,0.5c-0.3,0.1-1,0.4-1.7,0.4c0,0-0.1,0-0.1,0
			c-0.8,0-1.3-0.2-1.5-0.3c-0.4-0.2-0.8-0.4-1.1-0.8c-0.3-0.4-0.5-0.7-0.7-1.1c-0.1-0.4-0.2-0.8-0.2-1.2v0c0,0,0,0,0,0
			c0-0.4,0-0.7,0.1-1.1l-2.4-1.6c-0.4,1.3-0.4,2.4-0.4,2.7c0,0.2,0.1,3.4,2.3,5.2c2.1,1.7,5.7,1.5,7.7-0.4c0.2-0.2,0.4-0.4,0.5-0.6
			L101.7,32.9z"/>
	</g>
</g>
</svg>
