<?xml version="1.0" encoding="utf-8"?>
<!-- Generator: Adobe Illustrator 23.0.0, SVG Export Plug-In . SVG Version: 6.00 Build 0)  -->
<svg version="1.1" id="Layer_1" xmlns="http://www.w3.org/2000/svg" xmlns:xlink="http://www.w3.org/1999/xlink" x="0px" y="0px"
	 viewBox="0 0 300 300" style="enable-background:new 0 0 300 300;" xml:space="preserve">
<style type="text/css">
	.st0{fill:#263C94;}
	.st1{fill:none;stroke:#263C94;stroke-width:2;stroke-miterlimit:10;}
	.st2{fill:none;stroke:#263C94;stroke-miterlimit:10;}
</style>
<g>
	<path id="XMLID_119_" class="st0" d="M212.7,66.3c-0.1,0-0.2,0-0.3-0.1c-0.4,0-0.8-0.1-1.2,0c-1.1,0.1-2,0.3-2.8,0.7
		c-0.8,0.4-1.4,1.1-1.9,1.9c-0.5,0.8-0.9,1.6-1.1,2.5c-0.2,0.9-0.3,1.7-0.3,2.6c0,0,0,0.1,0,0.1l0,0c0,0.8,0.2,1.6,0.6,2.3
		c0.3,0.7,0.8,1.4,1.4,2.1c0.6,0.6,1.3,1.1,2.1,1.4c0.8,0.3,1.8,0.4,2.8,0.4c1.1-0.1,2-0.2,2.8-0.5s1.3-0.7,1.6-1.3
		c0.6-0.9,0.7-1.5,0.9-2c0.3-0.9,1.4-2,4.3-2.7c0.1,0.8,0.8,5.2-2,8.6c-3.5,4.3-10.5,4.5-14.5,1.6c-4.3-3.1-4.9-9.2-5-9.6
		c-0.1-1-0.5-6.3,3.4-10c3.5-3.4,9.4-4.3,13.5-1.3c2.9,2.2,3.8,5.5,4,6.6c-0.5,0.3-1.6,1-2.8,0.7c-0.8-0.2-1.4-0.7-2.2-1.4
		C214.6,67.7,214.1,66.7,212.7,66.3z"/>
	<g id="XMLID_113_">
		<path id="XMLID_118_" class="st0" d="M71.2,60.1c1.6-3.1,3.2-6.3,4.8-9.4c0.2-0.4,0.6-0.6,1-0.6c0.8,0,1.6-0.1,2.4-0.1
			c2.5-0.1,5.1-0.3,7.6-0.4c0.5,0,0.9-0.1,1.2,0.4c0.7,1.1,1.5,2.2,2.1,3.3c1.1,1.7,2.2,3.4,3.4,5.1c0.4,0.6,0.5,1.1,0.1,1.8
			c-1.2,2.4-2.4,4.8-3.6,7.1c-0.4,0.8-0.7,1.6-1.3,2.3l0,0c-0.3,0.2-0.6,0.2-0.9,0.2c-3.3,0.2-6.5,0.3-9.8,0.5
			c-0.7,0-1.1-0.2-1.5-0.7c-1.3-2-2.5-3.9-3.8-5.9c-0.6-0.9-1.2-1.8-1.7-2.7C71.1,60.9,71,60.5,71.2,60.1z M74.9,61.4
			c1,1.6,2.1,3.2,3.2,4.9c0.3,0.4,0.6,0.8,1,0.9c0.6,0.3,1.1,0.2,1.4,0.2c1.1-0.1,3.3-0.2,6.1-0.3c0.3-0.1,0.5-0.1,0.8-0.2
			c0.1-0.1,0.2-0.1,0.2-0.3c0.2-0.3,0.2-0.5,0.3-0.6c0.9-1.8,1.8-3.6,2.8-5.4c0.4-0.7,0.5-1.4-0.1-2.1c-0.9-1.2-1.2-1.9-1.5-2.3
			c-0.6-0.8-0.8-1.2-1-1.5c-0.2-0.3-0.5-0.8-1-1.5c-0.4-0.6-0.9-0.9-1.7-0.9c-2.1,0.1-4.1,0.2-6.2,0.3c-0.7,0-1.2,0.3-1.5,1
			c-1,1.9-2,3.9-2.9,5.8C74.4,60.2,74.5,60.8,74.9,61.4z"/>
		<path id="XMLID_117_" class="st0" d="M90.1,72.6c-0.4-0.6-0.9-0.8-1.5-0.7c-3.6,0.2-7.1,0.4-10.7,0.6c-0.5,0-0.9,0-1.4,0
			c-0.1-0.2-0.2-0.4-0.4-0.7c-2.3-3.5-4.6-7.1-6.9-10.6c-0.3-0.5-0.4-1-0.1-1.5c0.4-0.7,0.7-1.5,1.1-2.3c1.5-2.7,2.8-5.4,4.2-8.1
			c0.2-0.4,0.1-0.8-0.2-1.1c-1.8-2.8-3.6-5.5-5.4-8.3c-0.4-0.6-0.9-0.9-1.6-0.8c-3.1,0.2-6.2,0.3-9.2,0.5c-0.8,0-1.1,0-1.3,0.1
			c-0.3,0.2-0.4,0.5-0.8,1.3c-0.2,0.4-0.4,0.8-0.6,1.3c-1.2,2.6-1.9,3.9-2.5,5c-0.3,0.6-0.6,1.2-0.9,1.8c-0.4,0.7-0.4,1.3,0.1,2
			c2.1,3.1,4,6.2,6.1,9.3c0.3,0.5,0.4,0.9,0.1,1.5c-0.8,1.5-1.5,3-2.3,4.5c-0.9,1.8-1.8,3.6-2.8,5.4c-0.4,0.7-0.3,1.2,0.1,1.8
			c1.8,2.8,3.6,5.6,5.5,8.4c0.1,0.2,0.3,0.3,0.4,0.5l0,0c0.4,0.2,0.8,0.1,1.2,0.1c3.6-0.2,7.2-0.4,10.8-0.6c0.8,0,1.2,0.2,1.6,0.8
			c1.2,2,2.6,3.8,3.8,5.8c0.5,0.8,1.2,1.9,2.1,3.2c0.1,0.2,0.3,0.4,0.5,0.5c0.3,0.3,0.6,0.4,0.9,0.5c5.6-0.3,9.7-0.5,10.3-0.5
			c0.1,0,0.4,0,0.6-0.2c0.2-0.1,0.3-0.3,0.4-0.5c1.5-3.1,3.1-6.2,4.7-9.2c0.2-0.4,0.2-0.8-0.1-1.2C93.8,78.2,91.9,75.4,90.1,72.6z
			 M92.2,82.8c-0.9,1.7-1.7,3.3-2.5,5c-0.2,0.4-0.4,0.8-1,1.2c-0.5,0.3-1.1,0.4-1.5,0.4c-2,0.1-3.9,0.2-5.9,0.3c-0.2,0-0.6,0-1-0.3
			c-0.2-0.2-0.4-0.4-0.4-0.4c-0.6-0.9-1.2-1.8-1.7-2.7c-1.5-2.2-2.9-4.5-4.4-6.7c-0.3-0.5-0.8-0.8-1.5-0.8c-0.7,0-10.4,0.7-11.5,0.6
			c-0.3,0-0.5-0.1-0.5-0.1c-0.4-0.2-0.7-0.6-0.7-0.8C59.2,77.8,58,76,57.2,75c-0.3-0.5-0.6-0.9-0.9-1.4c-0.5-0.7-0.6-1.4-0.2-2.2
			c0.6-1.1,0.9-1.7,1.3-2.5s0.3-0.7,0.9-1.8c2.5-4.8,2.5-4.9,2.5-4.9c0.6-1,0.4-1.8-0.2-2.8c-1.9-2.8-3.7-5.6-5.5-8.4
			c-0.5-0.7-0.6-1.4-0.2-2.3c1.5-2.9,2.2-4.3,2.4-4.6c0.3-0.6,0.5-1.2,1.1-1.6c0.4-0.3,0.9-0.4,1.2-0.4c2.8-0.1,4.9-0.2,5.8-0.3
			c0.2,0,0.6,0,1.1,0.2c0.3,0.2,0.6,0.4,0.9,0.8c1.1,1.7,2.1,3.4,3.3,5c0.5,0.7,0.5,1.4,0.1,2.2c-0.7,1.3-1.3,2.6-2,3.9
			c-0.6,1-0.4,0.8-0.9,1.8c-0.8,1.4-1.2,2.3-2.1,4.1c-0.3,0.6-0.2,1.2,0.2,1.8c1.4,2.1,2.8,4.3,4.2,6.5c1.3,2,2.6,4.1,4,6.1
			c0.4,0.6,0.8,1.3,1.7,1.2c1.9-0.1,2.8-0.1,5.4-0.3c1.2-0.1,1,0,2-0.1c0.7-0.1,1.7-0.1,3.6-0.2c0.8,0,1.4,0.2,1.8,0.8
			c1.2,1.8,2.3,3.6,3.5,5.4C92.5,81.6,92.5,82.2,92.2,82.8z"/>
		<path id="XMLID_116_" class="st0" d="M95.9,37.8c0.5,0,1-0.1,1.5-0.1c2.9-0.2,5.8-0.3,8.7-0.5c0.4,0,0.8-0.1,1.1,0.3l0,0
			c0.2,0.3,0.4,0.5,0.6,0.8c1.6,2.5,3.3,5.1,5,7.6c0.5,0.7,0.6,1.3,0.2,2.1c-1.5,2.9-3,5.7-4.4,8.6c-0.3,0.6-0.7,0.8-1.3,0.8
			c-2,0.1-4.1,0.2-6.1,0.3c-1.3,0.1-2.5,0.1-3.8,0.2c-0.5,0-0.9,0-1.1-0.5l0,0c-0.8-1-1.5-2.2-2.2-3.3c-1.2-1.8-2.3-3.6-3.5-5.4
			c-0.2-0.4-0.5-0.7-0.2-1.2c1.6-3.1,3.2-6.3,4.8-9.4C95.2,38,95.5,37.8,95.9,37.8z M94,49.2c1.1,1.7,2.1,3.3,3.2,5
			c0.1,0.2,0.4,0.5,0.9,0.8c0.3,0.2,0.7,0.2,0.8,0.1c0.5,0,0.7,0,6.1-0.3c0.3,0,0.8,0,1.3-0.4c0.3-0.2,0.5-0.5,0.7-0.8
			c0.9-1.8,1.8-3.6,2.7-5.4c0.4-0.7,0.3-1.3-0.1-2c-1.3-2-1.7-2.5-2.2-3.3c0,0-0.5-0.9-1.6-2.4c-0.1-0.1-0.2-0.2-0.4-0.4
			c-0.4-0.2-0.9-0.2-1-0.1c-2,0.3-4,0.2-6,0.3c-0.8,0-1.4,0.4-1.8,1.2c-0.9,1.8-1.8,3.6-2.7,5.3C93.4,47.7,93.4,48.4,94,49.2z"/>
		<path id="XMLID_115_" class="st0" d="M92.8,37.5c-1.5,3-3.1,6-4.6,9c-0.3,0.5-0.6,0.7-1.2,0.8c-3.3,0.2-6.7,0.3-10,0.5
			c-0.6,0-1.1-0.2-1.4-0.8C75,46,74.3,45,73.7,43.9c-1.1-1.7-2.3-3.5-3.4-5.2c-0.3-0.4-0.4-0.8-0.2-1.3c1.5-3,3.1-6,4.6-9
			c0.3-0.6,0.7-0.9,1.4-0.9c1.6,0,3.3-0.2,4.9-0.2c1.5-0.1,3.1-0.1,4.6-0.3c1-0.1,1.5,0.2,2,1c1.7,2.7,3.4,5.4,5.2,8
			C93.1,36.5,93.1,37,92.8,37.5z M90,36.2c-1.3-2-2.6-4-3.9-6c-0.4-0.6-0.9-0.9-1.6-0.8c-2.3,0.2-4.6,0.3-7,0.4
			c-0.7,0-1.1,0.3-1.4,0.9c-1.1,2.2-2.2,4.3-3.3,6.5c-0.3,0.5-0.3,0.9,0,1.4c1.4,2.1,2.8,4.3,4.1,6.4c0.3,0.4,0.7,0.5,1.1,0.5
			c1.3-0.1,2.5-0.1,3.8-0.2c1.2-0.1,2.4-0.1,3.6-0.2c0.7,0,1-0.3,1.3-0.9c1.1-2.2,2.2-4.3,3.3-6.5C90.4,37.1,90.4,36.7,90,36.2z"/>
		<path id="XMLID_114_" class="st0" d="M77.1,42.5"/>
	</g>
	<g id="XMLID_109_">
		<path id="XMLID_112_" class="st0" d="M125.3,65.7L125.3,65.7L125.3,65.7L125.3,65.7z"/>
		<path id="XMLID_111_" class="st0" d="M155.6,58.3c-0.2-0.2-0.4-0.2-0.5-0.2c-0.5,0-12.2,0.6-12.7,0.7c-5.5,0.3-7.7,0.4-13.2,0.7
			c-0.5,0-3,0.2-3.5,0.2c-0.1,0-0.3,0.1-0.4,0.2c-0.1,0.1-0.1,0.2-0.2,0.3c0.1,1.2,0.1,2.3,0.2,3.5c0,0.1,0.1,0.2,0.2,0.3
			c0.2,0.2,0.5,0.2,0.6,0.2c1-0.1,4-0.2,5-0.3c1.4-0.1-0.5,0,0.9,0c0.5,8.5,0.9,17,1.4,25.5c0,0.1,0,0.2,0.1,0.3
			c0.2,0.2,0.5,0.2,0.5,0.1c0.6,0,1.2-0.1,1.8-0.1c0.6,0,1.2-0.1,1.8-0.1c0,0,0.3,0,0.5-0.2c0.1-0.1,0.1-0.3,0.1-0.3
			c-0.5-8.5-0.9-17-1.4-25.5c1.4-0.1,2.9-0.2,4.3-0.2c1-0.1,13.2-0.7,14.2-0.8c0.1,0,0.3,0,0.5-0.3c0.1-0.1,0.1-0.3,0.2-0.3
			c-0.1-1.2-0.1-2.3-0.2-3.5C155.8,58.5,155.7,58.4,155.6,58.3z"/>
		<path id="XMLID_110_" class="st0" d="M145.2,64.7L145.2,64.7L145.2,64.7L145.2,64.7z"/>
	</g>
	<path id="XMLID_108_" class="st0" d="M172,87.9l-3.3,0.2c-0.4,0-0.7-0.3-0.8-0.7l-1.6-29.1c0-0.4,0.3-0.7,0.7-0.8l3.3-0.2
		c0.4,0,0.7,0.3,0.8,0.7l1.6,29.1C172.7,87.6,172.4,87.9,172,87.9z"/>
	<path id="XMLID_107_" class="st0" d="M196.9,74.9c-2.9,0.7-3.9,1.8-4.3,2.7c-0.2,0.5-0.4,1.2-0.9,2c-0.3,0.6-0.9,1-1.6,1.3
		c-0.7,0.3-1.6,0.5-2.8,0.5c-1,0.1-2-0.1-2.8-0.4c-0.8-0.3-1.5-0.8-2.1-1.4c-0.6-0.6-1-1.3-1.4-2.1c-0.3-0.7-0.5-1.5-0.6-2.3l0,0
		c0,0,0-0.2,0-0.3c0-0.2,0,0,0-0.2c5.4-0.3,10.9-0.6,16.3-0.9c0-0.3,0.4-6.4-4.5-9.8c-4.4-3-10.3-1.8-13.5,1.3
		c-3.8,3.7-3.5,9-3.4,10c0,0.4,0.6,6.5,5,9.6c4.1,2.9,11,2.7,14.5-1.6C197.7,80.1,197.1,75.8,196.9,74.9z M183.8,68.3
		c0.8-0.4,1.7-0.7,2.8-0.7c0.1,0,0.7,0,1.2,0c2.1,0.3,3.6,2.3,4,2.9L181.4,71c0.2-0.3,0.3-0.6,0.5-0.9
		C182.4,69.3,183,68.7,183.8,68.3z"/>
	<path id="XMLID_106_" class="st0" d="M281.6,64c0,0-0.2-0.7-0.6-1.3c-1.8-3.2-5.4-4.3-5.4-4.3c-3.5-1-7.4,0.3-9.4,2.8
		c-0.1,0.2-0.3,0.4-0.4,0.5c-0.1-0.1-0.2-0.3-0.4-0.4c-2.3-2.3-6.3-3.1-9.7-1.7c0,0-3.5,1.4-4.9,4.8c-0.3,0.7-0.4,1.4-0.4,1.4
		c0,0.5-0.1,1-0.1,1.5c0.3,5,0.5,10.1,0.8,15.1c0,0.1,0.1,0.3,0.2,0.4c0.2,0.2,0.4,0.2,0.4,0.3c1.7-0.1,3-0.1,3.5-0.2
		c0.1,0,0.3,0,0.5-0.2c0.2-0.2,0.2-0.4,0.2-0.5c-0.2-4.2-0.4-8.4-0.7-12.6c0-0.2,0-0.4,0-0.5l0-0.1c0,0,0-0.1,0-0.1
		c0-0.6,0-1.3,0.1-1.9c0-0.2,0.1-0.3,0.1-0.5c0.2-0.6,0.4-1.1,0.5-1.3c0.4-0.6,2.2-2.6,4.6-2.1c1.9,0.4,2.8,2.1,3.1,2.7
		c0,0.1,0.1,0.2,0.1,0.2c0.3,0.8,0.4,1.4,0.4,1.9c0.2,4.6,0.5,9.2,0.7,13.8c0,0.1,0,0.3,0.2,0.4c0.1,0.1,0.3,0.1,0.5,0.1
		c0.9,0,1.8-0.1,2.6-0.1c0.1,0,0.3,0,0.4-0.1c0.1-0.1,0.2-0.3,0.2-0.4c-0.2-4.6-0.5-9.2-0.7-13.8c0-0.5,0-1.2,0.2-2
		c0,0,0-0.1,0.1-0.2c0.2-0.7,1-2.5,2.8-3.1c2.3-0.8,4.3,1,4.8,1.6c0.1,0.1,0.4,0.6,0.6,1.2c0.1,0.2,0.1,0.3,0.2,0.5
		c0.2,0.6,0.3,1.2,0.3,1.8c0,0,0,0.1,0,0.1l0,0.1c0,0.2,0,0.4,0,0.5c0.2,4.2,0.4,8.4,0.7,12.6c0,0.1,0.1,0.4,0.2,0.5
		c0.2,0.1,0.4,0.1,0.5,0.2c0.5,0,1.7-0.1,3.5-0.2c0.1,0,0.3-0.1,0.4-0.3c0.1-0.2,0.1-0.4,0.2-0.4c-0.3-5-0.5-10.1-0.8-15.1
		C281.8,64.9,281.7,64.5,281.6,64z"/>
	<path id="XMLID_105_" class="st0" d="M163.5,76.7c-2.9,0.7-3.9,1.8-4.3,2.7c-0.2,0.5-0.4,1.2-0.9,2c-0.3,0.6-0.9,1-1.6,1.3
		s-1.6,0.5-2.8,0.5c-1,0.1-2-0.1-2.8-0.4c-0.8-0.3-1.5-0.8-2.1-1.4c-0.6-0.6-1-1.3-1.4-2.1s-0.5-1.7-0.6-2.5l0,0c0,0,0-0.1,0-0.1
		c0-0.2,0,0,0-0.2c5.4-0.3,10.9-0.6,16.3-0.9c0-0.3,0.4-6.4-4.5-9.8c-4.4-3-10.3-1.8-13.5,1.3c-3.8,3.7-3.5,9-3.4,10
		c0,0.4,0.6,6.5,5,9.6c4.1,2.9,11,2.7,14.5-1.6C164.3,81.9,163.6,77.6,163.5,76.7z M150.4,70.1c0.8-0.4,1.7-0.7,2.8-0.7
		c0.1,0,0.7,0,1.2,0c2.1,0.3,3.6,2.3,4,2.9L148,72.8c0.2-0.3,0.3-0.6,0.5-0.9C149,71.1,149.6,70.5,150.4,70.1z"/>
	<g id="XMLID_102_">
		<path id="XMLID_104_" class="st0" d="M102.7,66.8L102.7,66.8L102.7,66.8C102.7,66.8,102.7,66.8,102.7,66.8z"/>
		<path id="XMLID_103_" class="st0" d="M104.4,60.7c0.9,1.5,1.8,3,2.8,4.4c1.1-0.1,2.6-0.1,3.7-0.2c0.5,8.5,0.9,17,1.4,25.5
			c0,0.1,0.1,0.2,0.2,0.3c0.2,0.2,0.4,0.1,0.4,0.1c1.2-0.1,2.4-0.1,3.6-0.2c0,0,0.3,0,0.5-0.2c0.1-0.1,0.1-0.3,0.1-0.3
			c-0.5-8.5-0.9-17-1.4-25.5c2.5-0.1,4.9-0.3,7.4-0.4c0.1,0,0.3,0,0.5-0.3c0.1-0.1,0.1-0.3,0.2-0.3c-0.1-1.2-0.1-2.3-0.2-3.5
			c0-0.1-0.1-0.2-0.2-0.3c-0.2-0.2-0.4-0.2-0.5-0.2C116.9,60.1,110.5,60.4,104.4,60.7z"/>
	</g>
	<path id="XMLID_101_" class="st0" d="M103.3,91.5l-3.3,0.2c-0.4,0-0.7-0.3-0.8-0.7l-1-18.1l4.8-0.3l1,18.1
		C104.1,91.1,103.8,91.5,103.3,91.5z"/>
	<path id="XMLID_100_" class="st0" d="M105.6,65.2c-0.6-0.8-1.1-1.7-1.6-2.5c-0.3-0.6-0.7-1.1-1-1.7c-0.1-0.3-0.4-0.2-0.6-0.2
		c-1.2,0.1-2.4,0.1-3.6,0.2c-0.4,0-0.8,0-1.2,0.1c-0.2,0-0.4,0.1-0.5,0.3c-0.8,1.6-1.5,3.1-2.3,4.7c-0.1,0.2-0.1,0.4,0,0.5
		c0.3,0.4,0.6,0.9,0.8,1.3c0.6,1,1.2,1.9,1.8,2.9c0.2,0.3,0.4,0.4,0.7,0.4c1.6-0.1,3.1-0.2,4.7-0.2c0.2,0,0.3,0,0.4-0.1l0,0
		c0.3-0.3,0.4-0.8,0.6-1.1c0.6-1.2,1.2-2.4,1.7-3.5C105.8,65.8,105.8,65.6,105.6,65.2z M103.3,66.1c-0.3,0.6-0.6,1.3-0.9,2
		c-0.1,0.2-0.2,0.4-0.3,0.6l0,0c-0.1,0-0.1,0-0.2,0.1c-0.9,0-1.7,0.1-2.6,0.1c-0.2,0-0.3,0-0.4-0.2c-0.3-0.5-0.7-1.1-1-1.6
		c-0.1-0.2-0.3-0.5-0.5-0.7c-0.1-0.1-0.1-0.2,0-0.3c0.4-0.9,0.8-1.7,1.3-2.6c0.1-0.1,0.1-0.2,0.3-0.2c0.2,0,0.4,0,0.6,0
		c0.7,0,1.3-0.1,2-0.1c0.1,0,0.2,0,0.3,0.1c0.2,0.3,0.4,0.6,0.6,0.9c0.3,0.5,0.6,0.9,0.9,1.4C103.3,65.8,103.3,65.9,103.3,66.1z"/>
	<g id="XMLID_95_">
		<g>
			<path id="XMLID_99_" class="st0" d="M233.4,65.7c0.4-0.2,0.7-0.4,1.1-0.5l-5.2-3.1c-0.3,0.2-0.6,0.5-0.9,0.8
				c-0.6,0.5-1,1.1-1.4,1.7l4.6,2.8C232.1,66.6,232.7,66.1,233.4,65.7z"/>
			<path id="XMLID_98_" class="st0" d="M242.4,71.7c0.1,0.6,0,1.4,0,2.1l4.3,2.6c0.3-1.4,0.3-2.6,0.2-3.7l-4.8-2.9
				C242.3,70.5,242.4,71.2,242.4,71.7z"/>
			<path id="XMLID_97_" class="st0" d="M246.3,68.4c-0.5-2.2-1.6-5-4.4-6.8c-2.6-1.7-6-2.1-9-1.2L246.3,68.4z"/>
			<path id="XMLID_96_" class="st0" d="M241.2,77.2c-0.3,0.4-0.6,0.7-1,0.9c-0.5,0.3-1.8,0.8-3.1,0.9c-0.1,0-0.2,0-0.2,0
				c-1.5,0.1-2.6-0.3-2.8-0.4c-0.8-0.3-1.5-0.8-2.1-1.4c-0.6-0.6-1-1.3-1.4-2.1c-0.3-0.7-0.5-1.5-0.5-2.3l0-0.1c0,0,0-0.1,0-0.1
				c0-0.7,0-1.4,0.1-2.1l-4.8-2.9c-0.7,2.4-0.5,4.6-0.5,5.2c0,0.4,0.6,6.5,5,9.6c4.2,3,11,2.3,14.5-1.6c0.4-0.4,0.6-0.8,0.9-1.2
				L241.2,77.2z"/>
		</g>
	</g>
</g>
<path class="st1" d="M286.6,139.7l-267,14.2c-2.4,0.1-4.4-1.7-4.6-4.1L8.7,31.1c-0.1-2.4,1.7-4.4,4.1-4.6l267-14.2
	c2.4-0.1,4.4,1.7,4.6,4.1l6.3,118.8C290.9,137.5,289,139.6,286.6,139.7z"/>
<g>
	<path class="st0" d="M70.8,137.3c1-1.6,2.3-2.2,3.4-3.1c1.1-1,2.2-2,3-3.3c0.4-0.6,0.6-1.1-0.5-1.1c-2.3,0-2.8-0.8-2.1-3
		c0.3-0.9,0.7-1.9,1.1-2.7c0.4-0.9,1-1.9,2.2-1.5c1.1,0.4,1.9,1.3,1.9,2.5c0,3-0.6,5.8-2.1,8.4C76.3,136,73.5,136.2,70.8,137.3z"/>
	<g>
		<path class="st0" d="M161.4,124.4c1,4.3,4.3,4.3,7.2,4.2c7.1-0.1,14.1-0.9,20.9-3.2c0.1,0,0.1,0,0.2,0c2.4-0.5,4.1-2.8,6.9-2.4
			c0.5,0.1,1.1-0.4,1.6-0.7c0.8-0.5,1.9-0.9,1.7-2.1c-0.2-1.1-1.4-0.7-2.2-0.8c0.7-2.3,3.9-3.8,5.7-2.6c1.3,0.9,0.2,1.9,0.1,3
			c1.6-0.1,2.1-1.4,2.9-2.3c1-1.1,1.6-2.4,3.5-1.5c0.8,0.4,1.2-0.6,1.6-1.2c0.8-1,1.5-2,3-1.3c0.9,0.4,1.2-0.4,1.5-1
			c1-1.5,2-2.9,3.5-4c0.9-0.6,1.9-1,2.9-0.3c1,0.7,0.7,1.8,0.4,2.7c-1.1,3.1-2.9,5.6-6.4,6.4c-1.3,0.3-2.5,0.3-3.5-0.6
			c-0.8-0.7-1.3-0.4-1.8,0.3c-0.8,1.1-1.8,1.7-3.2,1.8c-1.3,0-2,1.1-2.6,2.1c-0.7,1-1.6,1.7-2.7,1.5c-1.7-0.4-2.6,0.6-3.6,1.5
			c-1.2,1.1-2.3,2.3-4.1,1.2c-0.4-0.2-0.9-0.1-1.3,0.4c-2.7,3.8-6.8,5.2-11,6.3c-5.3,1.4-10.7,2.3-16.3,1.8
			c-4.7-0.4-5.4-1.2-5.6-5.9C160.7,126.8,160.6,125.8,161.4,124.4z M216.7,113.7c1.5,0.1,2.6-0.5,3.7-1.2c0.5-0.3,1.4-0.7,1-1.4
			c-0.4-0.6-1.3-0.8-2.1-0.3C218.2,111.5,217.4,112.5,216.7,113.7z"/>
		<path class="st0" d="M177.8,120.3c-0.6,0.7-0.6,2.2-1.8,2c-0.7-0.1-2-0.7-1.9-1.7c0.2-1.1,0.5-2.6,1.5-3.2
			c0.8-0.5,1.4,0.8,2.1,1.4c0.6-0.1,0.4-0.7,0.7-0.9c0.4-0.5,0.3-1.6,1.2-1.4c0.8,0.2,1.7,0.9,1.8,1.9c0.1,1-0.3,1.9-0.9,2.7
			c-0.3,0.4-0.6,0.5-1.1,0.1C178.8,120.9,178.3,120.6,177.8,120.3z"/>
		<path class="st0" d="M208.2,109.6c-0.4,0.9-0.4,2.4-1.7,2.4c-0.7,0-2.2-0.7-2-1.8c0.2-1.1,0.5-2.9,1.8-3.1
			C207.2,107,208.2,108.2,208.2,109.6z"/>
	</g>
	<g>
		<path class="st0" d="M124.8,115.5c-0.3-0.9-0.3-1.7,0-2.7c1.2-5.5,4.5-9.5,9.2-12.5c0.4-0.3,0.9-0.6,1.3-0.2
			c0.5,0.4,0,0.9-0.1,1.3c-0.2,0.6-0.4,1.3-0.6,1.9c-0.3,1-0.6,1.8-2.1,1.6c-1.5-0.2-5.5,3.8-5.7,5.3c-0.1,0.4,0,0.6,0.1,0.8
			c0.4,0.9,1.6,1.2,2.1,1.2c5.5,1.1,20.1-5.4,20.1-5.4c14-6.3,25.8-4.3,25.9-3.8c0.1,0.4-11.6-0.5-24.6,5.9
			c-7.8,3.8-17.6,11-22.3,9.3C127.4,117.9,125.5,117.2,124.8,115.5z"/>
		<path class="st0" d="M145.7,117.3c0.4,2.3-0.1,4.2-0.2,6.2c-0.1,1.9-0.3,3.9-0.2,5.8c0.1,1.6,0.5,3.1,2.3,3.6
			c1.7,0.5,2.9-0.3,3.9-1.6c0.8-1,1.6-1.8,3.2-1.7c0.7,0.1,1.6-0.4,1.5-1.4c-0.1-1.1-0.9-1.1-1.8-0.9c-2.5,0.3-3-0.2-2.1-2.6
			c0.3-1,0.7-1.9,1.2-2.8c0.8-1.4,1.7-1.6,2.9-0.5c1.2,1.1,1.8,2.4,1.7,4.1c-0.1,2-0.8,3.8-1.8,5.5c-0.4,0.7-1,1.5-2,1.4
			c-1.9-0.2-2.7,1-3.6,2.3c-0.2,0.3-0.4,0.6-0.6,0.9c-0.8,1.3-1.7,2.5-3.4,2.3c-1.8-0.2-2.7-1.7-3-3.3c-0.7-3.1-0.1-6.2,0.1-9.3
			C144,122.7,144,120,145.7,117.3z"/>
		<path class="st0" d="M133.2,138.8c1.6-1.4,3.1-2.7,4.7-4.1c0.6-0.5,1-1.2,1.5-1.9c0.4-0.6,0.3-0.9-0.6-0.9c-2.3,0-2.8-0.7-2.1-2.9
			c0.3-0.9,0.7-1.8,1.1-2.7c0.4-0.9,1-1.9,2.2-1.5c1.1,0.3,1.9,1.3,1.9,2.4c0,3-0.6,5.9-2.2,8.4C138.3,138,135.6,138.3,133.2,138.8z
			"/>
		<path class="st0" d="M126,135.3c1.9-2.3,4.4-3.7,5.8-6.1c1.4-2.4,1.6-5.2,2.8-7.7c0.3,3-0.4,6-1.2,8.8
			C132.6,133.3,129.5,135.5,126,135.3z"/>
		<path class="st0" d="M155.9,113.7c-0.4,0.9-0.4,2.4-1.7,2.4c-0.7,0-2.2-0.7-1.9-1.8c0.2-1.1,0.5-2.9,1.8-3.1
			C154.9,111.1,155.8,112.3,155.9,113.7z"/>
		<path class="st0" d="M151,118.2c-0.4,1-0.5,2.5-1.7,2.6c-0.7,0.1-2.1-0.7-2-1.7c0.1-1.2,0.5-2.9,1.7-3.1
			C150,115.7,150.8,117,151,118.2z"/>
	</g>
	<g>
		<path class="st0" d="M283.3,113.9c0.1,0.9,0,1.8-0.3,2.6c-0.1,0.3-0.5,1.4-1.7,2.4c-1.1,0.9-1.6,0.8-2.8,1.4c-2.4,1.3-2,3-3.8,3.7
			c-1.6,0.6-4.2,0.5-4.8-1c-0.6-1.4-0.6-3-0.6-4.5c0.1-3.4,0.4-6.8,0.8-10.2c0.1-1.3,0.6-2.6,1.4-3.9c0.5,1.1,0.2,2.1,0.1,3.1
			c-0.2,3-0.5,6.1-0.4,9.1c0.1,1.5,0.4,2.9,1.9,3.5c0.3,0.1,0.8,0.3,1.4,0.2c0.9-0.1,1.4-0.7,1.8-1.1c0.5-0.5,0.3-0.6,0.6-0.8
			c0.8-0.6,1.6,0.2,2.5-0.3c0.8-0.5,0.7-1.5,1.4-1.7c0.4-0.1,0.6,0.2,1,0.2C282.2,116.6,282.7,116,283.3,113.9z"/>
		<path class="st0" d="M264,104.6c0.4,2.3-0.1,4.3-0.2,6.3c-0.1,2.1-0.3,4.3-0.2,6.4c0,0.7,0.2,1.3,0.5,1.9c0.3,0.6,0.7,1,1.4,1
			c0.6-0.1,0.6-0.7,0.8-1.1c0.3-0.5,0-1.4,0.9-1.3c0.8,0.1,1,0.9,1,1.5c0.2,1.8-0.3,3.4-1.3,4.8c-0.6,0.8-1.4,1.4-2.5,1.2
			c-1.3-0.3-2.1-1.3-2.4-2.5c-0.3-1.3-0.3-2.6-0.3-4c0.1-3.2,0.4-6.5,0.7-9.7C262.6,107.7,263.1,106.3,264,104.6z"/>
		<path class="st0" d="M250.6,127.9c1-3.9,3.5-6.2,7.1-6.4c1.7-0.1,2.2-1.5,3.2-2.5c0.6,3.5-2.7,7.4-6.1,7.2
			C253.2,126,252.1,127.1,250.6,127.9z"/>
		<path class="st0" d="M260.3,111.7c-0.4,0.9-0.4,2.4-1.6,2.4c-0.7,0-2.1-0.7-2-1.7c0.2-1.2,0.5-2.9,1.8-3.1
			C259.3,109.2,260.3,110.4,260.3,111.7z"/>
	</g>
	<g>
		<path class="st0" d="M243,123.8c0.1,0.4,0.2,0.6,0.1,0.8c-2.8,5.9-6.6,11-13,13.3c-5.1,1.8-9.7-1.2-10.1-6.6
			c-0.5-6.3,1.9-11.7,6.1-16.3c0.2-0.3,0.5-0.5,0.8-0.8c0.5-0.4,0.7-0.9,0.4-1.5c-0.3-0.6-0.8-0.7-1.4-0.5c-0.3,0.1-0.6,0.4-1,0.1
			c0.8-2.6,3.6-3.4,5.3-3c1.8,0.4,2,1.7,0.6,3.5c1.3,0.4,2.1-0.3,2.7-1.3c1.2-2.1,2.5-4,4-5.9c0.6-0.8,0.8-0.7,1.5-0.1
			c1,1.1,1.6,2.1,0.9,3.6c-0.6,1.3-1.4,1.9-2.9,1.4c-1-0.3-1.6,0.5-2.1,1.2c-0.7,0.9-1.3,1.8-1.9,2.7c-0.9,1.2-2.1,1.7-3.5,1.1
			c-0.9-0.4-1.6-0.2-2.3,0.4c-3,2.9-4.9,6.2-4.9,10.5c0,3.9,2.9,6.6,6.8,6.6c5.1-0.1,8.7-2.7,11.9-6.4
			C241.6,125.7,242.2,124.8,243,123.8z"/>
		<path class="st0" d="M243.2,102.4c0.5,2.4-0.1,4.4-0.1,6.3c0,1.9-0.2,3.8-0.2,5.7c0,1,0.3,1.9,1,2.7c1.3,1.3,2.2,1.2,3.1-0.4
			c0.7-1.3,1.4-2.6,2.2-3.8c0.9-1.3,2.1-2,3.8-1.5c0.5,0.2,1.1,0.3,1.6,0.3c1.7-0.3,1.7,0.7,1,1.6c-1.6,2-2.6,4.4-4,6.5
			c-1,1.5-2.4,2.6-4.1,3.2c-3.3,1-6-0.5-6.3-3.8c-0.3-4.9-0.1-9.9,1.2-14.7C242.5,103.8,242.8,103.3,243.2,102.4z M247.4,117.9
			c2.2-0.2,3.7-1,4.9-2.5c0.4-0.5,1.2-1,0.7-1.7c-0.5-0.6-1.4-0.7-2.2-0.4c-0.7,0.2-1.2,0.8-1.6,1.4
			C248.6,115.7,248.1,116.7,247.4,117.9z"/>
		<path class="st0" d="M248.9,129.3c-0.2,1-0.4,2.4-1.6,2.5c-0.7,0.1-1.8-0.6-2.1-1.7c-0.2-0.6,1.6-3.4,1.9-3.3
			C248,127.4,248.9,128,248.9,129.3z"/>
	</g>
	<g>
		<path class="st0" d="M103.4,117.8c0,6.1,1.1,12.2-1.5,18.1c2.5,0.3,4.9-1.9,5-4.7c0.1-2.3-0.1-4.6-0.3-6.9
			c-0.4-3.5,0.3-6.8,2.2-9.9c0,0.9,0,1.7,0,2.6c-0.2,3.5,0.1,7,0.2,10.4c0,1.2,0.4,2.2,1.7,2.6c0.9,0.3,1.5,0.2,2.2-0.7
			c1.5-2,1.5-4.2,1.6-6.5c0.1-3.5,0.5-6.9,2.4-10c-0.2,4.3-0.2,8.5-1.2,12.8c0.6-0.7,1.3-1.4,1.9-2c0.9-0.8,1.9-1.2,3-0.5
			c1.2,0.7,1.2,1.8,0.8,2.9c-1.4,3.9-3.3,7.5-7.7,8.9c-1.7,0.6-3.4,0.7-4.9-0.5c-0.6-0.5-0.8-0.2-1,0.3c-0.5,1.1-1.1,2.2-2,3.1
			c-1.6,1.6-3.3,1.6-4.8,0c-0.4-0.4-0.7-0.9-0.3-1.4c1.8-2.5,1.3-5.4,1-8.2C101.2,125.9,102.2,120,103.4,117.8z M113.5,130
			c2.4,0.1,4.1-0.8,5.6-2.2c0.9-0.9,0.6-1.5-0.6-1.7c-0.7-0.2-1.4,0-2,0.5C115.4,127.5,114.4,128.6,113.5,130z"/>
		<path class="st0" d="M69.6,100.8c0.9,0.7,0.2,1.9,1.1,2.7c1,0.9,2.3,1.2,3.5,1.3c6.1,0.5,12.2-0.1,18-2.2c2.4-0.9,4.7-2,6-4.4
			c-0.1,3.1-1.4,5.7-4,7.5c-3,2.1-6.5,3-10,3.7c-3.7,0.7-7.4,1.1-11.1,0.7c-3.5-0.4-4.8-1.9-4.5-5.4C68.9,103.4,68.9,102,69.6,100.8
			z"/>
		<path class="st0" d="M124.1,117.6c0.1,6.6,1.2,12.9-2.4,18.6C123,130.2,121,123.8,124.1,117.6z"/>
		<path class="st0" d="M83.3,98c0.4-0.2,0.4-0.7,0.7-1.1c0.4-0.5,0.3-1.6,1.2-1.3c0.8,0.3,1.6,0.9,1.7,2c0,0.8-0.3,1.5-0.7,2.2
			c-0.5,0.9-1.1,0.9-1.7,0.3c-0.9-0.9-1.4-0.6-1.9,0.4c-0.2,0.6-0.7,1.4-1.5,0.6c-0.6-0.6-2.1-0.6-1.4-2.1c0.1-0.2,0.2-0.3,0.2-0.5
			C81.2,95.9,81.2,95.9,83.3,98z"/>
		<path class="st0" d="M99.6,121.7c-0.3,0.4-0.5,0.8-0.8,1.2c-1.2,1.5-2.3,1.5-3.7,0c0.2-2.2,1.2-3.2,3.4-2.9c0.8,0.1,1.2,0,1.3-0.8
			c0.1-0.8-0.4-1.1-1.1-1.2c-0.9-0.1-1.7,0.1-2.4,0.7c-1,0.8-1.7,1.9-1.9,3.2c-0.3,0.7-0.6,1.5-0.9,2.2c-0.5,1.4-1.6,1.6-2.7,0.5
			c-0.6-0.6-0.7-1.4-0.8-2.2c-0.2-2.1,0.1-4.3,0.1-6.4c0.1-2,0.6-3.9,0.2-6.2c-1.6,2.7-1.7,5.5-1.9,8.2c-0.2,3.1-0.8,6.2-0.1,9.3
			c0.6,2.6,2.7,3.8,5.3,2.9c3.1-1.1,6.8-6.2,6.9-9.9C100.2,120.9,99.9,121.3,99.6,121.7z"/>
	</g>
	<g>
		<path class="st0" d="M17.1,69.5c0.3,4,3.3,4,6,4.1c5.8,0.3,11.4-0.4,16.9-2.4c2.3-0.8,4.4-1.9,5.6-4.3c0.2,2.3-0.7,4.1-2.1,5.8
			c-1.3,1.8-3.2,2.8-5.2,3.5c-5.7,2.1-11.6,3.2-17.8,2.6c-3.5-0.3-4.7-1.9-4.4-5.3C16.2,72.3,16.3,70.9,17.1,69.5z"/>
		<path class="st0" d="M47.3,89.5c1.1-1.1,1.7-1.8,2.4-2.5c0.9-0.8,1.9-1.1,3-0.5c1,0.6,1.1,1.7,0.7,2.8c-1.4,4-3.3,7.6-7.8,9.1
			c-3.8,1.2-6.6-0.6-6.6-4.6c-0.1-4.1,0.2-8.2,0.9-12.2c0.2-1.1,0.7-2.2,1.1-3.5c0.7,1.2,0.3,2.2,0.3,3.2c-0.2,2.9-0.6,5.8-0.4,8.8
			c0,0.9,0.2,1.7,0.7,2.4c0.9,1.5,2.5,1.4,3.5,0c1.4-1.9,1.4-4.1,1.4-6.3c0.1-3.5,0.5-6.9,2.4-9.9C48.7,80.5,48.8,84.8,47.3,89.5z
			 M45.8,93.5c2.3,0.1,4.1-0.8,5.6-2.3c0.9-0.9,0.5-1.5-0.6-1.7c-0.8-0.2-1.4,0-2,0.5C47.7,91,46.7,92.1,45.8,93.5z"/>
		<path class="st0" d="M50.1,99.2c0.6,2,0,4,0,5.9c-0.1,2-0.3,3.9-0.2,5.9c0.1,1.6,0.5,3.1,2.3,3.6c1.7,0.5,2.9-0.3,3.9-1.6
			c0.8-1,1.6-1.8,3-1.7c1.2,0,1.2-1.5,2.2-2c-0.1,2.8-1,4-3.7,4.9c-1.2,0.4-1.8,1.5-2.4,2.4c-0.9,1.5-1.8,3.3-4,2.9
			c-2.3-0.4-3-2.3-3.1-4.2C48,109.9,48,104.4,50.1,99.2z"/>
		<path class="st0" d="M64.3,129c1.5-6-0.5-12.4,2.7-18.5C67,117,68.1,123.3,64.3,129z"/>
		<path class="st0" d="M30.8,66c0.1-0.3,0.2-0.6,0.5-0.9c0.4-0.5,0.3-1.6,1.2-1.3c0.8,0.2,1.5,0.8,1.7,1.8c0.2,1.1-0.2,2.1-0.9,2.8
			c-1.1,1-1.5-0.8-2.7-0.7c-0.5,0.5-0.5,1.6-1.4,1.9c-0.6,0.2-1.1-0.5-1.5-0.8c-0.8-0.6-0.5-3.1,0.6-3.9
			C29.5,63.9,29.7,65.9,30.8,66z"/>
		<path class="st0" d="M59.7,102.6c0.2-0.4,0.3-0.8,0.6-1.1c0.3-0.5,0.3-1.4,1.1-1.2c0.7,0.2,1.4,0.7,1.7,1.6c0.4,1.2,0,2.4-0.9,3.2
			c-1.1,0.9-1.5-0.8-2.5-0.8c-0.8,0.6-0.6,3-2.7,1.4c-1.1-0.9-1.2-2.8,0.3-4.1C58.4,100.3,58.7,102.4,59.7,102.6z"/>
		<path class="st0" d="M52.4,123.9c-0.2,1.1-0.3,2.5-1.6,2.7c-0.6,0.1-2.2-0.7-2-1.7c0.2-1.2,0.5-2.8,1.7-3.2
			C51.2,121.5,52.3,122.6,52.4,123.9z"/>
		<path class="st0" d="M53,129c2-2.2,4.6-3.4,6.2-5.8c1.5-2.3,1.9-5.1,3.2-7.5c0.1,3-0.7,5.9-1.7,8.7C59.6,127.3,56.4,129.3,53,129z
			"/>
	</g>
</g>
<path class="st2" d="M289.4,143.8l-272,14.5c-3.2,0.2-5.9-2.3-6.1-5.5L4.6,28.2c-0.2-3.2,2.3-5.9,5.5-6.1l272-14.5
	c3.2-0.2,5.9,2.3,6.1,5.5l6.7,124.7C295,141,292.6,143.7,289.4,143.8z"/>
</svg>
