<?xml version="1.0" encoding="utf-8"?>
<!-- Generator: Adobe Illustrator 22.0.1, SVG Export Plug-In . SVG Version: 6.00 Build 0)  -->
<svg version="1.1" id="Layer_1" xmlns="http://www.w3.org/2000/svg" xmlns:xlink="http://www.w3.org/1999/xlink" x="0px" y="0px"
	 viewBox="0 0 35 35" style="enable-background:new 0 0 35 35;" xml:space="preserve">
<style type="text/css">
	.st0{fill:#FFC10D;}
	.st1{fill:#194F82;}
</style>
<path class="st0" d="M10.9,30.1h13.6c0.5,0,0.9-0.4,0.9-0.9v-24c0-0.5-0.4-0.9-0.9-0.9H10.9c-0.5,0-0.9,0.4-0.9,0.9v24
	C10.1,29.7,10.4,30.1,10.9,30.1z"/>
<path class="st1" d="M18.2,14.9c1.5,0,2.8,0.7,2.8,1.5c0,0.6-1.1,0.8-2.4,2.6c-0.3-0.1-1.3-0.5-2.5,0.4c-0.3-1.3-0.6-2.7-0.6-3.1
	C15.4,15.6,16.7,14.9,18.2,14.9z M19.6,21.9c0,1-0.8,1.8-1.8,1.8S16,22.9,16,21.9s0.8-1.8,1.8-1.8C18.8,20,19.6,20.9,19.6,21.9z
	 M10.8,21.4c0-1.5,0.7-2.8,1.5-2.8c0.6,0,0.8,1.1,2.6,2.4c-0.2,1,0.1,2.1,0.4,2.5c-1.3,0.3-2.7,0.7-3,0.7
	C11.4,24.2,10.8,23,10.8,21.4z M17.3,28.9c-1.5,0-2.8-0.7-2.8-1.5c0-0.6,1.1-0.8,2.4-2.6c1,0.2,2.1-0.1,2.5-0.4
	c0.3,1.3,0.6,2.7,0.6,3.1C20.1,28.2,18.9,28.9,17.3,28.9z M24.8,22.3c0,1.5-0.7,2.8-1.5,2.8c-0.6,0-0.8-1.1-2.6-2.4
	c0.1-0.3,0.3-1.5-0.4-2.5c1.3-0.3,2.7-0.6,3.1-0.6C24.1,19.5,24.8,20.8,24.8,22.3z"/>
<g>
	<path class="st1" d="M24.4,2.5H11c-1.6,0-2.8,1.3-2.8,2.8v23.8c0,1.6,1.3,2.8,2.8,2.8h13.4c1.6,0,2.8-1.3,2.8-2.8V5.3
		C27.3,3.8,26,2.5,24.4,2.5z M25.4,29.1c0,0.5-0.4,0.9-0.9,0.9H11c-0.5,0-0.9-0.4-0.9-0.9V5.3c0-0.5,0.4-0.9,0.9-0.9h13.4
		c0.5,0,0.9,0.4,0.9,0.9L25.4,29.1L25.4,29.1z"/>
</g>
<path class="st1" d="M13.1,7.8h-1.2c-0.5,0-0.9,0.4-0.9,0.9c0,0.5,0.4,0.9,0.9,0.9h1.2c0.5,0,0.9-0.4,0.9-0.9
	C14,8.2,13.6,7.8,13.1,7.8z"/>
<path class="st1" d="M18.4,7.8h-1.2c-0.5,0-0.9,0.4-0.9,0.9c0,0.5,0.4,0.9,0.9,0.9h1.2c0.5,0,0.9-0.4,0.9-0.9
	C19.3,8.2,18.9,7.8,18.4,7.8z"/>
<path class="st1" d="M23.7,7.8h-1.2c-0.5,0-0.9,0.4-0.9,0.9c0,0.5,0.4,0.9,0.9,0.9h1.2c0.5,0,0.9-0.4,0.9-0.9
	C24.7,8.2,24.2,7.8,23.7,7.8z"/>
<path class="st1" d="M13.1,10.5h-1.2c-0.5,0-0.9,0.4-0.9,0.9c0,0.5,0.4,0.9,0.9,0.9h1.2c0.5,0,0.9-0.4,0.9-0.9
	C14,10.9,13.6,10.5,13.1,10.5z"/>
<path class="st1" d="M18.4,10.5h-1.2c-0.5,0-0.9,0.4-0.9,0.9c0,0.5,0.4,0.9,0.9,0.9h1.2c0.5,0,0.9-0.4,0.9-0.9
	C19.3,10.9,18.9,10.5,18.4,10.5z"/>
<path class="st1" d="M23.7,10.5h-1.2c-0.5,0-0.9,0.4-0.9,0.9c0,0.5,0.4,0.9,0.9,0.9h1.2c0.5,0,0.9-0.4,0.9-0.9S24.2,10.5,23.7,10.5z
	"/>
<path class="st1" d="M22.6,31.3v1.2c0,0.5,0.4,0.9,0.9,0.9c0.5,0,0.9-0.4,0.9-0.9v-1.2c0-0.5-0.4-0.9-0.9-0.9
	C23,30.4,22.6,30.8,22.6,31.3z"/>
<path class="st1" d="M10.8,31.3v1.2c0,0.5,0.4,0.9,0.9,0.9c0.5,0,0.9-0.4,0.9-0.9v-1.2c0-0.5-0.4-0.9-0.9-0.9
	C11.2,30.4,10.8,30.8,10.8,31.3z"/>
</svg>
