<?xml version="1.0" encoding="utf-8"?>
<!-- Generator: Adobe Illustrator 23.0.0, SVG Export Plug-In . SVG Version: 6.00 Build 0)  -->
<svg version="1.1" id="Layer_1" xmlns="http://www.w3.org/2000/svg" xmlns:xlink="http://www.w3.org/1999/xlink" x="0px" y="0px"
	 viewBox="0 0 35 35" style="enable-background:new 0 0 35 35;" xml:space="preserve">
<style type="text/css">
	.st0{fill:#0F73B9;}
	.st1{fill:#56ACE0;stroke:#194F82;stroke-miterlimit:10;}
	.st2{fill:#FFC10D;stroke:#194F82;stroke-miterlimit:10;}
	.st3{fill:none;stroke:#194F82;stroke-miterlimit:10;}
</style>
<path class="st0" d="M3.9,1.9L3.9,1.9L3.9,1.9z"/>
<path class="st1" d="M25.9,13.3L14.6,25.4c-1.5,1.6-4,1.7-5.7,0.2l-4.4-4.1L21.2,3.5l4.4,4.1C27.3,9.1,27.4,11.6,25.9,13.3z"/>
<polygon class="st2" points="29.9,17.4 26.4,21.1 21.5,18 26.4,12.7 "/>
<polygon class="st2" points="22.3,25.5 18.8,29.3 13.9,26.2 18.8,20.9 "/>
<path class="st2" d="M15.1,21.5l-1.3,1.4c-0.7,0.8-2,0.9-2.8,0.1l-1.2-1.1C9,21.1,9,19.8,9.7,19l1.3-1.4c0.7-0.8,2-0.9,2.8-0.1
	l1.2,1.1C15.8,19.4,15.9,20.7,15.1,21.5z"/>
<path class="st2" d="M12.4,13.1l-6.2,6.7c-1.9-1.8-0.9-0.8-2.8-2.6c0.1-0.3,0.3-0.6,0.4-0.9c-0.5-0.6-1-1.2-1.5-1.8
	c0.7-0.8,1.5-1.6,2.2-2.4c0.7-0.8,1.5-1.6,2.2-2.4c0.7,0.4,1.3,0.9,2,1.3c0.3-0.1,0.6-0.2,0.9-0.4C11.5,12.3,10.5,11.4,12.4,13.1z"
	/>
<path class="st1" d="M5.7,10.6l-2.6,2.8l-1.2-1.1c-0.4-0.4-0.4-1-0.1-1.4L3,9.6c0.4-0.4,1-0.4,1.4-0.1L5.7,10.6z"/>
<path class="st2" d="M19.5,5l-6.2,6.7c-1.9-1.8-0.9-0.8-2.8-2.6c0.1-0.3,0.3-0.6,0.4-0.9c-0.5-0.6-1-1.2-1.5-1.8
	c0.7-0.8,1.5-1.6,2.2-2.4s1.5-1.6,2.2-2.4c0.7,0.4,1.3,0.9,2,1.3c0.3-0.1,0.6-0.2,0.9-0.4C18.7,4.2,17.6,3.2,19.5,5z"/>
<path class="st1" d="M12.8,2.5l-2.6,2.8L9,4.2c-0.4-0.4-0.4-1-0.1-1.4l1.2-1.3c0.4-0.4,1-0.4,1.4-0.1L12.8,2.5z"/>
<path class="st2" d="M23,12.9l-1.3,1.4c-0.7,0.8-2,0.9-2.8,0.1l-1.2-1.1c-0.8-0.7-0.9-2-0.1-2.8l1.3-1.4c0.7-0.8,2-0.9,2.8-0.1
	l1.2,1.1C23.7,10.8,23.8,12.1,23,12.9z"/>
<path class="st3" d="M14.8,16.1c0.2-0.1,0.5-0.2,0.7-0.4c0.5-0.4,0.9-1,1.2-1.6"/>
<path class="st3" d="M16.5,17.7c0.2-0.1,0.5-0.2,0.7-0.4c0.5-0.4,0.9-1,1.2-1.6"/>
<path class="st1" d="M24.5,31.2l-1.8,1.9c-0.2-0.6-0.6-1.5-1.2-2.5c-0.7-1-1.4-1.7-2-2.1c0.6-0.6,1.2-1.3,1.8-1.9
	c0.7,0.6,1.5,1.4,2.2,2.6C24,29.9,24.3,30.6,24.5,31.2z"/>
<path class="st1" d="M32,23.2l-1.8,1.9c-0.2-0.6-0.6-1.5-1.2-2.5c-0.7-1-1.4-1.7-2-2.1c0.6-0.6,1.2-1.3,1.8-1.9
	c0.7,0.6,1.5,1.4,2.2,2.6C31.5,21.9,31.8,22.6,32,23.2z"/>
</svg>
