<?xml version="1.0" encoding="utf-8"?>
<!-- Generator: Adobe Illustrator 22.0.1, SVG Export Plug-In . SVG Version: 6.00 Build 0)  -->
<svg version="1.1" id="Layer_1" xmlns="http://www.w3.org/2000/svg" xmlns:xlink="http://www.w3.org/1999/xlink" x="0px" y="0px"
	 viewBox="0 0 35 35" style="enable-background:new 0 0 35 35;" xml:space="preserve">
<style type="text/css">
	.st0{fill:#56ACE0;}
	.st1{fill:#FFC10D;}
	.st2{fill:#194F82;}
</style>
<g>
	<path class="st0" d="M3.1,23.9v4.9c0,0.6,0.6,1,1.2,1h2.9v-7H4.3C3.7,22.9,3.1,23.4,3.1,23.9z"/>
	<path class="st0" d="M30.3,22.5h-3v7.3h3c0.7,0,1.2-0.5,1.2-1.1v-5.1C31.5,23,31.1,22.5,30.3,22.5z"/>
</g>
<polygon class="st1" points="14.9,27.7 19.3,24 14.9,20.3 "/>
<g>
	<path class="st2" d="M30.3,21.1v-4.5c0-7.2-5.9-13.1-13.1-13.1S4.1,9.3,4.1,16.6v4.5c-1.4,0.1-2.5,1.3-2.5,2.8v4.8
		c0,1.5,1.2,2.8,2.8,2.8h3.4c0.5,0,0.9-0.4,0.9-0.9V22c0-0.5-0.4-0.9-0.9-0.9H5.9v-4.5c0-6.3,5.1-11.4,11.4-11.4s11.4,5.1,11.4,11.4
		v4.5h-1.8c-0.5,0-0.9,0.4-0.9,0.9v8.6c0,0.5,0.4,0.9,0.9,0.9h3.4c1.5,0,2.8-1.2,2.8-2.8v-4.8C33,22.4,31.8,21.2,30.3,21.1z
		 M6.9,29.7H4.4c-0.6,0-1-0.5-1-1v-4.8c0-0.6,0.5-1,1-1h2.5C6.9,22.8,6.9,29.7,6.9,29.7z M31.2,28.6c0,0.6-0.5,1-1,1h-2.5v-6.8h2.5
		c0.6,0,1,0.5,1,1V28.6L31.2,28.6z"/>
	<path class="st2" d="M14.5,17.8c-0.6-0.5-1.4-0.1-1.4,0.7v11.1c0,0.7,0.9,1.1,1.4,0.7l6.6-5.5c0.4-0.3,0.4-1,0-1.3L14.5,17.8z
		 M14.9,27.7v-7.4l4.4,3.7L14.9,27.7z"/>
</g>
<path class="st2" d="M23.7,12.6c-0.2,0-0.5-0.1-0.6-0.3c-1.2-2.3-3.4-3.7-6-3.7s-4.8,1.4-6,3.7c-0.2,0.3-0.5,0.4-0.9,0.3
	c-0.2-0.3-0.3-0.6-0.2-1c1.4-2.7,4.1-4.4,7.1-4.4s5.8,1.7,7.1,4.4c0.2,0.3,0,0.7-0.3,0.9C23.9,12.6,23.8,12.6,23.7,12.6z"/>
</svg>
