<?xml version="1.0" encoding="utf-8"?>
<!-- Generator: Adobe Illustrator 23.0.0, SVG Export Plug-In . SVG Version: 6.00 Build 0)  -->
<svg version="1.1" id="Layer_1" xmlns="http://www.w3.org/2000/svg" xmlns:xlink="http://www.w3.org/1999/xlink" x="0px" y="0px"
	 viewBox="0 0 35 35" style="enable-background:new 0 0 35 35;" xml:space="preserve">
<style type="text/css">
	.st0{fill:#194F82;}
	.st1{fill:#FFC10D;stroke:#194F82;stroke-miterlimit:10;}
	.st2{fill:#56ACE0;stroke:#194F82;stroke-miterlimit:10;}
</style>
<g>
	<path class="st0" d="M8.5,5.2C7,5.2,5.8,6.4,5.8,7.9v6c0,1.5,1.2,2.7,2.7,2.7h0.9v0.6c0,0.5,0.4,0.9,0.9,0.9s0.9-0.4,0.9-0.9v-0.6
		h13v0.6c0,0.5,0.4,0.9,0.9,0.9s0.9-0.4,0.9-0.9v-0.6h0.9c1.5,0,2.7-1.2,2.7-2.7v-6c0-1.5-1.2-2.7-2.8-2.7
		C17.8,5.2,17.6,5.2,8.5,5.2z M27.9,14c0,0.5-0.4,0.9-0.9,0.9H8.5c-0.5,0-0.9-0.4-0.9-0.9V8c0-0.5,0.4-0.9,0.9-0.9
		c9.1,0,9.3,0,18.4,0c0.5,0,0.9,0.4,0.9,0.9L27.9,14z"/>
</g>
<rect x="7" y="6.6" class="st1" width="21.4" height="8.5"/>
<path class="st0" d="M11.7,12.4h-1.1c-0.8,0-1.4-0.6-1.4-1.3v-0.6c0-0.7,0.6-1.3,1.3-1.3h1.2c0.7,0,1.3,0.6,1.3,1.3v0.6
	C13.1,11.8,12.5,12.4,11.7,12.4z"/>
<path class="st0" d="M16.4,12.4h-1.2c-0.7,0-1.3-0.6-1.3-1.3v-0.6c0-0.7,0.6-1.3,1.3-1.3h1.2c0.7,0,1.3,0.6,1.3,1.3v0.6
	C17.7,11.8,17.1,12.4,16.4,12.4z"/>
<g>
	<path class="st0" d="M8.5,18.1c-1.5,0-2.7,1.2-2.7,2.7v6c0,1.5,1.2,2.7,2.7,2.7h0.9v0.6c0,0.5,0.4,0.9,0.9,0.9s0.9-0.4,0.9-0.9
		v-0.6h13v0.6c0,0.5,0.4,0.9,0.9,0.9s0.9-0.4,0.9-0.9v-0.6h0.9c1.5,0,2.7-1.2,2.7-2.7v-6c0-1.5-1.2-2.7-2.8-2.7
		C17.8,18.1,17.6,18.1,8.5,18.1z M27.9,26.9c0,0.5-0.4,0.9-0.9,0.9H8.5c-0.5,0-0.9-0.4-0.9-0.9v-6C7.6,20.4,8,20,8.5,20
		c9.1,0,9.3,0,18.4,0c0.5,0,0.9,0.4,0.9,0.9L27.9,26.9z"/>
</g>
<rect x="7" y="19.5" class="st2" width="21.4" height="8.5"/>
<path class="st0" d="M11.7,25.3h-1.1c-0.8,0-1.4-0.6-1.4-1.3v-0.6c0-0.7,0.6-1.3,1.3-1.3h1.2c0.7,0,1.3,0.6,1.3,1.3V24
	C13.1,24.7,12.5,25.3,11.7,25.3z"/>
<path class="st0" d="M16.4,25.3h-1.2c-0.7,0-1.3-0.6-1.3-1.3v-0.6c0-0.7,0.6-1.3,1.3-1.3h1.2c0.7,0,1.3,0.6,1.3,1.3V24
	C17.7,24.7,17.1,25.3,16.4,25.3z"/>
</svg>
