<?xml version="1.0" encoding="utf-8"?>
<!-- Generator: Adobe Illustrator 22.0.1, SVG Export Plug-In . SVG Version: 6.00 Build 0)  -->
<svg version="1.1" id="Layer_1" xmlns="http://www.w3.org/2000/svg" xmlns:xlink="http://www.w3.org/1999/xlink" x="0px" y="0px"
	 viewBox="0 0 35 35" style="enable-background:new 0 0 35 35;" xml:space="preserve">
<style type="text/css">
	.st0{fill:#FFC10D;}
	.st1{fill:#194F82;}
</style>
<path class="st0" d="M3.7,20.5c-0.5,0-0.9,0.4-0.9,0.9v5c0,0.5,0.4,0.9,0.9,0.9h27.5c0.5,0,0.9-0.4,0.9-0.9v-5
	c0-0.5-0.4-0.9-0.9-0.9"/>
<g>
	<path class="st1" d="M31.2,18.7H8.7V5.2c0-0.5-0.4-0.9-0.9-0.9S6.9,4.7,6.9,5.2v13.4H3.7c-1.5,0-2.7,1.2-2.7,2.7v5
		c0,1.5,1.2,2.7,2.7,2.7h0.9v0.6c0,0.5,0.4,0.9,0.9,0.9s0.9-0.4,0.9-0.9v-0.6h22v0.6c0,0.5,0.4,0.9,0.9,0.9c0.5,0,0.9-0.4,0.9-0.9
		v-0.6h0.9c1.5,0,2.7-1.2,2.7-2.7v-5C34,19.9,32.8,18.7,31.2,18.7z M32.2,26.4c0,0.5-0.4,0.9-0.9,0.9H3.7c-0.5,0-0.9-0.4-0.9-0.9v-5
		c0-0.5,0.4-0.9,0.9-0.9h4.9v2c0,0.5,0.4,0.9,0.9,0.9c0.5,0,0.9-0.4,0.9-0.9v-2h1.8v3.8c0,0.5,0.4,0.9,0.9,0.9
		c0.5,0,0.9-0.4,0.9-0.9v-3.8h17.1c0.5,0,0.9,0.4,0.9,0.9L32.2,26.4L32.2,26.4z"/>
	<path class="st1" d="M18.1,23h-1.2c-0.5,0-0.9,0.4-0.9,0.9c0,0.5,0.4,0.9,0.9,0.9h1.2c0.5,0,0.9-0.4,0.9-0.9
		C19,23.4,18.6,23,18.1,23z"/>
	<path class="st1" d="M23.4,23h-1.2c-0.5,0-0.9,0.4-0.9,0.9c0,0.5,0.4,0.9,0.9,0.9h1.2c0.5,0,0.9-0.4,0.9-0.9
		C24.3,23.4,23.9,23,23.4,23z"/>
	<path class="st1" d="M28.7,23h-1.2c-0.5,0-0.9,0.4-0.9,0.9c0,0.5,0.4,0.9,0.9,0.9h1.2c0.5,0,0.9-0.4,0.9-0.9
		C29.7,23.4,29.3,23,28.7,23z"/>
</g>
</svg>
