<?xml version="1.0" encoding="utf-8"?>
<!-- Generator: Adobe Illustrator 22.0.1, SVG Export Plug-In . SVG Version: 6.00 Build 0)  -->
<svg version="1.1" id="Layer_1" xmlns="http://www.w3.org/2000/svg" xmlns:xlink="http://www.w3.org/1999/xlink" x="0px" y="0px"
	 viewBox="0 0 35 35" style="enable-background:new 0 0 35 35;" xml:space="preserve">
<style type="text/css">
	.st0{fill:#56ACE0;}
	.st1{fill:#FFC10D;}
	.st2{fill:#194F82;}
</style>
<path class="st0" d="M7.4,29.6H27c0.5,0,0.9-0.4,0.9-0.9v-24c0-0.5-0.4-0.9-0.9-0.9H7.4c-0.5,0-0.9,0.4-0.9,0.9v24
	C6.6,29.2,6.9,29.6,7.4,29.6z"/>
<rect x="5.7" y="15.7" class="st1" width="23" height="5.8"/>
<g>
	<path class="st2" d="M26.9,2H7.5C5.9,2,4.7,3.3,4.7,4.8v23.8c0,1.6,1.3,2.8,2.8,2.8h19.4c1.6,0,2.8-1.3,2.8-2.8V4.8
		C29.8,3.3,28.5,2,26.9,2z M27.9,28.6c0,0.5-0.4,0.9-0.9,0.9H7.5c-0.5,0-0.9-0.4-0.9-0.9V4.8c0-0.5,0.4-0.9,0.9-0.9h19.4
		c0.5,0,0.9,0.4,0.9,0.9L27.9,28.6L27.9,28.6z"/>
</g>
<path class="st2" d="M10.6,17.8H9.4c-0.5,0-0.9,0.4-0.9,0.9c0,0.5,0.4,0.9,0.9,0.9h1.2c0.5,0,0.9-0.4,0.9-0.9
	C11.5,18.2,11.1,17.8,10.6,17.8z"/>
<path class="st2" d="M11.6,8.4H6.4c-0.5,0-0.9,0.4-0.9,0.9c0,0.5,0.4,0.9,0.9,0.9h5.2c0.5,0,0.9-0.4,0.9-0.9
	C12.5,8.8,12.1,8.4,11.6,8.4z"/>
<path class="st2" d="M8.1,11.4H6.8c-0.5,0-0.9,0.4-0.9,0.9c0,0.5,0.4,0.9,0.9,0.9h1.2c0.5,0,0.9-0.4,0.9-0.9
	C9,11.8,8.6,11.4,8.1,11.4z"/>
<path class="st2" d="M24.5,30.8v1.2c0,0.5,0.4,0.9,0.9,0.9c0.5,0,0.9-0.4,0.9-0.9v-1.2c0-0.5-0.4-0.9-0.9-0.9
	C24.9,29.9,24.5,30.3,24.5,30.8z"/>
<path class="st2" d="M8.5,30.8v1.2c0,0.5,0.4,0.9,0.9,0.9c0.5,0,0.9-0.4,0.9-0.9v-1.2c0-0.5-0.4-0.9-0.9-0.9
	C8.9,29.9,8.5,30.3,8.5,30.8z"/>
</svg>
