<?xml version="1.0" encoding="utf-8"?>
<!-- Generator: Adobe Illustrator 22.0.1, SVG Export Plug-In . SVG Version: 6.00 Build 0)  -->
<svg version="1.1" id="Layer_1" xmlns="http://www.w3.org/2000/svg" xmlns:xlink="http://www.w3.org/1999/xlink" x="0px" y="0px"
	 viewBox="0 0 35 35" style="enable-background:new 0 0 35 35;" xml:space="preserve">
<style type="text/css">
	.st0{fill:#FFC10D;}
	.st1{fill:#D2ECF9;}
	.st2{fill:#194F82;}
	.st3{fill:#56ACE0;}
</style>
<path class="st0" d="M29.7,27.9c0.4,0,0.8-0.4,0.8-0.8V7.3c0-0.4-0.4-0.8-0.8-0.8h-24c-0.4,0-0.8,0.4-0.8,0.8v19.8
	c0,0.4,0.4,0.8,0.8,0.8C13.7,27.9,21.7,27.9,29.7,27.9z"/>
<rect x="18.3" y="9.7" class="st1" width="9" height="2.1"/>
<g>
	<path class="st2" d="M28.1,8.1H17.5c-0.4,0-0.8,0.4-0.8,0.8v3.7c0,0.4,0.4,0.8,0.8,0.8h10.6c0.4,0,0.8-0.4,0.8-0.8V8.9
		C28.9,8.4,28.6,8.1,28.1,8.1z M27.3,11.7h-9V9.7h9V11.7L27.3,11.7z"/>
	<path class="st2" d="M19.5,14.9h-0.4c-0.4,0-0.8,0.4-0.8,0.8c0,0.4,0.4,0.8,0.8,0.8h0.4c0.4,0,0.8-0.4,0.8-0.8
		C20.3,15.2,20,14.9,19.5,14.9z"/>
	<path class="st2" d="M23,14.9h-0.4c-0.4,0-0.8,0.4-0.8,0.8c0,0.4,0.4,0.8,0.8,0.8H23c0.4,0,0.8-0.4,0.8-0.8
		C23.8,15.2,23.5,14.9,23,14.9z"/>
	<path class="st2" d="M26.6,14.9h-0.4c-0.4,0-0.8,0.4-0.8,0.8c0,0.4,0.4,0.8,0.8,0.8h0.4c0.4,0,0.8-0.4,0.8-0.8
		C27.4,15.2,27,14.9,26.6,14.9z"/>
	<path class="st2" d="M19.5,18.1h-0.4c-0.4,0-0.8,0.4-0.8,0.8c0,0.4,0.4,0.8,0.8,0.8h0.4c0.4,0,0.8-0.4,0.8-0.8
		C20.3,18.4,20,18.1,19.5,18.1z"/>
	<path class="st2" d="M23,18.1h-0.4c-0.4,0-0.8,0.4-0.8,0.8c0,0.4,0.4,0.8,0.8,0.8H23c0.4,0,0.8-0.4,0.8-0.8
		C23.8,18.4,23.5,18.1,23,18.1z"/>
	<path class="st2" d="M26.6,18.1h-0.4c-0.4,0-0.8,0.4-0.8,0.8c0,0.4,0.4,0.8,0.8,0.8h0.4c0.4,0,0.8-0.4,0.8-0.8
		C27.4,18.4,27,18.1,26.6,18.1z"/>
	<path class="st2" d="M19.5,21.3h-0.4c-0.4,0-0.8,0.4-0.8,0.8c0,0.4,0.4,0.8,0.8,0.8h0.4c0.4,0,0.8-0.4,0.8-0.8S20,21.3,19.5,21.3z"
		/>
	<path class="st2" d="M23,21.3h-0.4c-0.4,0-0.8,0.4-0.8,0.8c0,0.4,0.4,0.8,0.8,0.8H23c0.4,0,0.8-0.4,0.8-0.8S23.5,21.3,23,21.3z"/>
	<path class="st2" d="M26.6,21.3h-0.4c-0.4,0-0.8,0.4-0.8,0.8c0,0.4,0.4,0.8,0.8,0.8h0.4c0.4,0,0.8-0.4,0.8-0.8S27,21.3,26.6,21.3z"
		/>
</g>
<path class="st3" d="M11.8,9.7H8.9c-0.4,0-0.8,0.4-0.8,0.8v11c0,0.4,0.4,0.8,0.8,0.8h2.9c0.4,0,0.8-0.4,0.8-0.8v-11
	C12.6,10,12.2,9.7,11.8,9.7z"/>
<g>
	<path class="st2" d="M11.8,8.1H8.9c-1.3,0-2.4,1.1-2.4,2.4v11c0,1.3,1.1,2.4,2.4,2.4h2.9c1.3,0,2.4-1.1,2.4-2.4v-11
		C14.2,9.2,13.1,8.1,11.8,8.1z M12.6,21.5c0,0.4-0.4,0.8-0.8,0.8H8.9c-0.4,0-0.8-0.4-0.8-0.8v-11c0-0.4,0.4-0.8,0.8-0.8h2.9
		c0.4,0,0.8,0.4,0.8,0.8L12.6,21.5L12.6,21.5L12.6,21.5z"/>
	<path class="st2" d="M29.7,4.9h-24c-1.3,0-2.4,1.1-2.4,2.4v19.8c0,1.3,1.1,2.4,2.4,2.4c8,0,16,0,24,0c1.3,0,2.4-1.1,2.4-2.4V7.3
		C32.1,5.9,31.1,4.9,29.7,4.9z M30.5,27.1c0,0.4-0.4,0.8-0.8,0.8h-2.4c-6.4,0-12.8,0-19.2,0H5.7c-0.4,0-0.8-0.4-0.8-0.8V7.3
		c0-0.4,0.4-0.8,0.8-0.8h24c0.4,0,0.8,0.4,0.8,0.8L30.5,27.1z"/>
</g>
</svg>
