<?xml version="1.0" encoding="UTF-8"?>
<!-- Generator: Adobe Illustrator 23.0.0, SVG Export Plug-In . SVG Version: 6.00 Build 0)  -->
<svg version="1.1" id="Layer_1" xmlns="http://www.w3.org/2000/svg" xmlns:xlink="http://www.w3.org/1999/xlink" x="0px" y="0px" viewBox="0 0 35 35" style="enable-background:new 0 0 35 35;" xml:space="preserve">
<style type="text/css">
	.st0{fill:#194F82;}
	.st1{fill:#FFFFFF;}
	.st2{fill:#56ACE0;stroke:#194F82;stroke-miterlimit:10;}
	.st3{fill:#FFC10D;}
</style>
<path class="st0" d="M27.2,23H7.3c-0.5,0-0.9-0.4-0.9-0.9V4.6c0-0.5,0.4-0.9,0.9-0.9h19.9c0.5,0,0.9,0.4,0.9,0.9v17.6  C28.1,22.7,27.7,23,27.2,23z"/>
<rect x="24.3" y="10.7" class="st1" width="2.7" height="4"/>
<rect x="24.3" y="5.3" class="st1" width="2.7" height="4.5"/>
<rect x="7.5" y="10.7" class="st1" width="2.7" height="4"/>
<rect x="7.5" y="5.3" class="st1" width="2.7" height="4.5"/>
<rect x="10.9" y="4.7" class="st2" width="12.8" height="16.8"/>
<rect x="4.3" y="15.3" class="st1" width="27.1" height="4.5"/>
<path class="st3" d="M3.9,19.1C3.4,19.1,3,19.5,3,20v8c0,0.5,0.4,0.9,0.9,0.9h27.5c0.5,0,0.9-0.4,0.9-0.9v-8c0-0.5-0.4-0.9-0.9-0.9"/>
<g>
	<path class="st0" d="M3.9,17.2c-1.5,0-2.7,1.2-2.7,2.7v8c0,1.5,1.2,2.7,2.7,2.7h0.9v0.6c0,0.5,0.4,0.9,0.9,0.9s0.9-0.4,0.9-0.9   v-0.6h22v0.6c0,0.5,0.4,0.9,0.9,0.9s0.9-0.4,0.9-0.9v-0.6h0.9c1.5,0,2.7-1.2,2.7-2.7v-8c0-1.5-1.2-2.7-2.8-2.7   C22.2,17.2,13,17.2,3.9,17.2z M32.3,28c0,0.5-0.4,0.9-0.9,0.9H3.9C3.4,28.9,3,28.5,3,28v-8c0-0.5,0.4-0.9,0.9-0.9   c9.1,0,18.3,0,27.4,0c0.5,0,0.9,0.4,0.9,0.9L32.3,28z"/>
	<path class="st0" d="M8.5,25.6H7.4C6.6,25.6,6,25,6,24.3v-0.6c0-0.7,0.6-1.3,1.3-1.3h1.2c0.7,0,1.3,0.6,1.3,1.3v0.6   C9.9,25,9.3,25.6,8.5,25.6z"/>
	<path class="st0" d="M13.2,25.6H12c-0.7,0-1.3-0.6-1.3-1.3v-0.6c0-0.7,0.6-1.3,1.3-1.3h1.2c0.7,0,1.3,0.6,1.3,1.3v0.6   C14.5,25,13.9,25.6,13.2,25.6z"/>
	<path class="st0" d="M17.8,25.6h-1.2c-0.7,0-1.3-0.6-1.3-1.3v-0.6c0-0.7,0.6-1.3,1.3-1.3h1.2c0.7,0,1.3,0.6,1.3,1.3v0.6   C19.2,25,18.6,25.6,17.8,25.6z"/>
</g>
<path class="st1" d="M14.4,6c2,1.4,4.1,2.8,6.1,4.2c-2,1.3-4.1,2.6-6.1,4C14.4,11.4,14.4,8.7,14.4,6z"/>
</svg>