<?xml version="1.0" encoding="utf-8"?>
<!-- Generator: Adobe Illustrator 23.0.0, SVG Export Plug-In . SVG Version: 6.00 Build 0)  -->
<svg version="1.1" id="Layer_1" xmlns="http://www.w3.org/2000/svg" xmlns:xlink="http://www.w3.org/1999/xlink" x="0px" y="0px"
	 viewBox="0 0 584 100" style="enable-background:new 0 0 584 100;" xml:space="preserve">
<style type="text/css">
	.st0{fill:url(#SVGID_5_);filter:url(#Adobe_OpacityMaskFilter);}
	.st1{opacity:0.21;mask:url(#mask0_2_);}
	.st2{clip-path:url(#SVGID_6_);}
	.st3{fill:#FFFFFF;}
	.st4{fill-rule:evenodd;clip-rule:evenodd;fill:#FFFFFF;}
	.st5{clip-path:url(#SVGID_8_);}
	.st6{fill:url(#SVGID_10_);filter:url(#Adobe_OpacityMaskFilter_1_);}
	.st7{opacity:0.21;mask:url(#mask0_1_);}
	.st8{clip-path:url(#SVGID_11_);}
	.st9{clip-path:url(#SVGID_12_);}
	.st10{fill:url(#SVGID_13_);filter:url(#Adobe_OpacityMaskFilter_2_);}
	.st11{opacity:0.21;mask:url(#mask0_3_);}
	.st12{clip-path:url(#SVGID_14_);}
	.st13{clip-path:url(#SVGID_15_);}
</style>
<g>
</g>
<defs>
	<filter id="Adobe_OpacityMaskFilter" filterUnits="userSpaceOnUse" x="3.9" y="-2" width="192.8" height="106.9">
		<feColorMatrix  type="matrix" values="1 0 0 0 0  0 1 0 0 0  0 0 1 0 0  0 0 0 1 0"/>
	</filter>
</defs>
<mask maskUnits="userSpaceOnUse" x="3.9" y="-2" width="192.8" height="106.9" id="mask0_2_">
	
		<linearGradient id="SVGID_5_" gradientUnits="userSpaceOnUse" x1="-55.812" y1="49.0529" x2="452.688" y2="49.0529" gradientTransform="matrix(1 0 0 -1 0 99.89)">
		<stop  offset="0" style="stop-color:#000000"/>
		<stop  offset="0.7207" style="stop-color:#C4C4C4;stop-opacity:0"/>
	</linearGradient>
	<rect x="-263.8" y="-4.2" class="st0" width="793.6" height="110"/>
</mask>
<g class="st1">
	<g>
		<defs>
			
				<rect id="SVGID_7_" x="23.9" y="70.8" transform="matrix(0.7094 -0.7048 0.7048 0.7094 -46.5402 46.0127)" width="17.3" height="17.3"/>
		</defs>
		<use xlink:href="#SVGID_7_"  style="overflow:visible;fill:#FFFFFF;"/>
		<clipPath id="SVGID_6_">
			<use xlink:href="#SVGID_7_"  style="overflow:visible;"/>
		</clipPath>
		<g class="st2">
			<path class="st3" d="M27.1,84.9c-0.5-0.5-0.5-1.3,0-1.7l0.9-0.9c0.5-0.5,1.3-0.5,1.7,0c0.5,0.5,0.5,1.3,0,1.7l-0.9,0.9
				C28.3,85.4,27.5,85.4,27.1,84.9z"/>
			<path class="st3" d="M30.1,81.8c-0.5-0.5-0.5-1.3,0-1.7l0.9-0.9c0.5-0.5,1.3-0.5,1.7,0c0.5,0.5,0.5,1.3,0,1.7l-0.9,0.9
				C31.4,82.3,30.6,82.3,30.1,81.8z"/>
			<path class="st3" d="M33.2,77c-0.5,0.5-0.5,1.3,0,1.7c0.5,0.5,1.3,0.5,1.7,0l3.3-3.3c0.5-0.5,0.5-1.3,0-1.7
				c-0.5-0.5-1.3-0.5-1.7,0L33.2,77z"/>
		</g>
	</g>
	<path class="st3" d="M6.2-0.3c-0.6-0.5-1.5-0.5-2,0.1s-0.5,1.5,0.1,2l2.1,1.8c0.6,0.5,1.5,0.5,2-0.1s0.5-1.5-0.1-2L6.2-0.3z"/>
	<path class="st3" d="M12.9,5.7c-0.6-0.5-1.5-0.5-2,0.1c-0.5,0.6-0.5,1.5,0.1,2l2.1,1.8c0.6,0.5,1.5,0.5,2-0.1
		c0.5-0.6,0.5-1.5-0.1-2L12.9,5.7z"/>
	<path class="st3" d="M10.8,3.4c-0.6-0.5-0.6-1.4-0.1-2l1.8-2.1c0.5-0.6,1.4-0.6,2-0.1c0.6,0.5,0.6,1.4,0.1,2l-1.8,2.1
		C12.2,3.8,11.4,3.9,10.8,3.4z"/>
	<path class="st3" d="M4.7,8.1c-0.5,0.6-0.5,1.5,0.1,2c0.6,0.5,1.5,0.5,2-0.1l1.8-2.1c0.5-0.6,0.5-1.5-0.1-2C8,5.4,7.1,5.5,6.6,6
		L4.7,8.1z"/>
	<path class="st3" d="M8.8,96.6c-0.5,0.5-0.5,1.3,0,1.7c0.5,0.5,1.3,0.5,1.7,0l0.4-0.4c0.5-0.5,0.5-1.3,0-1.7
		c-0.5-0.5-1.3-0.5-1.7,0L8.8,96.6z"/>
	<path class="st3" d="M163.2,3.9c-0.5,0.5-0.5,1.3,0,1.7c0.5,0.5,1.3,0.5,1.7,0l0.4-0.4c0.5-0.5,0.5-1.3,0-1.7
		c-0.5-0.5-1.3-0.5-1.7,0L163.2,3.9z"/>
	<path class="st4" d="M96.1-1.6C96.4-2,97-2.1,97.5-1.9l10.6,3.4c0.5,0.2,0.9,0.7,1,1.2c0,0.6-0.3,1.1-0.8,1.4l-4.4,2.2l-2,4.2
		c-0.2,0.5-0.8,0.8-1.3,0.8c-0.6,0-1.1-0.4-1.2-0.9L95.7-0.2C95.6-0.7,95.7-1.2,96.1-1.6z M99.3,1.6l1.6,4.5l0.7-1.5
		c0.1-0.3,0.4-0.5,0.6-0.6l1.8-0.9L99.3,1.6z"/>
	<path class="st3" d="M165.8,63.2c0.7,0,1.2,0.6,1.2,1.2s-0.6,1.2-1.2,1.2H158c-0.7,0-1.2-0.6-1.2-1.2s0.6-1.2,1.2-1.2H165.8z"/>
	<path class="st3" d="M170.4,67.2c0.7,0,1.2,0.6,1.2,1.2c0,0.7-0.6,1.2-1.2,1.2h-9.9c-0.7,0-1.2-0.6-1.2-1.2c0-0.7,0.6-1.2,1.2-1.2
		H170.4z"/>
	<g>
		<defs>
			
				<rect id="SVGID_9_" x="76.5" y="34" transform="matrix(0.6989 -0.7152 0.7152 0.6989 -4.8809 73.7569)" width="17.3" height="17.3"/>
		</defs>
		<use xlink:href="#SVGID_9_"  style="overflow:visible;fill:#FFFFFF;"/>
		<clipPath id="SVGID_8_">
			<use xlink:href="#SVGID_9_"  style="overflow:visible;"/>
		</clipPath>
		<g class="st5">
			<path class="st4" d="M82.4,49c-0.5-0.5-0.5-1.3,0-1.7l0.4-0.4c0.5-0.5,1.3-0.5,1.7,0c0.5,0.5,0.5,1.3,0,1.7L84.1,49
				C83.7,49.5,82.9,49.5,82.4,49z"/>
			<path class="st4" d="M85.2,46.2c-0.5-0.5-0.5-1.3,0-1.7l0.4-0.4c0.5-0.5,1.3-0.5,1.7,0c0.5,0.5,0.5,1.3,0,1.7l-0.4,0.4
				C86.5,46.6,85.7,46.6,85.2,46.2z"/>
			<path class="st4" d="M88,43.3c-0.5-0.5-0.5-1.3,0-1.7l0.4-0.4c0.5-0.5,1.3-0.5,1.7,0c0.5,0.5,0.5,1.3,0,1.7l-0.4,0.4
				C89.3,43.8,88.5,43.8,88,43.3z"/>
			<path class="st4" d="M90.8,40.4c-0.5-0.5-0.5-1.3,0-1.7l0.4-0.4c0.5-0.5,1.3-0.5,1.7,0c0.5,0.5,0.5,1.3,0,1.7l-0.4,0.4
				C92.1,40.9,91.3,40.9,90.8,40.4z"/>
			<path class="st4" d="M85.1,40.5c-0.5-0.5-0.5-1.3,0-1.7l1.9-2c0.5-0.5,1.3-0.5,1.7,0c0.5,0.5,0.5,1.3,0,1.7l-1.9,2
				C86.4,41,85.6,41,85.1,40.5z"/>
			<path class="st4" d="M78.2,47.6c-0.5-0.5-0.5-1.3,0-1.7l4.3-4.4c0.5-0.5,1.3-0.5,1.7,0c0.5,0.5,0.5,1.3,0,1.7L80,47.5
				C79.5,48,78.7,48,78.2,47.6z"/>
		</g>
	</g>
	<path class="st3" d="M194.1,34.8c-0.5,0.5-0.5,1.3,0,1.7c0.5,0.5,1.3,0.5,1.7,0l0.4-0.4c0.5-0.5,0.5-1.3,0-1.7
		c-0.5-0.5-1.3-0.5-1.7,0L194.1,34.8z"/>
	<path class="st4" d="M164.4,92.2c-2.8,0-5.1,2.3-5.1,5.1s2.3,5.1,5.1,5.1c0.7,0,1.4-0.1,2-0.4c0.6-0.3,1.4,0,1.6,0.7
		c0.3,0.6,0,1.4-0.7,1.6c-0.9,0.4-1.9,0.6-3,0.6c-4.2,0-7.6-3.4-7.6-7.6c0-4.2,3.4-7.6,7.6-7.6c4.2,0,7.6,3.4,7.6,7.6
		c0,1.1-0.2,2.1-0.6,3c-0.3,0.6-1,0.9-1.6,0.6c-0.6-0.3-0.9-1-0.6-1.6c0.3-0.6,0.4-1.3,0.4-2C169.5,94.5,167.2,92.2,164.4,92.2z"/>
</g>
<defs>
	<filter id="Adobe_OpacityMaskFilter_1_" filterUnits="userSpaceOnUse" x="193.1" y="-0.3" width="192.8" height="106.1">
		<feColorMatrix  type="matrix" values="1 0 0 0 0  0 1 0 0 0  0 0 1 0 0  0 0 0 1 0"/>
	</filter>
</defs>
<mask maskUnits="userSpaceOnUse" x="193.1" y="-0.3" width="192.8" height="106.1" id="mask0_1_">
	
		<linearGradient id="SVGID_10_" gradientUnits="userSpaceOnUse" x1="133.4467" y1="48.193" x2="641.9467" y2="48.193" gradientTransform="matrix(1 0 0 -1 0 99.89)">
		<stop  offset="0" style="stop-color:#000000"/>
		<stop  offset="0.7207" style="stop-color:#C4C4C4;stop-opacity:0"/>
	</linearGradient>
	<rect x="-74.6" y="-3.3" class="st6" width="793.6" height="110"/>
</mask>
<g class="st7">
	<g>
		<defs>
			
				<rect id="SVGID_2_" x="213.1" y="71.7" transform="matrix(0.7094 -0.7048 0.7048 0.7094 7.8505 179.6514)" width="17.3" height="17.3"/>
		</defs>
		<use xlink:href="#SVGID_2_"  style="overflow:visible;fill:#FFFFFF;"/>
		<clipPath id="SVGID_11_">
			<use xlink:href="#SVGID_2_"  style="overflow:visible;"/>
		</clipPath>
		<g class="st8">
			<path class="st3" d="M216.3,85.7c-0.5-0.5-0.5-1.3,0-1.7l0.9-0.9c0.5-0.5,1.3-0.5,1.7,0c0.5,0.5,0.5,1.3,0,1.7l-0.9,0.9
				C217.6,86.2,216.8,86.2,216.3,85.7z"/>
			<path class="st3" d="M219.4,82.7c-0.5-0.5-0.5-1.3,0-1.7l0.9-0.9c0.5-0.5,1.3-0.5,1.7,0c0.5,0.5,0.5,1.3,0,1.7l-0.9,0.9
				C220.6,83.2,219.9,83.2,219.4,82.7z"/>
			<path class="st3" d="M222.5,77.9c-0.5,0.5-0.5,1.3,0,1.7c0.5,0.5,1.3,0.5,1.7,0l3.3-3.3c0.5-0.5,0.5-1.3,0-1.7
				c-0.5-0.5-1.3-0.5-1.7,0L222.5,77.9z"/>
		</g>
	</g>
	<path class="st3" d="M195.4,0.6c-0.6-0.5-1.5-0.5-2,0.1c-0.5,0.6-0.5,1.5,0.1,2l2.1,1.8c0.6,0.5,1.5,0.5,2-0.1
		c0.5-0.6,0.5-1.5-0.1-2L195.4,0.6z"/>
	<path class="st3" d="M202.1,6.5c-0.6-0.5-1.5-0.5-2,0.1c-0.5,0.6-0.5,1.5,0.1,2l2.1,1.8c0.6,0.5,1.5,0.5,2-0.1
		c0.5-0.6,0.5-1.5-0.1-2L202.1,6.5z"/>
	<path class="st3" d="M200,4.2c-0.6-0.5-0.6-1.4-0.1-2l1.8-2.1c0.5-0.6,1.4-0.6,2-0.1c0.6,0.5,0.6,1.4,0.1,2L202,4.1
		C201.5,4.7,200.6,4.7,200,4.2z"/>
	<path class="st3" d="M194,9c-0.5,0.6-0.5,1.5,0.1,2c0.6,0.5,1.5,0.5,2-0.1l1.8-2.1c0.5-0.6,0.5-1.5-0.1-2c-0.6-0.5-1.5-0.5-2,0.1
		L194,9z"/>
	<path class="st3" d="M198.1,97.5c-0.5,0.5-0.5,1.3,0,1.7c0.5,0.5,1.3,0.5,1.7,0l0.4-0.4c0.5-0.5,0.5-1.3,0-1.7
		c-0.5-0.5-1.3-0.5-1.7,0L198.1,97.5z"/>
	<path class="st3" d="M352.5,4.8c-0.5,0.5-0.5,1.3,0,1.7c0.5,0.5,1.3,0.5,1.7,0l0.4-0.4c0.5-0.5,0.5-1.3,0-1.7
		c-0.5-0.5-1.3-0.5-1.7,0L352.5,4.8z"/>
	<path class="st4" d="M268.5,24.3c0.4-0.4,0.9-0.5,1.4-0.4l10.6,3.4c0.5,0.2,0.9,0.7,1,1.2c0,0.6-0.3,1.1-0.8,1.4l-4.4,2.2l-2,4.2
		c-0.2,0.5-0.8,0.8-1.3,0.8s-1.1-0.4-1.2-0.9l-3.6-10.4C268,25.2,268.1,24.7,268.5,24.3z M271.7,27.4l1.6,4.5l0.7-1.5
		c0.1-0.3,0.4-0.5,0.6-0.6l1.8-0.9L271.7,27.4z"/>
	<path class="st3" d="M355,64.1c0.7,0,1.2,0.6,1.2,1.2s-0.6,1.2-1.2,1.2h-7.7c-0.7,0-1.2-0.6-1.2-1.2s0.6-1.2,1.2-1.2H355z"/>
	<path class="st3" d="M359.7,68.1c0.7,0,1.2,0.6,1.2,1.2c0,0.7-0.6,1.2-1.2,1.2h-9.9c-0.7,0-1.2-0.6-1.2-1.2c0-0.7,0.6-1.2,1.2-1.2
		H359.7z"/>
	<g>
		<defs>
			
				<rect id="SVGID_1_" x="285" y="66.8" transform="matrix(0.6989 -0.7152 0.7152 0.6989 34.4798 232.7575)" width="17.3" height="17.3"/>
		</defs>
		<use xlink:href="#SVGID_1_"  style="overflow:visible;fill:#FFFFFF;"/>
		<clipPath id="SVGID_12_">
			<use xlink:href="#SVGID_1_"  style="overflow:visible;"/>
		</clipPath>
		<g class="st9">
			<path class="st4" d="M290.9,81.8c-0.5-0.5-0.5-1.3,0-1.7l0.4-0.4c0.5-0.5,1.3-0.5,1.7,0s0.5,1.3,0,1.7l-0.4,0.4
				C292.2,82.3,291.4,82.3,290.9,81.8z"/>
			<path class="st4" d="M293.7,78.9c-0.5-0.5-0.5-1.3,0-1.7l0.4-0.4c0.5-0.5,1.3-0.5,1.7,0s0.5,1.3,0,1.7l-0.4,0.4
				C295,79.4,294.2,79.4,293.7,78.9z"/>
			<path class="st4" d="M296.5,76.1c-0.5-0.5-0.5-1.3,0-1.7l0.4-0.4c0.5-0.5,1.3-0.5,1.7,0c0.5,0.5,0.5,1.3,0,1.7l-0.4,0.4
				C297.8,76.5,297,76.5,296.5,76.1z"/>
			<path class="st4" d="M299.3,73.2c-0.5-0.5-0.5-1.3,0-1.7l0.4-0.4c0.5-0.5,1.3-0.5,1.7,0c0.5,0.5,0.5,1.3,0,1.7l-0.4,0.4
				C300.6,73.6,299.8,73.7,299.3,73.2z"/>
			<path class="st4" d="M293.7,73.2c-0.5-0.5-0.5-1.3,0-1.7l1.9-2c0.5-0.5,1.3-0.5,1.7,0c0.5,0.5,0.5,1.3,0,1.7l-1.9,2
				C294.9,73.7,294.1,73.7,293.7,73.2z"/>
			<path class="st4" d="M286.7,80.3c-0.5-0.5-0.5-1.3,0-1.7l4.3-4.4c0.5-0.5,1.3-0.5,1.7,0c0.5,0.5,0.5,1.3,0,1.7l-4.3,4.4
				C288,80.8,287.2,80.8,286.7,80.3z"/>
		</g>
	</g>
	<path class="st3" d="M383.4,35.7c-0.5,0.5-0.5,1.3,0,1.7c0.5,0.5,1.3,0.5,1.7,0l0.4-0.4c0.5-0.5,0.5-1.3,0-1.7
		c-0.5-0.5-1.3-0.5-1.7,0L383.4,35.7z"/>
	<path class="st4" d="M353.6,93.1c-2.8,0-5.1,2.3-5.1,5.1s2.3,5.1,5.1,5.1c0.7,0,1.4-0.1,2-0.4c0.6-0.3,1.4,0,1.6,0.7
		c0.3,0.6,0,1.4-0.7,1.6c-0.9,0.4-1.9,0.6-3,0.6c-4.2,0-7.6-3.4-7.6-7.6c0-4.2,3.4-7.6,7.6-7.6c4.2,0,7.6,3.4,7.6,7.6
		c0,1.1-0.2,2.1-0.6,3c-0.3,0.6-1,0.9-1.6,0.6c-0.6-0.3-0.9-1-0.6-1.6c0.3-0.6,0.4-1.3,0.4-2C358.7,95.4,356.4,93.1,353.6,93.1z"/>
</g>
<defs>
	<filter id="Adobe_OpacityMaskFilter_2_" filterUnits="userSpaceOnUse" x="382" y="-4.4" width="194.4" height="105.4">
		<feColorMatrix  type="matrix" values="1 0 0 0 0  0 1 0 0 0  0 0 1 0 0  0 0 0 1 0"/>
	</filter>
</defs>
<mask maskUnits="userSpaceOnUse" x="382" y="-4.4" width="194.4" height="105.4" id="mask0_3_">
	
		<linearGradient id="SVGID_13_" gradientUnits="userSpaceOnUse" x1="316.6259" y1="33.9535" x2="825.1259" y2="33.9535" gradientTransform="matrix(-0.9984 5.569418e-02 5.569418e-02 0.9984 947.4406 -11.7245)">
		<stop  offset="0" style="stop-color:#000000"/>
		<stop  offset="0.7207" style="stop-color:#C4C4C4;stop-opacity:0"/>
	</linearGradient>
	<polygon class="st10" points="843.9,83.1 51.6,127.3 45.5,17.5 837.8,-26.7 	"/>
</mask>
<g class="st11">
	<g>
		<defs>
			
				<rect id="SVGID_4_" x="534.8" y="7.5" transform="matrix(0.6691 -0.7432 0.7432 0.6691 167.8199 409.2116)" width="17.3" height="17.3"/>
		</defs>
		<use xlink:href="#SVGID_4_"  style="overflow:visible;fill:#FFFFFF;"/>
		<clipPath id="SVGID_14_">
			<use xlink:href="#SVGID_4_"  style="overflow:visible;"/>
		</clipPath>
		<g class="st12">
			<path class="st3" d="M548.6,10.4c0.5,0.5,0.5,1.2,0.1,1.7l-0.8,0.9c-0.5,0.5-1.2,0.5-1.7,0.1c-0.5-0.5-0.5-1.2-0.1-1.7l0.8-0.9
				C547.3,10,548.1,10,548.6,10.4z"/>
			<path class="st3" d="M545.7,13.6c0.5,0.5,0.5,1.2,0.1,1.7l-0.8,0.9c-0.5,0.5-1.2,0.5-1.7,0.1c-0.5-0.5-0.5-1.2-0.1-1.7l0.8-0.9
				C544.4,13.2,545.2,13.2,545.7,13.6z"/>
			<path class="st3" d="M542.9,18.6c0.5-0.5,0.4-1.3-0.1-1.7c-0.5-0.5-1.3-0.4-1.7,0.1l-3.1,3.4c-0.5,0.5-0.4,1.3,0.1,1.7
				c0.5,0.5,1.3,0.4,1.7-0.1L542.9,18.6z"/>
		</g>
	</g>
	<path class="st3" d="M574.2,94.3c0.6,0.5,1.5,0.4,2-0.2c0.5-0.6,0.4-1.5-0.2-2l-2.2-1.7c-0.6-0.5-1.5-0.4-2,0.2s-0.4,1.5,0.2,2
		L574.2,94.3z"/>
	<path class="st3" d="M567.1,88.8c0.6,0.5,1.5,0.4,2-0.2c0.5-0.6,0.4-1.5-0.2-2l-2.2-1.7c-0.6-0.5-1.5-0.4-2,0.2s-0.4,1.5,0.2,2
		L567.1,88.8z"/>
	<path class="st3" d="M569.4,90.9c0.6,0.5,0.7,1.4,0.2,2l-1.7,2.2c-0.5,0.6-1.4,0.7-2,0.2c-0.6-0.5-0.7-1.4-0.2-2l1.7-2.2
		C567.9,90.5,568.8,90.4,569.4,90.9z"/>
	<path class="st3" d="M575.1,85.8c0.5-0.6,0.4-1.5-0.2-2s-1.5-0.4-2,0.2l-1.7,2.2c-0.5,0.6-0.4,1.5,0.2,2c0.6,0.5,1.5,0.4,2-0.2
		L575.1,85.8z"/>
	<path class="st3" d="M566.1-2.3c0.5-0.5,0.4-1.3-0.1-1.7c-0.5-0.5-1.3-0.4-1.7,0.1l-0.4,0.5c-0.5,0.5-0.4,1.3,0.1,1.7
		c0.5,0.5,1.3,0.4,1.7-0.1L566.1-2.3z"/>
	<path class="st3" d="M417.1,98.9c0.5-0.5,0.4-1.3-0.1-1.7c-0.5-0.5-1.3-0.4-1.7,0.1l-0.4,0.5c-0.5,0.5-0.4,1.3,0.1,1.7
		c0.5,0.5,1.3,0.4,1.7-0.1L417.1,98.9z"/>
	<path class="st4" d="M484.5,100.6c-0.3,0.4-0.9,0.6-1.4,0.4l-10.8-2.8c-0.5-0.1-1-0.6-1-1.2c-0.1-0.6,0.2-1.1,0.7-1.4l4.2-2.4
		L478,89c0.2-0.5,0.7-0.9,1.3-0.9c0.6,0,1.1,0.3,1.3,0.9l4.2,10.2C484.9,99.6,484.8,100.2,484.5,100.6z M481.1,97.6l-1.8-4.5
		l-0.6,1.6c-0.1,0.3-0.3,0.5-0.6,0.7l-1.7,1L481.1,97.6z"/>
	<path class="st3" d="M411.3,39.8c-0.7,0-1.3-0.5-1.3-1.2s0.5-1.3,1.2-1.3l7.7-0.4c0.7,0,1.3,0.5,1.3,1.2c0,0.7-0.5,1.3-1.2,1.3
		L411.3,39.8z"/>
	<path class="st3" d="M406.4,36.1c-0.7,0-1.3-0.5-1.3-1.2c0-0.7,0.5-1.3,1.2-1.3l9.9-0.6c0.7,0,1.3,0.5,1.3,1.2
		c0,0.7-0.5,1.3-1.2,1.3L406.4,36.1z"/>
	<g>
		<defs>
			
				<rect id="SVGID_3_" x="484.3" y="47.2" transform="matrix(0.658 -0.753 0.753 0.658 126.5531 390.2583)" width="17.3" height="17.3"/>
		</defs>
		<use xlink:href="#SVGID_3_"  style="overflow:visible;fill:#FFFFFF;"/>
		<clipPath id="SVGID_15_">
			<use xlink:href="#SVGID_3_"  style="overflow:visible;"/>
		</clipPath>
		<g class="st13">
			<path class="st4" d="M495.3,49.3c0.5,0.4,0.6,1.2,0.1,1.7l-0.4,0.5c-0.4,0.5-1.2,0.6-1.7,0.1c-0.5-0.4-0.6-1.2-0.1-1.7l0.4-0.5
				C494,48.9,494.8,48.9,495.3,49.3z"/>
			<path class="st4" d="M492.7,52.3c0.5,0.4,0.6,1.2,0.1,1.7l-0.4,0.5c-0.4,0.5-1.2,0.6-1.7,0.1c-0.5-0.4-0.6-1.2-0.1-1.7l0.4-0.5
				C491.4,51.9,492.2,51.9,492.7,52.3z"/>
			<path class="st4" d="M490,55.3c0.5,0.4,0.6,1.2,0.1,1.7l-0.4,0.5c-0.4,0.5-1.2,0.6-1.7,0.1c-0.5-0.4-0.6-1.2-0.1-1.7l0.4-0.5
				C488.7,55,489.5,54.9,490,55.3z"/>
			<path class="st4" d="M487.4,58.4c0.5,0.4,0.6,1.2,0.1,1.7l-0.4,0.5c-0.4,0.5-1.2,0.6-1.7,0.1c-0.5-0.4-0.6-1.2-0.1-1.7l0.4-0.5
				C486.1,58,486.9,57.9,487.4,58.4z"/>
			<path class="st4" d="M493,58c0.5,0.4,0.6,1.2,0.1,1.7l-1.8,2.1c-0.4,0.5-1.2,0.6-1.7,0.1c-0.5-0.4-0.6-1.2-0.1-1.7l1.8-2.1
				C491.8,57.6,492.5,57.5,493,58z"/>
			<path class="st4" d="M499.5,50.5c0.5,0.4,0.6,1.2,0.1,1.7l-4.1,4.7c-0.4,0.5-1.2,0.6-1.7,0.1c-0.5-0.4-0.6-1.2-0.1-1.7l4.1-4.7
				C498.3,50.2,499,50.1,499.5,50.5z"/>
		</g>
	</g>
	<path class="st3" d="M384.5,69.7c0.5-0.5,0.4-1.3-0.1-1.7c-0.5-0.5-1.3-0.4-1.7,0.1l-0.4,0.5c-0.5,0.5-0.4,1.3,0.1,1.7
		c0.5,0.5,1.3,0.4,1.7-0.1L384.5,69.7z"/>
	<path class="st4" d="M411,10.7c2.8-0.2,5-2.6,4.8-5.4c-0.2-2.8-2.6-5-5.4-4.8c-0.7,0-1.4,0.2-2,0.5c-0.6,0.3-1.4,0.1-1.7-0.6
		c-0.3-0.6-0.1-1.4,0.6-1.7c0.9-0.4,1.9-0.7,2.9-0.8c4.2-0.2,7.7,3,8,7.1c0.2,4.2-3,7.7-7.1,8c-4.2,0.2-7.7-3-8-7.1
		C403.2,5,403.3,4,403.7,3c0.2-0.6,0.9-1,1.6-0.7c0.6,0.2,1,0.9,0.7,1.6c-0.2,0.6-0.3,1.3-0.3,2.1C405.8,8.7,408.2,10.9,411,10.7z"
		/>
</g>
</svg>
