<?xml version="1.0" encoding="utf-8"?>
<!-- Generator: Adobe Illustrator 23.0.0, SVG Export Plug-In . SVG Version: 6.00 Build 0)  -->
<svg version="1.1" id="Layer_1" xmlns="http://www.w3.org/2000/svg" xmlns:xlink="http://www.w3.org/1999/xlink" x="0px" y="0px"
	 viewBox="0 0 300 300" style="enable-background:new 0 0 300 300;" xml:space="preserve">
<style type="text/css">
	.st0{fill:#263C94;}
	.st1{fill-rule:evenodd;clip-rule:evenodd;fill:#263C94;}
	.st2{fill:none;stroke:#263C94;stroke-miterlimit:10;}
</style>
<g>
	<path id="XMLID_40_" class="st0" d="M174.1,73.7c-0.2,0-0.2,0-0.4,0c-0.4,0-0.8,0.1-1.4,0.1c-1.2,0.1-1.9,0.3-2.8,0.8
		c-0.8,0.5-1.4,1.1-2,1.8c-0.5,0.8-0.9,1.6-1,2.6c-0.1,0.8-0.3,1.7-0.2,2.7l0,0l0,0c0.1,0.8,0.3,1.7,0.6,2.3c0.3,0.8,0.9,1.4,1.5,2
		c0.7,0.8,1.3,1.1,2.2,1.3c0.8,0.3,1.7,0.5,2.9,0.4c1.2-0.1,2.1-0.4,2.9-0.6c0.8-0.3,1.3-0.9,1.6-1.3c0.5-0.8,0.7-1.6,0.9-2
		c0.3-1,1.4-2,4.2-2.8c0.1,0.8,1,5.1-1.9,8.7c-3.6,4.4-10.5,4.9-14.8,1.9c-4.4-3.2-5.1-9.3-5.1-9.7c-0.1-1-0.7-6.4,3.4-10.3
		c3.5-3.6,9.5-4.6,13.6-1.6c3.1,2.1,3.9,5.5,4.2,6.6c-0.6,0.4-1.6,1.1-2.8,0.8c-0.8-0.1-1.5-0.7-2.2-1.3
		C176.2,75.1,175.6,74,174.1,73.7z"/>
	<g id="XMLID_32_">
		<path id="XMLID_38_" class="st0" d="M30.3,70.2c1.5-3.2,3.2-6.5,4.7-9.7c0.2-0.4,0.6-0.6,1-0.7c0.8-0.1,1.7-0.1,2.5-0.2
			c2.5-0.2,5.2-0.4,7.7-0.6c0.6,0,1-0.1,1.2,0.5c0.7,1.2,1.6,2.2,2.1,3.4c1.1,1.6,2.4,3.5,3.5,5.2c0.4,0.6,0.5,1.2,0.1,1.9
			c-1.2,2.4-2.4,4.8-3.6,7.4c-0.3,0.8-0.7,1.6-1.2,2.4l0,0c-0.2,0.2-0.6,0.2-1,0.3c-3.3,0.2-6.6,0.5-10,0.7
			c-0.8,0.1-1.2-0.1-1.6-0.7c-1.3-2-2.6-3.9-3.9-5.9c-0.7-1-1.3-1.8-1.7-2.8C30.1,70.8,30.1,70.6,30.3,70.2z M34.1,71.3
			c1.1,1.6,2.1,3.4,3.3,5c0.2,0.4,0.7,0.8,1.1,0.9c0.6,0.4,1.2,0.3,1.4,0.3c1.2-0.1,3.3-0.2,6.2-0.4c0.2,0,0.6,0,0.8-0.3l0.2-0.2
			c0.2-0.2,0.2-0.6,0.4-0.6c0.9-1.8,1.8-3.8,2.7-5.6c0.3-0.8,0.5-1.4-0.2-2.1c-0.9-1.3-1.3-1.8-1.6-2.2c-0.7-0.8-0.9-1.3-1.1-1.4
			c-0.2-0.4-0.7-0.8-1.1-1.4c-0.4-0.6-1.1-0.9-1.8-0.9c-2.1,0.2-4.2,0.3-6.4,0.5c-0.8,0.1-1.2,0.3-1.4,1.1c-1.1,2-2,4.1-2.9,6
			C33.6,70.2,33.6,70.8,34.1,71.3z"/>
		<path id="XMLID_1614_" class="st0" d="M49.8,82.4c-0.4-0.6-0.9-0.7-1.6-0.7c-3.7,0.3-7.3,0.5-11,0.8c-0.4,0-1,0.1-1.4,0.1
			c-0.2-0.2-0.2-0.4-0.4-0.7c-2.4-3.5-4.7-7.2-7.2-10.7c-0.4-0.6-0.5-1-0.1-1.5c0.3-0.8,0.7-1.6,1.2-2.4c1.5-2.8,2.7-5.6,4-8.4
			c0.2-0.4-0.1-0.8-0.3-1.2c-1.9-2.8-3.7-5.5-5.6-8.3c-0.4-0.6-0.9-0.9-1.6-0.9c-3.1,0.2-6.2,0.4-9.5,0.7c-0.8,0.1-1.2,0.1-1.4,0.1
			c-0.4,0.6-0.5,0.8-0.9,1.6c-0.2,0.6-0.5,1-0.7,1.5c-1.2,2.6-1.8,4-2.5,5.2c-0.4,0.6-0.7,1.3-0.9,1.8c-0.3,0.8-0.3,1.4,0.1,1.9
			c2.1,3.2,4.2,6.3,6.3,9.4c0.4,0.6,0.5,1,0.1,1.5c-0.9,1.6-1.5,3.2-2.2,4.6c-0.9,1.8-1.8,3.8-2.7,5.6c-0.4,0.6-0.3,1.2,0.1,1.7
			c1.9,2.8,3.9,5.5,5.6,8.5c0.2,0.2,0.2,0.4,0.4,0.6l0,0c0.4,0.2,0.8,0.1,1.2,0.1c3.7-0.3,7.3-0.5,11-0.8c0.8-0.1,1.2,0.1,1.6,0.9
			c1.3,2,2.8,3.9,3.9,5.9c0.5,0.8,1.3,1.8,2.1,3.4c0.2,0.2,0.2,0.4,0.6,0.6c0.4,0.2,0.6,0.4,0.8,0.5c5.8-0.4,9.8-0.7,10.4-0.8
			c0,0,0.4,0,0.6-0.2c0.2,0,0.4-0.2,0.4-0.4c1.5-3.2,3-6.4,4.5-9.5c0.2-0.4,0.1-0.8-0.1-1.2C53.6,88.1,51.6,85.3,49.8,82.4z
			 M52.1,92.8c-0.9,1.8-1.7,3.4-2.5,5.2c-0.2,0.4-0.3,0.8-0.9,1.3c-0.6,0.2-1.2,0.3-1.5,0.3c-1.9,0.1-4.1,0.3-6,0.4
			c-0.2,0-0.6,0-1-0.3c-0.2-0.2-0.4-0.4-0.4-0.4c-0.7-1-1.3-1.8-1.7-2.8c-1.6-2.2-3-4.4-4.6-6.8c-0.4-0.6-0.9-0.9-1.6-0.9
			c-0.7,0.1-10.6,1-11.6,0.8c-0.4,0.2-0.6,0.2-0.8,0.3c-0.4-0.2-0.6-0.6-0.9-0.7c-0.5-1-1.7-2.6-2.6-3.7c-0.2-0.6-0.7-1-1.1-1.4
			c-0.5-0.8-0.7-1.4-0.2-2.1c0.7-1.3,0.9-1.8,1.2-2.6c0.7-0.9,0.7-0.9,1.3-1.8c2.3-5,2.5-5,2.5-5c0.5-1,0.5-1.9-0.2-2.9
			c-1.9-2.8-3.9-5.7-5.8-8.5c-0.5-0.8-0.7-1.5-0.2-2.3c1.5-3,2.2-4.4,2.4-4.8c0.2-0.6,0.3-1.2,0.9-1.6c0.6-0.2,1-0.3,1.4-0.3
			c2.9-0.2,5-0.4,6-0.4c0.2,0,0.6,0,1.2,0.1c0.4,0.2,0.6,0.4,0.9,0.9c1.1,1.6,2.1,3.4,3.5,5c0.5,0.8,0.5,1.5,0.2,2.3
			c-0.7,1.5-1.2,2.6-1.8,4c-0.5,1-0.3,0.8-0.9,1.8c-0.9,1.5-1.2,2.4-2,4.3c-0.4,0.6-0.1,1.2,0.1,1.7c1.6,2.2,3,4.2,4.4,6.5
			c1.3,2,2.8,4,4.2,6.1c0.4,0.6,0.9,1.3,1.8,1.3c1.9-0.1,2.9-0.2,5.4-0.4c1.2-0.1,1-0.1,2.1-0.2c0.8-0.1,1.7-0.1,3.7-0.3
			c0.8-0.1,1.4,0.1,1.8,0.9c1.3,1.8,2.4,3.5,3.7,5.3C52.4,91.5,52.4,92,52.1,92.8z"/>
		<path id="XMLID_37_" class="st0" d="M55,47c0.6,0,1-0.1,1.5-0.1c2.9-0.2,5.8-0.4,8.9-0.6c0.4,0,0.8-0.1,1.2,0.3l0,0
			c0.2,0.2,0.4,0.6,0.7,1c1.7,2.6,3.5,5.2,5.2,7.5c0.5,0.8,0.7,1.4,0.2,2.1c-1.5,3-2.9,5.8-4.4,8.8c-0.4,0.6-0.7,0.9-1.3,0.9
			c-2.1,0.2-4.1,0.3-6.2,0.4c-1.4,0.1-2.5,0.2-3.9,0.3c-0.4,0-1,0.1-1.2-0.5l0,0c-0.9-1.1-1.6-2.2-2.3-3.3c-1.3-1.8-2.4-3.5-3.7-5.3
			c-0.2-0.4-0.5-0.8-0.3-1.2c1.5-3.2,3.2-6.5,4.7-9.7C54.2,47.2,54.6,47,55,47z M53.3,58.7c1.1,1.6,2.1,3.4,3.5,5
			c0.2,0.2,0.4,0.6,0.9,0.7c0.4,0.2,0.6,0.2,0.8,0.1c0.4,0,0.8-0.1,6.2-0.4c0.2,0,0.8-0.1,1.4-0.5c0.2-0.2,0.6-0.4,0.7-0.9
			c0.9-1.8,1.6-3.8,2.7-5.6c0.4-0.6,0.3-1.4-0.1-1.9c-1.3-2-1.7-2.6-2.1-3.4c0,0-0.7-1-1.7-2.4c0,0-0.2-0.2-0.4-0.4
			c-0.4-0.2-0.8-0.1-1-0.1c-2.1,0.4-4.1,0.3-6.2,0.4c-0.8,0.1-1.5,0.5-1.8,1.3c-0.9,1.8-1.6,3.6-2.7,5.4
			C52.6,57.2,52.7,57.8,53.3,58.7z"/>
		<path id="XMLID_35_" class="st0" d="M51.9,46.8c-1.5,3-3.1,6.2-4.5,9.3c-0.2,0.6-0.5,0.8-1.1,0.9c-3.5,0.3-6.8,0.5-10.2,0.7
			c-0.6,0-1.2-0.1-1.5-0.7c-0.7-1.2-1.5-2-2.1-3.2c-1.1-1.6-2.4-3.5-3.5-5.2c-0.2-0.4-0.5-0.8-0.1-1.4c1.5-3,3.1-6.2,4.5-9.3
			c0.4-0.6,0.7-0.9,1.4-0.9c1.7-0.1,3.3-0.2,5-0.4c1.5-0.1,3.1-0.2,4.6-0.3c1-0.1,1.5,0.3,2,1.1c1.7,2.8,3.7,5.3,5.4,7.9
			C52.2,45.8,52.2,46.2,51.9,46.8z M49,45.4c-1.3-2-2.8-4-4.2-6.1c-0.4-0.6-0.9-0.9-1.6-0.9c-2.3,0.2-4.6,0.3-7.1,0.5
			c-0.8,0.1-1.2,0.3-1.4,0.9c-1,2.4-2,4.6-3.2,6.9c-0.2,0.4-0.3,1,0.1,1.4c1.6,2.2,2.8,4.2,4.4,6.5c0.2,0.4,0.6,0.6,1.2,0.5
			c1.4-0.1,2.5-0.2,3.9-0.3c1.2-0.1,2.5-0.2,3.7-0.3c0.6,0,1-0.3,1.3-0.9c1-2.2,2.2-4.4,3.2-6.7C49.3,46.4,49.3,46,49,45.4z"/>
		<path id="XMLID_34_" class="st0" d="M36,52.2"/>
	</g>
	<g id="XMLID_1602_">
		<path id="XMLID_1605_" class="st0" d="M85.5,74.7L85.5,74.7L85.5,74.7L85.5,74.7z"/>
		<path id="XMLID_1604_" class="st0" d="M116,66.7c-0.2-0.2-0.4-0.2-0.4-0.2c-0.6,0-12.4,0.9-12.9,0.9c-5.6,0.4-7.7,0.6-13.3,1
			c-0.6,0-3.1,0.2-3.7,0.3c0,0-0.2,0-0.4,0.2c-0.2,0.2-0.2,0.2-0.2,0.4c0.1,1.2,0.2,2.3,0.3,3.7c0,0,0,0.2,0.2,0.4
			c0.2,0.2,0.6,0.2,0.6,0.2c1-0.1,4.1-0.3,5-0.4c1.5-0.1-0.6,0,1-0.1c0.6,8.7,1.3,17.4,1.9,26c0,0,0,0.2,0.2,0.4
			c0.2,0.2,0.4,0.2,0.6,0.2c0.6,0,1.2-0.1,1.7-0.1c0.5,0,1.2-0.1,1.7-0.1c0,0,0.4,0,0.6-0.2s0.2-0.2,0.2-0.4
			c-0.6-8.7-1.3-17.4-1.9-26c1.5-0.1,2.9-0.2,4.4-0.3c1-0.1,13.3-1,14.5-1.1c0,0,0.4,0,0.6-0.2c0.2-0.2,0.2-0.2,0.2-0.4
			c-0.1-1.2-0.2-2.3-0.3-3.7C116.2,66.9,116.2,66.7,116,66.7z"/>
		<path id="XMLID_1603_" class="st0" d="M105.6,73.3L105.6,73.3L105.6,73.3L105.6,73.3z"/>
	</g>
	<path id="XMLID_31_" class="st0" d="M133.3,96.4l-3.3,0.2c-0.4,0-0.8-0.3-0.9-0.7L127,66.3c0-0.4,0.3-0.8,0.7-0.9l3.3-0.2
		c0.4,0,0.8,0.3,0.9,0.7l2.2,29.6C134,96,133.7,96.4,133.3,96.4z"/>
	<path id="XMLID_1598_" class="st0" d="M158.3,82.8c-3,0.8-4,2-4.2,2.8c-0.2,0.6-0.3,1.2-0.9,2c-0.4,0.6-0.9,1.1-1.6,1.3
		c-0.8,0.3-1.7,0.5-2.9,0.6c-1,0.1-1.9-0.1-2.9-0.4c-0.8-0.3-1.6-0.7-2.2-1.3c-0.7-0.8-1.1-1.3-1.5-2c-0.3-0.8-0.5-1.5-0.6-2.3l0,0
		l0-0.2c0-0.2,0,0,0-0.2c5.6-0.4,11-0.8,16.6-1.2c0-0.2,0.3-6.6-4.8-9.9c-4.4-3-10.5-1.5-13.6,1.6c-3.8,3.8-3.4,9.2-3.4,10.3
		c0,0.4,0.7,6.6,5.1,9.7c4.1,3,11.2,2.5,14.8-1.9C159.1,87.9,158.4,83.6,158.3,82.8z M144.9,76.2c0.8-0.5,1.7-0.7,2.8-0.8
		c0,0,0.8-0.1,1.4-0.1c2.1,0.2,3.7,2.2,4.1,2.8l-10.6,0.8c0.2-0.4,0.4-0.6,0.5-1C143.5,77.2,144,76.7,144.9,76.2z"/>
	<path id="XMLID_27_" class="st0" d="M244.1,69.9c0,0-0.3-0.8-0.7-1.4c-1.9-3.2-5.5-4.2-5.5-4.2c-3.6-0.9-7.5,0.3-9.4,3
		c-0.2,0.2-0.2,0.4-0.4,0.4c-0.2-0.2-0.2-0.4-0.4-0.4c-2.3-2.3-6.4-3-9.7-1.6c0,0-3.6,1.7-4.9,5c-0.3,0.8-0.5,1.4-0.5,1.4
		c0,0.6-0.1,1-0.1,1.5c0.4,5.2,0.7,10.2,1.1,15.4c0,0,0,0.2,0.2,0.4s0.4,0.2,0.4,0.2c1.7-0.1,3.1-0.2,3.5-0.3c0.2,0,0.4,0,0.6-0.2
		s0.2-0.4,0.2-0.6c-0.3-4.2-0.6-8.5-0.9-12.7c0-0.2,0-0.4,0-0.6l0,0l0,0c0-0.6-0.1-1.4,0.1-1.9c0-0.2,0-0.4,0.2-0.6
		c0.2-0.6,0.5-1.2,0.5-1.2c0.4-0.6,2.1-2.7,4.6-2.2c1.9,0.5,2.9,2.1,3.3,2.7c0,0.2,0,0.2,0,0.2c0.3,0.8,0.5,1.5,0.5,1.9
		c0.3,4.6,0.7,9.3,1,14.1c0,0,0,0.2,0.2,0.4s0.4,0.2,0.4,0.2c1-0.1,1.7-0.1,2.7-0.2c0.2,0,0.4,0,0.4-0.2c0.2-0.2,0.2-0.4,0.2-0.4
		c-0.3-4.6-0.7-9.3-1-14.1c0-0.6-0.1-1.2,0.3-1.9l0-0.2c0.1-0.8,1-2.6,2.9-3.1c2.3-0.8,4.5,0.9,4.9,1.5c0,0.2,0.4,0.6,0.7,1.2
		c0,0.2,0.2,0.4,0.2,0.6c0.2,0.6,0.3,1.2,0.3,1.9l0,0l0,0c0,0.2,0,0.4,0,0.6c0.3,4.2,0.6,8.5,0.9,12.7c0,0.2,0,0.4,0.2,0.6
		s0.4,0.2,0.6,0.2c0.4,0,1.7-0.1,3.5-0.3c0,0,0.2,0,0.4-0.2s0.2-0.4,0.2-0.4c-0.4-5.2-0.7-10.2-1.1-15.4
		C244.2,70.9,244.2,70.3,244.1,69.9z"/>
	<path id="XMLID_25_" class="st0" d="M124.3,85.3c-3,0.8-4,2-4.2,2.8c-0.2,0.6-0.3,1.2-0.9,2c-0.4,0.6-0.9,1.1-1.6,1.3
		c-0.8,0.3-1.7,0.5-2.9,0.6c-1,0.1-1.9-0.1-2.9-0.4c-0.8-0.3-1.6-0.7-2.2-1.3s-1.1-1.3-1.5-2c-0.3-0.8-0.5-1.7-0.6-2.5l0,0l0,0
		c0-0.2,0,0,0-0.2c5.6-0.4,11-0.8,16.6-1.2c0-0.2,0.3-6.6-4.8-9.9c-4.4-3-10.5-1.5-13.6,1.6c-3.8,3.8-3.4,9.2-3.4,10.3
		c0,0.4,0.7,6.6,5.1,9.7c4.1,3,11.2,2.5,14.8-1.9C125.3,90.4,124.6,86,124.3,85.3z M110.8,78.7c0.8-0.5,1.7-0.7,2.8-0.8
		c0,0,0.8-0.1,1.4-0.1c2.1,0.2,3.7,2.2,4.1,2.8l-10.6,0.8c0.2-0.4,0.4-0.6,0.5-1C109.6,79.7,110.2,79.2,110.8,78.7z"/>
	<g id="XMLID_18_">
		<path id="XMLID_22_" class="st0" d="M62.3,76.4L62.3,76.4L62.3,76.4L62.3,76.4z"/>
		<path id="XMLID_21_" class="st0" d="M64,70.1c0.9,1.4,1.9,3,2.8,4.4c1.2-0.1,2.7-0.2,3.9-0.3c0.6,8.7,1.3,17.4,1.9,26
			c0,0,0,0.2,0.2,0.4s0.4,0.2,0.4,0.2c1.2-0.1,2.5-0.2,3.7-0.3c0,0,0.4,0,0.6-0.2s0.2-0.2,0.2-0.4c-0.6-8.7-1.3-17.4-1.9-26
			c2.5-0.2,5-0.4,7.5-0.5c0,0,0.4,0,0.6-0.2c0.2-0.2,0.2-0.2,0.2-0.4c-0.1-1.2-0.2-2.3-0.3-3.7c0,0,0-0.2-0.2-0.4
			c-0.2-0.2-0.4-0.2-0.4-0.2C76.7,69.2,70.2,69.6,64,70.1z"/>
	</g>
	<path id="XMLID_17_" class="st0" d="M63.5,101.3l-3.3,0.2c-0.4,0-0.8-0.3-0.9-0.7l-1.3-18.3l4.8-0.3l1.3,18.3
		C64.3,101,63.9,101.3,63.5,101.3z"/>
	<path id="XMLID_11_" class="st0" d="M65.3,74.6c-0.7-1-1.1-1.6-1.7-2.6c-0.2-0.6-0.7-1.2-1.1-1.6c-0.2-0.2-0.4-0.2-0.6-0.2
		c-1.2,0.1-2.5,0.2-3.7,0.3c-0.4,0-0.8,0.1-1.2,0.1c-0.2,0-0.4,0-0.6,0.2c-0.7,1.6-1.5,3.2-2.2,4.8c-0.2,0.2,0,0.4,0,0.6
		c0.2,0.4,0.7,1,0.9,1.3c0.7,1,1.3,1.8,1.9,3c0.2,0.4,0.4,0.4,0.8,0.3c1.5-0.1,3.1-0.2,4.8-0.3c0.2,0,0.4,0,0.4,0l0,0
		c0.2-0.4,0.3-0.8,0.5-1.2c0.5-1.2,1.2-2.4,1.6-3.6C65.6,75.2,65.5,75,65.3,74.6z M63.1,75.6c-0.4,0.6-0.7,1.5-1.1,2
		c-0.2,0.2-0.2,0.4-0.4,0.6l0,0l-0.2,0c-1,0.1-1.7,0.1-2.7,0.2c-0.2,0-0.2,0-0.4-0.2c-0.4-0.6-0.7-1.2-1.1-1.6
		C57,76.4,57,76,56.8,75.8l0-0.2c0.3-0.8,0.9-1.8,1.2-2.6c0-0.2,0.2-0.2,0.2-0.2c0.2,0,0.4,0,0.6,0c0.6,0,1.4-0.1,1.9-0.1
		c0.2,0,0.2,0,0.4,0.2c0.2,0.4,0.4,0.6,0.7,1c0.2,0.6,0.7,1,0.9,1.4C63,75.2,63.1,75.4,63.1,75.6z"/>
	<g id="XMLID_3_">
		<g>
			<path id="XMLID_55_" class="st0" d="M195.2,72.6c0.4-0.2,0.8-0.5,1.2-0.5l-5.4-3.1c-0.4,0.2-0.6,0.4-0.9,0.9
				c-0.6,0.6-1.1,1.3-1.4,1.6l4.8,2.8C193.9,73.6,194.4,73,195.2,72.6z"/>
			<path id="XMLID_54_" class="st0" d="M204.6,78.4c0,0.6,0.1,1.4,0,2.1l4.4,2.6c0.3-1.4,0.2-2.7,0.1-3.7l-4.8-3
				C204.3,77.3,204.5,78.1,204.6,78.4z"/>
			<path id="XMLID_53_" class="st0" d="M208.3,75.1c-0.6-2.3-1.8-5.1-4.6-6.8c-2.6-1.7-6.2-1.9-9.2-1L208.3,75.1z"/>
			<path id="XMLID_52_" class="st0" d="M203.4,84.1c-0.4,0.4-0.5,0.8-0.9,1.1c-0.6,0.2-1.8,0.9-3.2,1l-0.2,0
				c-1.5,0.1-2.5-0.2-2.9-0.4c-0.8-0.3-1.6-0.7-2.2-1.3c-0.7-0.8-1.1-1.3-1.5-2c-0.3-0.8-0.5-1.5-0.6-2.3l0,0l0,0
				c-0.1-0.8-0.1-1.4,0-2.1l-4.8-2.8c-0.6,2.6-0.5,4.6-0.4,5.2c0,0.4,0.7,6.6,5.1,9.7c4.3,3,11.2,2.1,14.8-1.9
				c0.4-0.4,0.7-0.9,0.9-1.3L203.4,84.1z"/>
		</g>
	</g>
</g>
<g>
	<path class="st1" d="M276.4,19.7c-1.5,0.1-2.6,1.4-2.5,2.9l1.1,14.9c0.1,1.5,1.4,2.6,2.9,2.5c1.5-0.1,2.6-1.4,2.5-2.9l-1.1-14.9
		C279.2,20.8,277.9,19.5,276.4,19.7z"/>
	<path class="st1" d="M284.2,11.9l-14.9,1.1c-1.5,0.1-2.6,1.4-2.5,2.9l0.3,3.8c0.1,1.5,1.4,2.6,2.9,2.5c1.6-0.1,2.7-1.4,2.5-2.9
		l-0.1-1.1l12.2-0.9c1.5-0.1,2.6-1.4,2.5-2.9C287,12.9,285.6,11.8,284.2,11.9z"/>
	<path class="st1" d="M270.4,23.8l-8.7,0.6c-1.5,0.1-2.6,1.4-2.5,2.9l0.5,7.5c0.1,1.5,1.4,2.6,2.9,2.5l4.5-0.3l0.3,4.1
		c0.3,3.8-2.6,7.1-6.4,7.4s-7.1-2.6-7.4-6.4l-0.2-2.5c-0.1-1.5-1.4-2.6-2.9-2.5s-2.6,1.4-2.5,2.9l0.2,2.5c0.5,6.9,6.4,12,13.3,11.5
		c6.9-0.5,12-6.5,11.5-13.3c-0.1-1.8-0.3-3.7-0.6-5.4c0-0.1,0-0.2,0-0.3c0.2-0.3,0.1-0.7,0.1-1.1c-0.1-1.6-1.4-2.7-2.9-2.5l-4.8,0.3
		l-0.2-2.1l6-0.4c1.5-0.1,2.6-1.4,2.5-2.9C273.2,24.9,271.9,23.7,270.4,23.8z"/>
	<path class="st1" d="M243,23c0.1,0,0.4-0.1,0.5,0c0.1,0,0.4-0.1,0.5-0.1c0.2-0.1,0.4-0.1,0.5-0.2c0.1-0.1,0.2-0.2,0.4-0.4
		c0.5-0.5,0.6-1.1,0.6-1.8c-0.1-0.7-0.3-1.4-0.8-1.7c-0.1-0.1-0.2-0.2-0.4-0.4c-0.2-0.1-0.4-0.1-0.5-0.2c-0.1,0-0.4-0.1-0.5-0.1
		c-0.9,0-1.7,0.2-2.2,0.9c-0.5,0.5-0.6,1.1-0.6,1.8c0.1,0.7,0.3,1.4,0.8,1.7C241.6,22.9,242.3,23,243,23z"/>
	<path class="st1" d="M249.1,22.5c0.1,0,0.4-0.1,0.5,0c0.1,0,0.4-0.1,0.5-0.1c0.2-0.1,0.4-0.1,0.5-0.2c0.1-0.1,0.2-0.2,0.4-0.4
		c0.5-0.5,0.6-1.1,0.6-1.8c-0.1-0.7-0.3-1.4-0.8-1.7c-0.1-0.1-0.2-0.2-0.4-0.4c-0.2-0.1-0.4-0.1-0.5-0.2c-0.1,0-0.4-0.1-0.5-0.1
		c-0.9,0-1.7,0.2-2.2,0.9c-0.5,0.5-0.6,1.1-0.6,1.8c0.1,0.7,0.3,1.4,0.8,1.7C247.8,22.4,248.4,22.6,249.1,22.5z"/>
	<path class="st1" d="M246.6,35.8c-0.1-1.6-1.4-2.7-2.9-2.5l-4.7,0.3l-0.2-2.1l16.9-1.2c1.5-0.1,2.6-1.4,2.5-2.9
		c-0.1-1.5-1.4-2.6-2.8-2.5l-19.7,1.4c-1.5,0.1-2.6,1.4-2.5,2.9l0.5,6.7c-0.1,0.2-0.1,0.5,0,0.8c0.1,1.5,1.4,2.6,2.9,2.5l4.5-0.3
		l0.3,4.1c0.3,3.8-2.6,7.1-6.4,7.4c-3.8,0.3-7.1-2.6-7.4-6.4l-0.2-2.5c-0.1-1.5-1.4-2.6-2.9-2.5c-1.5,0.1-2.6,1.4-2.5,2.9l0.2,2.5
		c0.5,6.9,6.4,12,13.3,11.5c6.9-0.5,12-6.5,11.5-13.3c-0.1-1.8-0.3-3.7-0.6-5.4c0-0.1,0-0.2,0-0.3C246.5,36.6,246.6,36.2,246.6,35.8
		z"/>
	<path class="st1" d="M218.2,38.7l-12.4,0.9l-1.1-12.8c-0.1-1.5-1.4-2.6-2.9-2.5c-1.5,0.1-2.6,1.6-2.5,3l1.2,12.5l-5.8,0.4l-0.3-4.7
		c-0.1-1.5-1.4-2.6-2.9-2.5l-4.8,0.3l-0.1-2l9.7-0.7c1.5-0.1,2.6-1.4,2.5-2.9c-0.1-1.6-1.4-2.7-2.9-2.5l-12.4,0.9
		c-1.5,0.1-2.6,1.4-2.5,2.9l0.5,7.5c0.1,1.5,1.4,2.6,2.9,2.5c0.3,0,0.5-0.1,0.8-0.2l4-0.3l0.1,2l-10.6,0.8l-1.1-12.8
		c-0.1-1.5-1.4-2.6-2.9-2.5c-1.5,0.1-2.6,1.6-2.5,3l1.5,15.5c0,0,0,0.1,0,0.2s0,0.1,0,0.2c0,0,0.1,0.1,0.1,0.2
		c0.1,0.1,0.1,0.1,0.1,0.2c0,0,0.1,0.1,0.1,0.2l0.1,0.1c0.1,0.1,0.1,0.1,0.2,0.2l0.1,0.1c0.1,0.1,0.1,0.1,0.2,0.2l0.1,0.1
		c0,0,0.1,0.1,0.2,0.1c0,0.1,0.1,0.1,0.1,0.1c0.1,0,0.2,0.1,0.4,0.1l0.1,0c0.1,0,0.2,0,0.5,0l15.2-1.1c0.2,0.1,0.5,0.1,0.8,0
		c0.3,0,0.5-0.1,0.8-0.2l9.8-0.7c0.2,0.1,0.5,0.1,0.8,0l0-0.1l2.6-0.2l12.4-0.9c1.5-0.1,2.6-1.4,2.5-2.9
		C221,39.7,219.7,38.6,218.2,38.7z"/>
	<path class="st1" d="M210.2,34c0.2,0,0.4-0.1,0.5,0c0.1,0,0.4-0.1,0.5-0.1c0.2-0.1,0.4-0.1,0.5-0.2c0.1-0.1,0.2-0.2,0.4-0.4
		c0.5-0.5,0.6-1.1,0.6-1.8c-0.1-0.7-0.3-1.4-0.8-1.7c-0.1-0.1-0.2-0.2-0.4-0.4c-0.2-0.1-0.4-0.1-0.5-0.2c-0.1,0-0.4-0.1-0.5-0.1
		c-0.9,0-1.7,0.2-2.2,0.9c-0.5,0.5-0.6,1.1-0.6,1.8s0.3,1.4,0.8,1.7C208.8,33.9,209.4,34,210.2,34z"/>
	<path class="st1" d="M216.3,33.5c0.2,0,0.4-0.1,0.5,0c0.1,0,0.4-0.1,0.5-0.1c0.2-0.1,0.4-0.1,0.5-0.2c0.1-0.1,0.2-0.2,0.4-0.4
		c0.5-0.5,0.6-1.1,0.6-1.8c-0.1-0.7-0.3-1.4-0.8-1.7c-0.1-0.1-0.2-0.2-0.4-0.4c-0.2-0.1-0.4-0.1-0.5-0.2c-0.1,0-0.4-0.1-0.5-0.1
		c-0.9,0-1.7,0.2-2.2,0.9c-0.5,0.5-0.6,1.1-0.6,1.8c0.1,0.7,0.3,1.4,0.8,1.7C215,33.4,215.6,33.6,216.3,33.5z"/>
	<path class="st1" d="M168.9,34.9l-7.5,0.5c-1.5,0.1-2.6,1.4-2.5,2.9l0.3,4.8l-2.2,0.2c-1.5,0.1-2.6,1.4-2.5,2.9l0.9,12.4
		c0.1,1.5,1.4,2.6,2.9,2.5c1.6-0.1,2.7-1.4,2.5-2.9l-0.7-9.7l9.7-0.7c1.5-0.1,2.6-1.4,2.5-2.9l-0.5-7.5
		C171.7,35.9,170.4,34.8,168.9,34.9z M164.6,40.6l2.1-0.2l0.2,2.1l-2.1,0.2L164.6,40.6z"/>
</g>
<rect x="7.3" y="16.6" transform="matrix(0.9974 -7.252066e-02 7.252066e-02 0.9974 -3.8503 11.0108)" class="st2" width="284.9" height="83.9"/>
<rect x="5.1" y="14.7" transform="matrix(0.9974 -7.252066e-02 7.252066e-02 0.9974 -3.852 11.0184)" class="st2" width="289.4" height="87.7"/>
</svg>
