<?xml version="1.0" encoding="utf-8"?>
<!-- Generator: Adobe Illustrator 23.0.0, SVG Export Plug-In . SVG Version: 6.00 Build 0)  -->
<svg version="1.1" id="Layer_1" xmlns="http://www.w3.org/2000/svg" xmlns:xlink="http://www.w3.org/1999/xlink" x="0px" y="0px"
	 viewBox="0 0 300 300" style="enable-background:new 0 0 300 300;" xml:space="preserve">
<style type="text/css">
	.st0{fill:none;stroke:#243F93;stroke-width:2;stroke-miterlimit:10;}
	.st1{fill:#243F93;}
</style>
<circle class="st0" cx="150" cy="122.5" r="115.6"/>
<g>
	<path class="st1" d="M234.9,82.5c-2.5,0.3-4.9,1-7.1,2.5c-2.6,1.7-5.5,2.4-8.7,2.1c-5.1-0.6-8.6-3.2-10.6-7.9
		c-1.7-4,0.1-7.4,4.1-8.7c2.1-0.6,4.1-0.9,6.2-1.3c0.5-0.1,1-0.1,1.5-0.6c-0.6,0-0.9,0.1-1.3,0.1c-4.4,0.2-8.6,1-12.5,3.2
		c-3.5,1.9-5,5.3-3.9,8.9c0.9,2.8,2.8,4.8,5.4,6.2c4.2,2.2,8.6,2.2,13.1,1.5c4.1-0.6,7.9-2.2,11.7-4c1.4-0.6,2.9-1.3,4.4-2
		C236.3,82.2,235.6,82.5,234.9,82.5z"/>
	<path class="st1" d="M216.8,101.3c0.1-0.4,0-0.7-0.6-0.6c-0.6,0.1-1.3,0.1-2,0.2c-0.8,0.1-1-0.3-0.9-1c0.1-0.8,0.6-1.4,1.2-2
		c0.9-0.7,2-1.2,3-1.7c2.9-1.2,5.9-2,8.9-2.8c1.7-0.5,3.4-1,5.1-1.5c0-0.1,0-0.2-0.1-0.2c-1.8,0-3.6,0-5.3,0.4
		c-3.6,0.8-7,1.8-10.6,2.8c-2.2,0.6-4.4,1.3-6.3,2.7c-1.5,1-2.4,2.8-2,4c0.4,1.3,1.8,2.3,3.7,2.3c1.5,0,3-0.2,4.4-0.9
		C216.2,102.6,216.7,102.1,216.8,101.3z"/>
	<path class="st1" d="M260.3,118.1c0.1-0.4-0.6-0.5-1-0.6c-3.1-1.2-5.3-3.1-6.3-6.3c-1.3-4.4-6.3-6.2-9.1-6.5
		c-0.2,0-0.6-0.1-0.6,0.2c-0.1,0.3,0.2,0.4,0.4,0.6c1.9,1.2,3,3,3.7,5.1c0.8,2.2,1.9,4.1,3.9,5.4c2.4,1.5,5.1,2.4,7.8,2.6
		C259.5,118.4,260.1,118.7,260.3,118.1z"/>
	<path class="st1" d="M239.2,114.1c-1.1,0-2.3,0.1-3.4,0c-2.4-0.1-4.7,0.3-6.9,1.2c-2.7,1-5.4,1.9-8.1,2.6c-1.3,0.3-2.6,0.5-4,0.7
		c0.6,0.6,1.1,0.6,1.7,0.6c3.2,0.3,6.3-0.2,9.4-1.2c3.8-1.3,7.4-2.7,11.3-3.6C239.1,114.5,239.3,114.4,239.2,114.1z"/>
	<path class="st1" d="M228.9,110.6c-0.1-0.3-0.4-0.2-0.6-0.2c-1.5,0.2-3,0.2-4.5,0.5c-3.3,0.6-6.4,0.1-9.3-1.7
		c-1.2-0.7-2.4-1.2-3.6-1.8c-0.2-0.2-0.6-0.3-0.8-0.1c-0.2,0.2,0.1,0.5,0.2,0.7c0.9,1.3,1.9,2.5,3,3.6c0.9,0.9,2.1,1.3,3.3,1.3
		c4-0.1,7.8-1.1,11.6-2C228.6,110.9,228.9,110.9,228.9,110.6z"/>
	<path class="st1" d="M224.3,72.7c-0.2,1.1-0.3,2.3-0.6,3.4c-0.1,0.2-0.2,0.5,0.2,0.6c1.6,0.6,3.2,0.9,4.9,0.2
		c0.3-0.2,0.6-0.5,0.8-0.8c0.6-1.1,0.6-2.4,0.7-3.6c0.1-0.4-0.2-0.4-0.6-0.4c-1.6,0-3.2,0-4.7,0C224.6,72.2,224.4,72.3,224.3,72.7z"
		/>
</g>
<g>
	<path class="st1" d="M185,35.9c-0.9,1.3-2.3,2.2-3.9,2.9c-3.6,1.7-7.4,2.4-11.3,2.8c-4.5,0.5-9,0.5-13.5-0.3
		c-2.3-0.5-4.7-0.9-5.1-4c0-0.2-0.1-0.4-0.2-0.4c-0.2,0-0.3,0.2-0.3,0.5c-0.4,1.7-0.6,3.6-0.7,5.4c-0.2,2,0.8,3.2,2.5,4.2
		c1.2,0.6,2.4,0.9,3.6,0.9c3,0.3,6.1,0.2,9.1,0c4.1-0.4,8.1-1.2,12-2.7c4-1.5,6.7-4.3,8.1-8.3c0.2-0.4,0.3-0.8,0.2-1.2
		C185.2,35.6,185.1,35.8,185,35.9z"/>
	<path class="st1" d="M200.6,48.8c-3.6,1.7-7,3.8-10,6.5c-1.5,1.3-2.8,2.7-3.5,4.7c-0.2,0.7-0.1,1,0.7,1c1.7,0,3.2-0.4,4.9-0.7
		c0.1,0,0.2,0,0.2,0c-0.1,0-0.2,0-0.2,0c0.1,0.1,0.2,0.2,0.2,0.2c-1.3,2-3.1,3-5.4,3.2c-1.9,0.2-3.2-0.6-3.7-2.5
		c-0.3-1-0.6-2.1-0.5-3.2c0.2-3.8,0.8-7.5,1.2-11.2c0.2-1,0.4-2.1,0.2-3.1c-0.7,1.4-1.4,2.8-1.7,4.4c-0.8,3.6-1.2,7.2-1.7,10.8
		c-0.3,2.3-0.6,4.5-0.2,6.8c0.6,3.1,2.8,4.6,5.9,3.9c1.8-0.5,3.1-1.6,4.2-3c1.9-2.4,3.1-5.2,4.7-7.8c0.1-0.2,0.2-0.3,0.2-0.5
		c0.2-0.7-0.1-0.9-0.8-0.9c-0.5,0.1-0.9,0.2-1.5,0.4c-1.6,0.4-3.2,0.8-4.7,0.9c-0.1-0.2,0-0.4,0.1-0.5c1.1-0.9,2.1-1.8,3.3-2.5
		c2-1,3.9-2.1,5.9-3c2.8-1.2,4.6-3.1,5.9-5.7c0.1-0.2,0.3-0.3,0.1-0.6C203.2,47.5,202,48.2,200.6,48.8z"/>
	<path class="st1" d="M178.2,53.8c-0.3-0.1-0.4,0.4-0.5,0.6c-0.5,1.4-0.9,2.8-1.3,4.3c-0.8,3.1-2.3,5.6-4.9,7.4
		c-0.9,0.6-1.7,1.3-2.5,2c-0.4,0.3-0.7,0.7-1.1,1.1c-0.1,0.1-0.2,0.2-0.2,0.4c0.1,0.2,0.3,0.2,0.5,0.2c1.2-0.2,2.4-0.6,3.6-0.9
		c2.3-0.6,3.6-2.1,4.4-4.3c1-3.2,1.7-6.6,2.2-10C178.5,54.3,178.6,53.9,178.2,53.8z"/>
	<path class="st1" d="M186.9,75.3c-0.5-0.3-0.7-0.2-1,0.2c-0.9,1.3-1.7,2.8-2.7,4c-0.3,0.4-0.2,0.6,0.2,0.9c0.8,0.6,1.5,1.1,2.2,1.7
		c0.2,0.2,0.4,0.3,0.7,0.2c1.1-0.5,2.8-2.8,2.8-4.1C189.1,76.9,188.1,76,186.9,75.3z"/>
	<path class="st1" d="M202.8,28.6c-0.3-0.2-0.5-0.1-0.7,0.2c-0.9,1.4-1.8,2.8-2.7,4.2c-0.1-0.1-0.2-0.1-0.2-0.2
		c0.4-1.9-0.7-2.8-2.1-3.7c-0.5-0.3-0.8-0.2-1.1,0.2c-0.7,1.1-1.4,2.2-2.1,3.2c-0.7,1-0.7,1,0.2,1.7c0.4,0.2,0.7,0.6,1,0.9
		c1.3,1,1.3,1,2.5-0.2c0.4-0.5,0.7-0.9,1.1-1.5c0.2-0.2,0.2-0.5,0.5-0.6c-0.5,0.4,0,0.5,0.2,0.6c0.7,0.6,1.4,1,2.1,1.6
		c0.6,0.5,0.9,0.4,1.4,0c0.7-0.8,1.4-1.6,1.9-2.5c0.3-0.7,0.3-1.4,0-2.1C204.4,29.7,203.6,29.1,202.8,28.6z"/>
	<path class="st1" d="M163.5,30.8c0.8,0.6,1.5,1.1,2.2,1.7c0.4,0.3,0.7,0.3,1,0c0.9-0.8,1.7-1.7,2.1-2.8c0.2,0.6,0.9,0.9,1.4,1.3
		c2.1,1.7,2.2,1.7,3.8-0.6c1.3-1.9,1.1-3.2-0.8-4.6c-1.1-0.9-1.2-0.9-1.9,0.3c-0.6,0.9-1.1,1.7-1.7,2.5c-0.2,0.3-0.3,0.8-0.8,0.9
		c0.4-1.7-0.6-3.5-2.3-4c-0.3-0.2-0.5,0-0.6,0.3c-0.9,1.3-1.7,2.7-2.6,4C163.1,30.3,163.1,30.6,163.5,30.8z"/>
</g>
<g>
	<path class="st1" d="M72.1,77.7c-0.4,0.5,0.2,0.9,0.4,1.3c0.1,0.1,0.1,0.2,0.2,0.3c0.2,0.4,0.1,0.5-0.3,0.6c-1.5,0.4-2,1.3-1.5,2.8
		c0.3,1.2,1.1,2.1,1.8,3.1c0.8,1.1,1.5,2.2,1.4,3.6c-0.6-0.1-1.2-0.3-1.8-0.3c-1.8,0-2.8,1.3-2.1,3c0.6,1.7,1.4,3.1,2.6,4.4
		c1.2,1.3,2.7,1.1,3.7-0.2c0.5-0.6,0.8-1.3,1-2.1c2.1,3.2,1.7,6.7,2,10.1c0.8-1,1-2.2,1.3-3.3c0.4-1.3,0.4-2.7-0.2-4
		c-0.6-1.1-1.2-2.1-1.8-3.1c-0.4-0.6-1-1.1-1.2-1.8c-0.6-2.4-1.8-4.4-3-6.6c-0.9-1.4-0.8-2,0.5-2.9c0.9-0.7,1.3-1.5,1.1-2.6
		c-0.3-1.3-1-2.3-2.2-2.8C73.2,77.3,72.5,77.2,72.1,77.7z"/>
	<path class="st1" d="M51.9,98c2,3.1,4,6.1,7.2,8.1c2.8,1.9,5.4,4,7.8,6.5c0.4,0.4,0.7,1,1.3,1.3c0-0.8-0.3-1.3-0.6-1.9
		c-1.5-2.5-3.4-4.7-5.7-6.6c-2.6-2-5.2-4-7.8-6.1c-0.7-0.6-1.4-1.3-2.1-1.8c-0.1,0-0.1,0.1-0.2,0.1C51.8,97.7,51.8,97.9,51.9,98z"/>
	<path class="st1" d="M72.5,71.2c0.2,0.3,0.4,0.6,0.6,1c1.6,2.5,3.2,4.9,5.7,6.6c2.5,1.7,4.9,3.7,7.2,5.7c0.9,0.9,1.8,1.8,2.7,2.8
		c0.1-0.9-0.1-1.1-0.7-2.2c-1.7-3.1-4.4-5.5-7.1-7.5c-2.5-1.8-5-3.6-7.2-5.7c-0.3-0.3-0.6-0.8-1.1-0.9C72.5,71,72.4,71.1,72.5,71.2z
		"/>
	<path class="st1" d="M65,97.3c-0.2,0.2,0,0.4,0.1,0.6c0.9,1.1,1.8,2.3,2.8,3.4c2.1,2.3,3.6,4.7,3.8,7.9c0.1,1.7,0.4,3.2,0.6,4.9
		c0,0.2,0.1,0.6,0.4,0.6c0.3,0,0.4-0.3,0.5-0.6c0.6-1.3,0.9-2.7,1.3-4.1c0.3-1.6,0.1-2.9-0.9-4.3c-2.3-3.1-5.1-5.7-8.1-8.3
		C65.4,97.3,65.2,97.2,65,97.3z"/>
	<path class="st1" d="M82.9,87.2c-0.2,0.9,0.2,1.5,0.4,2c1,2.1,2.4,4,4.1,5.6c0.6,0.6,1.3,1,2.1,1.2c0.5,0.1,0.9,0.1,1.3-0.3
		c0.4-0.4,0.5-0.9,0.2-1.4c-0.6-1.4-1.7-2-3.1-1.3c-0.6,0.3-0.9,0.2-1.3-0.3C85,91.2,83.9,89.4,82.9,87.2z"/>
</g>
<g>
	<path class="st1" d="M133.9,43.6c-0.3,0.7-0.6,1.3-0.8,1.9c-0.2,0.4-0.5,0.7-0.9,0.6c-0.6-0.1-0.8,0.3-1,0.7
		c-0.7,1.2-1.4,1.8-2.8,1.3c-0.6-0.2-1.3-0.1-1.8,0.2c-0.7,0.4-1.3,0.9-1.9,1.5c-1.3,1.3-2.1,3-3.1,4.5c-1.3,1.7-2.5,3.5-3.5,5.4
		c-0.2,0.4-0.5,0.6-0.9,0.6c-1.7-0.4-2.8,0.4-3.9,1.6c-1,1.2-2.4,1.8-3.9,2.1c-2.5,0.4-5.4-1.4-4.4-4.7c0.1-0.3,0.2-0.7,0.2-1
		c0-0.2,0.1-0.4-0.2-0.5c-0.2-0.1-0.4,0.1-0.5,0.3c-0.2,0.7-0.6,1.5-0.8,2.2c-1.3,4.5-3.9,8.1-7.8,10.8c-0.6,0.4-1.1,0.8-1.6,1.3
		c1.3,0.2,4.9-1.2,5.9-2.2c0.8-0.9,1.3-1.8,1.9-2.8c0.2-0.2,0.2-0.7,0.6-0.6c0.3,0.1,0.2,0.5,0.3,0.7c1.1,2.9,4,3.8,6.5,2
		c0.9-0.6,1.6-1.6,2.2-2.5c0.5-0.8,0.9-1.7,1.7-2.4c0.5-0.5,1-0.8,1.7-0.6c0.9,0.2,1.8-0.2,2.4-1c0.4-0.6,0.9-1.3,1.3-1.9
		c0.8-1.3,1.8-2.1,3.5-1.5c0.1,0.1,0.2,0,0.2,0.1c1,0,1.8-0.6,2.4-1.9c0.4-0.9,0.1-1.6-0.7-2.1c-1.3-0.9-1.3-1.1-0.4-2.4
		c0.8-1.2,1.9-1.8,2.8-1.4c1.4,0.6,2.4,0,3.3-0.9c0.5-0.5,0.9-1.1,1.5-1.3c1.3-0.4,1.7-1.3,2.1-2.5c0.2-0.9,0.4-1.7,0.5-2.5
		C134.2,44,134.3,43.8,133.9,43.6z"/>
	<path class="st1" d="M141.9,48.5c-0.6,0-0.6,0.7-0.9,1.2c-0.1,0.1-0.1,0.2-0.2,0.3c-0.1,0.3-0.2,0.4-0.6,0.2
		c-1.5-0.9-2.5-0.7-3.3,0.9c-0.6,1-0.9,2.1-1.2,3.2c-0.3,1.3-0.7,2.5-1.9,3.2c-0.2-0.5-0.5-0.9-0.7-1.3c-0.9-1.3-2.8-2.1-4,0.2
		c-0.8,1.4-1.3,2.9-1.7,4.4c-0.3,1.7,0.8,3,2.6,2.9c0.7-0.1,1.4-0.2,2.2-0.6c-0.5,2-1.6,3.3-2.8,4.5c-1.3,1.2-2.6,2.3-3.9,3.4
		c1.6,0,2.8-0.7,4.2-1.3c0.9-0.4,1.6-1.1,2.1-2c0.6-1.2,1-2.5,1.4-3.7c0.2-0.7,0.2-1.6,0.6-2.1c1.4-2,2.4-4.3,3.2-6.6
		c0.6-1.4,1-1.7,2.5-1.3c1.1,0.3,2.1,0.2,2.8-0.8c0.8-1,1.1-2.1,0.7-3.4C143,49.2,142.6,48.5,141.9,48.5z"/>
	<path class="st1" d="M108,44.9c0.9,0.5,1.7,1,2.5,1.5c0.2,0.2,0.4,0.2,0.7,0.1c1.1-0.6,2.5-3.2,2.4-4.5c-0.2-1.3-1.4-2-2.6-2.6
		c-0.5-0.2-0.7-0.2-0.9,0.3c-0.7,1.4-1.4,2.9-2.2,4.4C107.6,44.4,107.6,44.7,108,44.9z"/>
	<path class="st1" d="M126.9,30.6c0.8,0.5,1.6,0.9,2.4,1.4c0.2,0.2,0.5,0.3,0.8,0.1c0.9-0.5,2.2-3.2,2.1-4.1
		c-0.2-1.1-1.7-2.7-2.8-2.8c-0.4-0.1-0.5,0.2-0.6,0.4c-0.7,1.3-1.4,2.8-2.1,4.2C126.5,30.2,126.5,30.4,126.9,30.6z"/>
	<path class="st1" d="M134.4,35.6c0.3-0.8,0.2-1.6-0.3-2.3c-0.6-0.7-1.3-1.2-2.2-1.6c-0.4-0.2-0.6,0-0.7,0.2
		c-0.7,1.5-1.5,3.1-2.2,4.6c-0.1,0.2,0,0.2,0.1,0.3c0.9,0.6,1.8,1.2,2.8,1.7c0.4,0.2,0.7,0.1,0.9-0.2
		C133.5,37.7,134.1,36.7,134.4,35.6z"/>
	<path class="st1" d="M142.4,62.8c-0.7,0.4-0.9,0.9-1.2,1.4c-1,2.2-1.7,4.5-1.9,7c-0.1,0.8,0,1.6,0.4,2.3c0.2,0.5,0.5,0.8,1.1,0.8
		c0.6,0,0.9-0.2,1.3-0.8c0.7-1.3,0.5-2.5-0.9-3.2c-0.6-0.3-0.7-0.7-0.6-1.3C140.7,67,141.4,65,142.4,62.8z"/>
	<path class="st1" d="M129.7,36.7L129.7,36.7c0.4-1.1,0.1-2.1-0.8-2.8c-0.5-0.5-1-0.7-1.6-1c-0.4-0.2-0.6-0.2-0.9,0.3
		c-0.7,1.4-1.4,2.8-2.1,4.2c-0.2,0.4-0.1,0.6,0.3,0.9c0.8,0.4,1.5,0.9,2.2,1.4c0.5,0.3,0.9,0.2,1.3-0.2
		C128.7,38.6,129.3,37.6,129.7,36.7c0.1,0,0.2,0,0.2,0l0,0l0,0C129.8,36.5,129.7,36.5,129.7,36.7z"/>
</g>
<circle class="st0" cx="150.3" cy="122.7" r="112.5"/>
<g>
	<path class="st1" d="M81.5,183.5c-0.8-1-1.3-1.6-1.6-1.6c-0.2,0-0.9,1.3-2.1,4l0.6,0.6c-1.9,3.6-2.8,6.3-2.8,8c0,1.2,0.3,2.1,1,2.7
		c0.6,0.5,1,0.7,1.7,0.7c0.8,0,1.4-0.4,2-1.1c0.4,0.7,0.9,1.1,1.9,1.1c1,0,1.8-0.6,2.4-1.7c0.4-0.9,0.6-1.9,0.6-3.1
		c0-1.8-0.4-3.6-1.3-5.6C83.2,186.1,82.4,184.8,81.5,183.5z M82,193.9c-0.4,0-0.7-0.2-0.9-0.4l-0.3-0.8c-0.1-0.2-0.2-0.4-0.6-0.4
		c-0.2,0-0.4,0.2-0.6,0.8c-0.3,0.6-0.6,0.8-0.9,0.8c-0.8,0-1.2-0.4-1.2-1.3c0-0.7,0.6-2.5,1.9-5.1c0.6,0.4,1.3,1.3,2.2,2.6
		c0.9,1.4,1.4,2.4,1.4,2.9C83.1,193.6,82.7,193.9,82,193.9z"/>
	<path class="st1" d="M94.2,181.8c-0.2,0-0.5,0.2-0.6,0.6c-0.2,0.6-0.4,0.9-0.6,1.1c-0.3,0.4-0.9,0.6-1.5,0.6s-1.2-0.2-1.7-0.5
		c-0.4-0.2-0.7-0.7-1.1-1.3c-0.2-0.2-0.2-0.3-0.4-0.3c-0.1,0-0.2,0.1-0.3,0.2c-0.3,0.7-0.7,1.6-1.2,2.5c-0.3,0.7-0.5,1-0.5,1.1
		s0.2,0.4,0.6,0.9c1.1,1.7,1.8,3.3,2.1,5c0.1,0.6,0.3,2,0.6,4.4c0.2,1.1,0.4,1.7,0.8,1.7c0.4,0,0.8-0.6,1-2c0.2-1.1,0.3-2.3,0.3-3.6
		c0-1.3-0.1-2.5-0.2-3.5c1.2-0.2,2.1-0.9,2.7-2.1c0.5-0.9,0.6-2.1,0.6-3.5C95,182.4,94.7,181.8,94.2,181.8z"/>
	<path class="st1" d="M106.6,185.1c-0.1,0-0.3,0.1-0.6,0.2c-0.3,0.2-0.6,0.4-0.7,0.5c-0.4,0.2-0.8,0.2-1.3,0.2c-0.6,0-1-0.1-1.3-0.2
		c-0.5-0.2-0.9-0.4-1.1-0.8c-0.1-0.1-0.1-0.2-0.1-0.2c0-0.3,0.2-0.6,0.6-0.9c0.5-0.3,0.9-0.5,1.6-0.5c0.3,0,0.6,0.1,1.1,0.2
		c0.5,0.2,0.8,0.2,0.9,0.2c0.4,0,0.6-0.2,0.6-0.7c0-0.3-0.2-0.6-0.5-1c-0.5-0.6-1.1-0.8-1.9-0.8s-1.5,0.3-2.2,0.9
		c-0.5,0.5-0.9,0.9-1.2,1.5c-0.6-0.9-1-1.4-1.3-1.7c-0.2-0.2-0.3-0.3-0.4-0.3c-0.1,0-0.2,0.1-0.2,0.2c-0.3,0.7-0.7,1.5-1.2,2.5
		c-0.3,0.7-0.6,1-0.6,1.1s0.2,0.4,0.6,0.9c0.5,0.7,0.9,1.3,1.1,2c0.5,1,0.8,2,1,3.1c0.1,0.5,0.3,2,0.6,4.4c0.2,1.1,0.4,1.7,0.8,1.7
		s0.8-0.6,1-2c0.2-1.1,0.3-2.3,0.3-3.6c0-0.6-0.1-1.2-0.2-1.7l-0.2-1.2c0.2,0.1,0.5,0.1,0.7,0.1c1.2,0,2.3-0.5,3.2-1.5
		c0.8-0.9,1.2-1.7,1.2-2.5C107,185.2,106.9,185.1,106.6,185.1z"/>
	<path class="st1" d="M116.1,181.8c-0.2,0-0.5,0.2-0.6,0.6c-0.2,0.6-0.4,0.9-0.6,1.1c-0.3,0.4-0.9,0.6-1.5,0.6s-1.2-0.2-1.7-0.5
		c-0.4-0.2-0.7-0.7-1.1-1.3c-0.2-0.2-0.2-0.3-0.4-0.3c-0.1,0-0.2,0.1-0.3,0.2c-0.3,0.7-0.7,1.6-1.2,2.5c-0.3,0.7-0.5,1-0.5,1.1
		s0.2,0.4,0.6,0.9c1.1,1.7,1.8,3.3,2.1,5c0.1,0.6,0.3,2,0.6,4.4c0.2,1.1,0.4,1.7,0.8,1.7c0.4,0,0.8-0.6,1-2c0.2-1.1,0.3-2.3,0.3-3.6
		c0-1.3-0.1-2.5-0.2-3.5c1.2-0.2,2.1-0.9,2.7-2.1c0.5-0.9,0.6-2.1,0.6-3.5C116.8,182.4,116.5,181.8,116.1,181.8z"/>
	<path class="st1" d="M128.5,185.1c-0.1,0-0.3,0.1-0.6,0.2c-0.3,0.2-0.6,0.4-0.7,0.5c-0.4,0.2-0.8,0.2-1.3,0.2c-0.6,0-1-0.1-1.3-0.2
		c-0.5-0.2-0.9-0.4-1.1-0.8c-0.1-0.1-0.1-0.2-0.1-0.2c0-0.3,0.2-0.6,0.6-0.9c0.5-0.3,0.9-0.5,1.6-0.5c0.3,0,0.6,0.1,1.1,0.2
		c0.5,0.2,0.8,0.2,0.9,0.2c0.4,0,0.6-0.2,0.6-0.7c0-0.3-0.2-0.6-0.5-1c-0.5-0.6-1.1-0.8-1.9-0.8c-0.8,0-1.5,0.3-2.2,0.9
		c-0.5,0.5-0.9,0.9-1.2,1.5c-0.6-0.9-1-1.4-1.3-1.7c-0.2-0.2-0.3-0.3-0.4-0.3c-0.1,0-0.2,0.1-0.2,0.2c-0.3,0.7-0.7,1.5-1.2,2.5
		c-0.3,0.7-0.6,1-0.6,1.1s0.2,0.4,0.6,0.9c0.5,0.7,0.9,1.3,1.1,2c0.5,1,0.8,2,1,3.1c0.1,0.5,0.3,2,0.6,4.4c0.2,1.1,0.4,1.7,0.8,1.7
		c0.4,0,0.8-0.6,1-2c0.2-1.1,0.3-2.3,0.3-3.6c0-0.6-0.1-1.2-0.2-1.7l-0.2-1.2c0.2,0.1,0.5,0.1,0.7,0.1c1.2,0,2.3-0.5,3.2-1.5
		c0.8-0.9,1.2-1.7,1.2-2.5C128.9,185.2,128.7,185.1,128.5,185.1z"/>
	<path class="st1" d="M139.5,182c-0.1,0-0.2,0.1-0.2,0.2c-1.9,1.9-3.2,4.4-3.9,7.4c-0.2-1.1-0.6-2.3-1.1-3.6
		c-0.6-1.5-1.3-2.7-2.1-3.7c-0.2-0.2-0.3-0.3-0.4-0.3s-0.2,0.2-0.3,0.5c-0.7,2.5-1.1,3.7-1.1,3.9l0.9,1.4c1.3,2.1,2.2,4.4,2.8,7.2
		c0.3,1.3,0.5,2.1,0.5,2.1c0.2,0.6,0.4,0.8,0.6,0.8c0.3,0,0.6-0.2,0.6-0.8c0.2-1,0.4-1.7,0.5-2.1c0.6-2.4,1.4-4.5,2.5-6.3
		c0.3-0.6,0.7-1,1.1-1.5c0.3-0.3,0.5-0.6,0.5-0.6c0-0.2-0.2-1.5-0.7-4C139.7,182.2,139.6,182,139.5,182z"/>
	<path class="st1" d="M148.7,192.4c-0.6,0-1.1,0.2-1.5,0.6c-0.4,0.4-0.6,0.9-0.6,1.5c0,0.6,0.2,1.1,0.6,1.5s0.9,0.6,1.5,0.6
		s1.1-0.2,1.5-0.6s0.6-0.9,0.6-1.5c0-0.6-0.2-1.1-0.6-1.5C149.8,192.6,149.3,192.4,148.7,192.4z"/>
	<path class="st1" d="M148.7,186.6c-0.6,0-1.1,0.2-1.5,0.6c-0.4,0.4-0.6,0.9-0.6,1.5c0,0.6,0.2,1.1,0.6,1.5s0.9,0.6,1.5,0.6
		s1.1-0.2,1.5-0.6s0.6-0.9,0.6-1.5c0-0.6-0.2-1.1-0.6-1.5C149.8,186.8,149.3,186.6,148.7,186.6z"/>
	<path class="st1" d="M160.7,188.7c0.1,0.1,0.2,0.1,0.2,0l1-1l1,1c0.1,0.1,0.2,0.1,0.2,0l1.1-1.1c0.1-0.1,0.1-0.2,0-0.2l-1.1-1.1
		c-0.1-0.1-0.2-0.1-0.3,0l-0.9,0.9l-1-0.9c-0.1-0.1-0.2-0.1-0.3,0l-1,1c-0.1,0.1-0.1,0.2,0,0.3L160.7,188.7z"/>
	<path class="st1" d="M172.7,198c-0.1-0.1-0.2-0.1-0.3,0l-1.2,1.2c-0.2,0.2-0.2,0.2,0,0.3l1.3,1.2c0.1,0.1,0.2,0.1,0.2,0l1.3-1.3
		c0.1-0.1,0.1-0.2,0-0.2L172.7,198z"/>
	<path class="st1" d="M177.8,187.1c-0.1,0-0.1,0.1-0.2,0.2l-1.7,2.5c-0.1,0.2-0.1,0.2,0,0.3c0.6,0.6,1.1,1,1.5,1.5
		c0.1,0.2,0.2,0.2,0.2,0.4c0,0.2-0.2,0.3-0.6,0.3h-1.5h-0.6h-0.2c-0.6,0-1.1-0.2-1.3-0.6c-0.1-0.1-0.2-0.5-0.3-1.1
		c-0.1-0.4-0.2-0.6-0.6-0.6c-0.3,0-0.6,0.2-0.6,0.6c-0.2,0.6-0.3,1-0.4,1.1c-0.2,0.4-0.7,0.6-1.3,0.6H170h-0.6h-0.1
		c-0.3,0-0.6-0.1-0.7-0.2c0.1-0.2,0.2-0.3,0.2-0.6c0.1-0.3,0.2-0.6,0.2-0.6c0-0.4-0.2-0.6-0.5-0.6c-0.1,0-0.4,0.2-0.9,0.7
		c-0.6,0.6-1.2,1-2,1.3c-1.2,0.5-2.7,0.7-4.5,0.7c-1.7,0-2.8-0.3-3.5-0.9c-0.3-0.3-0.5-0.9-0.6-1.7c0-0.6-0.2-0.9-0.6-0.9
		c-0.3,0-0.6,0.4-0.9,1.2c-0.2,0.6-0.2,1.3-0.2,1.9c0,1.6,0.4,2.7,1.3,3.4c0.8,0.6,2,0.9,3.6,0.9c2.9,0,5.1-0.7,6.6-2.1
		c0.6,1,1.3,1.6,2.3,1.6h0.1h0.6h0.4c0.9,0,1.7-0.4,2.2-1.3c0.5,0.8,1.2,1.3,2.1,1.3h0.2h0.6h0.2c1.5,0,2.5-0.4,3.2-1.2
		c0.5-0.7,0.7-1.9,0.7-3.6c0-1.7-0.5-3.2-1.4-4.4C177.9,187.2,177.8,187.1,177.8,187.1z"/>
	<path class="st1" d="M177.5,183.8c0.1,0.1,0.2,0.1,0.2,0l1-1c0.1-0.1,0.1-0.2,0.1-0.2l-1.1-1c-0.1-0.1-0.2-0.1-0.2,0l-1.1,1.1
		c-0.1,0.1-0.1,0.2,0,0.2L177.5,183.8z"/>
	<path class="st1" d="M178.9,183.6c-0.1-0.1-0.2-0.1-0.2,0l-1,1l-1-1c-0.1-0.1-0.2-0.1-0.2,0l-1.1,1.1c-0.1,0.1-0.1,0.2,0,0.2l1.1,1
		c0.1,0.1,0.2,0.1,0.2,0l1-1l0,0l1.1,1c0.1,0.1,0.1,0.1,0.2,0.1s0.1,0,0.2-0.1l1-1c0.1-0.1,0.1-0.2,0-0.2L178.9,183.6z"/>
	<path class="st1" d="M189.4,188.8c-0.9-0.7-1.9-1-2.9-1c-0.6,0-1.1,0.8-1.7,2.5c-0.5,1.4-0.7,2.5-0.7,3.2c0,2.1,1.1,3,3.2,3
		c1.2,0,2.1-0.5,2.8-1.3c0.6-0.8,0.9-1.8,0.9-3.1C191.2,190.8,190.6,189.7,189.4,188.8z M188,192.9c-1.1,0-1.7-0.2-1.7-0.8
		c0-0.2,0.1-0.4,0.2-0.6c0.2-0.2,0.2-0.4,0.5-0.4c0.3,0,0.8,0.2,1.4,0.4c0.7,0.3,1,0.6,1,0.8C189.4,192.8,188.9,192.9,188,192.9z"/>
	<path class="st1" d="M197.4,190.5c-0.2-0.2-0.2-0.1-0.3,0.1l-1.5,3c1.3,1.3,2.1,2.1,2.1,2.5c0,0.5-0.8,1.2-2.3,2.3
		c-1.2,0.8-2.2,1.4-3,1.8c-0.2,0.1-0.3,0.2-0.3,0.5c0,0.4,0.2,0.6,0.8,0.6h4.4c0.2,0,0.4-0.1,0.6-0.2c1.2-1.3,1.8-3.1,1.8-5.4
		c0-1.3-0.2-2.4-0.5-3.2C198.7,192,198.1,191.3,197.4,190.5z"/>
	<path class="st1" d="M219,185.6c0.1,0.1,0.2,0.1,0.3,0l1-1c0.1-0.1,0.1-0.2,0-0.2l-1.1-1.1c-0.1-0.1-0.2-0.1-0.2,0l-1.1,1.1
		c-0.1,0.1-0.1,0.2,0,0.2L219,185.6z"/>
	<path class="st1" d="M217.8,187.7c0.1,0.1,0.2,0.1,0.2,0l1-1l0,0l1.1,1c0.1,0.1,0.2,0.1,0.2,0l1-1c0.1-0.1,0.1-0.2,0-0.2l-1.1-1
		c-0.1-0.1-0.2-0.1-0.2,0l-1.1,1l-1-1c-0.1-0.1-0.2-0.1-0.2,0l-1.1,1.1c-0.1,0.1-0.1,0.2,0,0.2L217.8,187.7z"/>
	<path class="st1" d="M222.8,189.2c-0.1-0.2-0.2-0.2-0.3,0l-1.2,1.3c0.2,0.3,0.2,0.6,0.3,0.6c0.1,0.2,0.2,0.5,0.2,0.8
		c0,0.4-0.3,0.6-0.9,0.6c-0.5,0-0.8-0.2-0.9-0.6l-0.2-1c-0.1-0.4-0.2-0.6-0.6-0.6c-0.3,0-0.6,0.2-0.6,0.6c-0.1,0.5-0.2,0.8-0.2,0.9
		c-0.2,0.3-0.4,0.6-0.7,0.6c-0.5,0-0.8-0.2-0.9-0.6l-0.2-0.9c-0.1-0.3-0.3-0.6-0.6-0.6c-0.2,0-0.5,0.2-0.6,0.6
		c-0.1,0.3-0.2,0.6-0.2,0.9c-0.2,0.3-0.5,0.6-0.9,0.6h-0.2v-0.1h-0.7c-0.4,0-0.8-0.3-1.1-0.9c-0.6-1-0.9-1.6-0.9-1.7
		c-0.5-0.6-1.2-0.9-2-0.9c-0.9,0-1.7,0.4-2.2,1.1c-0.3,0.5-0.5,1-0.6,1.7c0,0.5-0.4,0.7-1.2,0.7l0,0c-0.8,0-1.2-0.5-1.2-1.3v-8.1
		c0-0.2-0.1-0.2-0.2-0.2c-0.1,0-0.2,0.1-0.4,0.2l-2.7,1.9c-0.2,0.2-0.2,0.3-0.2,0.6c0.1,0.6,0.2,1.7,0.2,3.5c0.1,1.7,0.1,3,0.1,4
		c0,2.4,1.2,3.6,3.5,3.6h0.4l0,0h0.6c0.7,0,1.3-0.5,1.7-1.4c0.6,0.9,1.4,1.4,2.5,1.4c0.9,0,1.7-0.5,2.1-1.5c0.1,0.3,0.3,0.6,0.6,0.9
		c0.3,0.3,0.6,0.5,0.9,0.5l0,0l0,0h0.6h0.2c0.7,0,1.3-0.4,1.7-1.3c0.3,0.8,0.9,1.3,1.8,1.3c0.6,0,1.1-0.4,1.5-1.2
		c0.5,0.8,1.1,1.2,1.8,1.2c0.9,0,1.5-0.6,2-1.9c0.3-0.9,0.5-1.9,0.5-3C223.3,190.9,223.1,190,222.8,189.2z M210.4,193.7
		c-0.5,0-0.8-0.3-1-0.9c-0.2-0.5-0.3-0.9-0.3-1.3c0-0.2,0.1-0.4,0.2-0.5c0.2-0.2,0.2-0.2,0.5-0.2c0.3,0,0.6,0.2,0.9,0.8
		c0.2,0.5,0.3,0.9,0.3,1.3C210.8,193.5,210.7,193.7,210.4,193.7z"/>
</g>
<g id="XMLID_2_">
	<path id="XMLID_8_" class="st1" d="M133.1,124.5c2.3-4,4.8-8.1,7-12.1c0.2-0.5,0.8-0.8,1.3-0.8c1,0,2.3,0,3.2,0c3.2,0,6.8,0,10,0
		c0.8,0,1.3,0,1.5,0.8c0.8,1.5,1.7,3,2.5,4.5c1.3,2.3,2.8,4.8,4,7c0.5,0.8,0.5,1.5,0,2.5c-1.7,3-3.6,6-5.3,9.3c-0.5,1-1,2-1.7,3l0,0
		c-0.2,0.2-0.8,0.2-1.3,0.2c-4.3,0-8.5,0-13.1,0c-1,0-1.5-0.2-2-1c-1.5-2.8-3-5.3-4.5-8.1c-0.8-1.3-1.5-2.5-2-3.8
		C132.9,125.3,132.9,125,133.1,124.5z M137.9,126.3c1.3,2.3,2.5,4.5,3.8,6.8c0.2,0.5,0.8,1,1.3,1.3c0.8,0.5,1.5,0.5,1.7,0.5
		c1.5,0,4.3,0,8.1,0c0.2,0,0.8,0,1-0.2l0.2-0.2c0.2-0.2,0.2-0.8,0.5-0.8c1.3-2.3,2.8-4.8,4-7c0.5-1,0.8-1.7,0-2.8
		c-1-1.7-1.5-2.5-1.7-3c-0.8-1-1-1.7-1.3-2c-0.2-0.5-0.8-1-1.3-2c-0.5-0.8-1.3-1.3-2.3-1.3c-2.8,0-5.5,0-8.3,0c-1,0-1.5,0.2-2,1.3
		c-1.5,2.5-3,5.1-4.3,7.6C137.4,124.8,137.4,125.5,137.9,126.3z"/>
	<path id="XMLID_7_" class="st1" d="M157.4,142.1c-0.5-0.8-1-1-2-1c-4.8,0-9.6,0-14.4,0c-0.5,0-1.3,0-1.7,0c-0.2-0.2-0.2-0.5-0.5-1
		c-2.8-4.8-5.5-9.8-8.3-14.6c-0.5-0.8-0.5-1.3,0-2c0.5-1,1-2,1.7-3c2.3-3.6,4-7,6-10.6c0.2-0.5,0-1-0.2-1.5
		c-2.3-3.8-4.3-7.6-6.6-11.3c-0.5-0.8-1-1.3-2-1.3c-4,0-8.1,0-12.3,0c-1,0-1.5,0-1.7,0c-0.5,0.8-0.8,1-1.3,2c-0.2,0.8-0.8,1.3-1,1.7
		c-1.7,3.2-2.8,5.1-3.8,6.6c-0.5,0.8-1,1.5-1.3,2.3c-0.5,1-0.5,1.7,0,2.5c2.5,4.3,4.8,8.5,7.3,12.8c0.5,0.8,0.5,1.3,0,2
		c-1.3,2-2.3,4-3.2,5.8c-1.3,2.3-2.8,4.8-4,7c-0.5,0.8-0.5,1.5,0,2.3c2.3,3.8,4.5,7.6,6.6,11.6c0.2,0.2,0.2,0.5,0.5,0.8l0,0
		c0.5,0.2,1,0.2,1.5,0.2c4.8,0,9.6,0,14.4,0c1,0,1.5,0.2,2,1.3c1.5,2.8,3.2,5.3,4.5,8.1c0.5,1,1.5,2.5,2.5,4.5
		c0.2,0.2,0.2,0.5,0.8,0.8s0.8,0.5,1,0.8c7.6,0,12.8,0,13.6,0c0,0,0.5,0,0.8-0.2c0.2,0,0.5-0.2,0.5-0.5c2.3-4,4.5-8.1,6.8-11.9
		c0.2-0.5,0.2-1,0-1.5C161.6,150,159.3,146.2,157.4,142.1z M159.3,156c-1.3,2.3-2.5,4.3-3.8,6.6c-0.2,0.5-0.5,1-1.3,1.5
		c-0.8,0.2-1.5,0.2-2,0.2c-2.5,0-5.3,0-7.8,0c-0.2,0-0.8,0-1.3-0.5c-0.2-0.2-0.5-0.5-0.5-0.5c-0.8-1.3-1.5-2.5-2-3.8
		c-1.7-3-3.6-6-5.3-9.3c-0.5-0.8-1-1.3-2-1.3c-1,0-13.8,0.2-15.1,0c-0.5,0.2-0.8,0.2-1,0.2c-0.5-0.2-0.8-0.8-1-1
		c-0.5-1.3-2-3.6-3-5.1c-0.2-0.8-0.8-1.3-1.3-2c-0.5-1-0.8-1.7,0-2.8c1-1.5,1.3-2.3,1.7-3.2c1-1,1-1,1.7-2.3
		c3.6-6.3,3.8-6.3,3.8-6.3c0.8-1.3,0.8-2.5,0-3.8c-2.3-3.8-4.5-7.8-6.8-11.6c-0.5-1-0.8-2,0-3c2.3-3.8,3.2-5.5,3.6-6
		c0.2-0.8,0.5-1.5,1.3-2c0.8-0.2,1.3-0.2,1.7-0.2c3.8,0,6.6,0,7.8,0c0.2,0,0.8,0,1.5,0.2c0.5,0.2,0.8,0.5,1,1.3
		c1.3,2.3,2.5,4.5,4,6.8c0.5,1,0.5,2,0,3c-1,1.7-1.7,3.2-2.8,5.1c-0.8,1.3-0.5,1-1.3,2.3c-1.3,1.7-1.7,3-3,5.3
		c-0.5,0.8-0.2,1.5,0,2.3c1.7,3,3.6,5.8,5.1,8.8c1.5,2.8,3.2,5.5,4.8,8.3c0.5,0.8,1,1.7,2.3,1.7c2.5,0,3.8,0,7,0c1.5,0,1.3,0,2.8,0
		c1,0,2.3,0,4.8,0c1,0,1.7,0.2,2.3,1.3c1.5,2.5,2.8,4.8,4.3,7.3C159.8,154.2,159.8,155,159.3,156z"/>
	<path id="XMLID_6_" class="st1" d="M167.4,96.6c0.8,0,1.3,0,2,0c3.8,0,7.6,0,11.6,0c0.5,0,1,0,1.5,0.5l0,0c0.2,0.2,0.5,0.8,0.8,1.3
		c2,3.6,4,7,6,10.4c0.5,1,0.8,1.7,0,2.8c-2.3,3.8-4.3,7.3-6.6,11.1c-0.5,0.8-1,1-1.7,1c-2.8,0-5.3,0-8.1,0c-1.7,0-3.2,0-5.1,0
		c-0.5,0-1.3,0-1.5-0.8l0,0c-1-1.5-1.7-3-2.8-4.5c-1.5-2.5-2.8-4.8-4.3-7.3c-0.2-0.5-0.5-1-0.2-1.5c2.3-4,4.8-8.1,7-12.1
		C166.4,96.8,166.9,96.6,167.4,96.6z M164.2,111.7c1.3,2.3,2.5,4.5,4,6.8c0.2,0.2,0.5,0.8,1,1c0.5,0.2,0.8,0.2,1,0.2
		c0.5,0,1,0,8.1,0c0.2,0,1,0,1.7-0.5c0.2-0.2,0.8-0.5,1-1c1.3-2.3,2.5-4.8,4-7c0.5-0.8,0.5-1.7,0-2.5c-1.5-2.8-2-3.6-2.5-4.5
		c0,0-0.8-1.3-2-3.2c0,0-0.2-0.2-0.5-0.5c-0.5-0.2-1-0.2-1.3-0.2c-2.8,0.2-5.3,0-8.1,0c-1,0-2,0.5-2.5,1.5c-1.3,2.3-2.5,4.5-4,6.8
		C163.4,109.7,163.4,110.4,164.2,111.7z"/>
	<path id="XMLID_5_" class="st1" d="M163.4,96.1c-2.3,3.8-4.5,7.8-6.8,11.6c-0.2,0.8-0.8,1-1.5,1c-4.5,0-8.8,0-13.4,0
		c-0.8,0-1.5-0.2-1.7-1c-0.8-1.5-1.7-2.8-2.5-4.3c-1.3-2.3-2.8-4.8-4-7c-0.2-0.5-0.5-1,0-1.7c2.3-3.8,4.5-7.8,6.8-11.6
		c0.5-0.8,1-1,2-1c2.3,0,4.3,0,6.6,0c2,0,4,0,6,0c1.3,0,2,0.5,2.5,1.5c2,3.8,4.3,7.3,6.3,10.8C163.8,94.8,163.8,95.3,163.4,96.1z
		 M159.8,94c-1.5-2.8-3.2-5.5-4.8-8.3c-0.5-0.8-1-1.3-2-1.3c-3,0-6,0-9.3,0c-1,0-1.5,0.2-2,1c-1.5,3-3,5.8-4.8,8.5
		c-0.2,0.5-0.5,1.3,0,1.7c1.7,3,3.2,5.8,5.1,8.8c0.2,0.5,0.8,0.8,1.5,0.8c1.7,0,3.2,0,5.1,0c1.5,0,3.2,0,4.8,0c0.8,0,1.3-0.2,1.7-1
		c1.5-2.8,3.2-5.5,4.8-8.3C160.1,95.3,160.1,94.8,159.8,94z"/>
	<path id="XMLID_4_" class="st1" d="M142.2,101.6"/>
	<path id="XMLID_3_" class="st1" d="M167.5,125.7c0.8,0,1.3,0,2,0c3.8,0,7.6,0,11.6,0c0.5,0,1,0,1.5,0.5l0,0
		c0.2,0.2,0.5,0.8,0.8,1.3c2,3.6,4,7,6,10.4c0.5,1,0.8,1.7,0,2.8c-2.3,3.8-4.3,7.3-6.6,11.1c-0.5,0.8-1,1-1.7,1c-2.8,0-5.3,0-8.1,0
		c-1.7,0-3.2,0-5.1,0c-0.5,0-1.3,0-1.5-0.8l0,0c-1-1.5-1.7-3-2.8-4.5c-1.5-2.5-2.8-4.8-4.3-7.3c-0.2-0.5-0.5-1-0.2-1.5
		c2.3-4,4.8-8.1,7-12.1C166.5,125.9,167,125.7,167.5,125.7z M164.2,140.8c1.3,2.3,2.5,4.5,4,6.8c0.2,0.2,0.5,0.8,1,1
		c0.5,0.2,0.8,0.2,1,0.2c0.5,0,1,0,8.1,0c0.2,0,1,0,1.7-0.5c0.2-0.2,0.8-0.5,1-1c1.3-2.3,2.5-4.8,4-7c0.5-0.8,0.5-1.7,0-2.5
		c-1.5-2.8-2-3.6-2.5-4.5c0,0-0.8-1.3-2-3.2c0,0-0.2-0.2-0.5-0.5c-0.5-0.2-1-0.2-1.3-0.2c-2.8,0.2-5.3,0-8.1,0c-1,0-2,0.5-2.5,1.5
		c-1.3,2.3-2.5,4.5-4,6.8C163.5,138.7,163.5,139.5,164.2,140.8z"/>
</g>
</svg>
