<?xml version="1.0" encoding="utf-8"?>
<!-- Generator: Adobe Illustrator 23.0.0, SVG Export Plug-In . SVG Version: 6.00 Build 0)  -->
<svg version="1.1" id="Layer_1" xmlns="http://www.w3.org/2000/svg" xmlns:xlink="http://www.w3.org/1999/xlink" x="0px" y="0px"
	 viewBox="0 0 1845 595.3" style="enable-background:new 0 0 1845 595.3;" xml:space="preserve">
<style type="text/css">
	.st0{fill:#F1F1F5;}
	.st1{fill:#FEF2F5;}
	.st2{fill:#F9F1F5;}
	.st3{fill:#F9F0F5;}
	.st4{fill:#F3F1F4;}
	.st5{fill:#F2F1F4;}
	.st6{fill:#F7F1F5;}
	.st7{fill:#FAF2F6;}
	.st8{fill:#F4F4F8;}
	.st9{fill:#F6F3F9;}
</style>
<g>
	<path class="st0" d="M1268.6,367.2c0,8.3,0,16.9,0,25.2c0,2.7-0.9,3.6-3.6,3.3c-2.7-0.3-5.3,0-8,0c-3.6,0-3.9-0.3-3.9-4.2
		c0-14.5,0.6-29.1-0.3-43.3c-0.6-11.9-12.2-17.5-21.1-12.7c-5,2.7-7.1,7.4-7.1,13c-0.3,14.2,0,28.5,0,42.4c0,4.2,0,4.2-4.2,4.2
		c-1.5,0-3.3,0-4.7,0c-2.7,0.3-3.6-1.2-3.6-3.6c0-4.7,0-9.5,0-14.5c0-9.5,0-19,0-28.8c0-6.2-4.2-12.5-9.5-14.5
		c-5.3-2.1-13.6,1.5-16.3,6.8c-1.8,3.3-2.4,6.5-2.4,10.4c0,13.6,0,27,0,40.6c0,3.6-0.3,4.2-4.2,4.2c-2.7,0-5.3,0-8,0
		c-2.4,0-3.3-0.9-3.3-3.3c0-16-0.3-31.7,0-47.7c0-8.3,4.7-14.5,11.3-19.6c11.3-8.6,27.6-7.4,37.1,2.4c1.5,1.5,2.4,1.2,3.6,0
		c8-7.4,17.5-9.8,27.6-6.8c9.2,2.7,16,8.9,19.6,18.1c0.6,1.2,0.6,2.4,0.6,3.6C1268.6,350.9,1268.6,358.9,1268.6,367.2z"/>
	<path class="st0" d="M970.4,358.3c-7.7,0-15.4,0-22.8,0c-2.4,0-3,0.9-2.7,3c1.2,8.6,8.3,17.2,18.1,18.1c3.9,0.3,7.1,0,11-0.9
		c4.4-0.9,7.4-3.6,8.6-7.7c1.5-6.2,9.2-9.2,13.3-9.8c1.5-0.3,2.1,0.3,2.1,1.8c-0.3,9.8-2.7,18.7-9.5,25.8
		c-5.3,5.6-12.5,8.3-20.2,8.9c-7.1,0.6-13.9-0.3-20.5-3.9c-6.2-3.3-10.7-8-13.9-13.9c-3.9-7.1-5.6-14.5-5.3-22.5
		c0.3-11,3.3-21.1,11.6-28.8c6.2-5.9,13.6-8.9,22.2-9.2c7.7-0.3,14.8,0.9,21.1,5.3c8,5.9,12.7,13.9,13.6,24c0.3,2.1,0.6,3.9,0.6,5.9
		c0,2.7-0.6,3.6-3.3,3.6C986.1,358.3,978.4,358.3,970.4,358.3z M965.6,345.2c4.7,0,9.5,0,14.5,0c0.9,0,2.4,0,1.2-1.5
		c-3.6-4.7-7.7-8.3-14.2-8.3c-2.4,0-4.7,0.6-7.1,0.9c-3.9,0.6-7.1,2.7-9.2,6.2c-1.5,2.4-1.2,2.7,1.5,2.7
		C956.4,345.2,960.9,345.2,965.6,345.2z"/>
	<path class="st0" d="M599.4,365.7c-2.1-3.3-5-3.6-8.6-3.6c-10.7,0.3-21.1,0-31.7,0c-2.7,0-4.2-0.9-5.3-3.3
		c-4.4-9.5-10.1-18.4-15.4-27.3c-1.2-1.8-1.2-3.3,0-5.3c5.9-10.1,11.6-20.2,17.2-30.5c1.2-2.1,1.2-3.9,0-5.9
		c-5.9-10.1-11.6-20.5-17.5-30.5c-0.9-1.5-0.6-3-0.3-4.7c1.2-3.9,3.6-6.8,5.3-10.1c3.3-5.9,6.8-11.9,9.8-18.1c1.8-3.9,3-4.2,7.1-3.6
		c2.1,0.3,4.4,0.3,6.8,0.3c7.7-0.3,15.4,0.3,22.8-0.3c2.1-0.3,3.6,1.5,4.7,3.3c3.6,6.2,7.1,12.5,10.7,18.7c1.5,2.7,3,5,4.4,7.4
		c1.5,2.1,1.5,4.2,0.3,6.5c-4.2,7.1-8.3,14.5-12.5,21.9c-1.8,3-3.9,5.6-5.3,8.6c-1.2,2.4-1.2,4.2,0.3,6.5c2.7,4.2,5.3,8.6,7.1,13
		c-0.3,0.3-0.3,0.6-0.3,1.2c0.6,3,0.9,6.2,0.9,9.5c0,1.5-0.6,2.4-2.4,2.4c-0.3-0.3-0.6-0.3-0.6-0.6c-4.7-8.3-9.5-16.6-14.2-24.6
		c-1.2-2.1-1.2-4.4,0-6.5c5.3-9.8,10.7-19.6,16-29.1c1.8-3,1.8-5.6-0.3-8.6c-3.3-5.3-6.5-10.4-9.2-16c-0.9-1.8-2.4-2.7-4.4-2.7
		c-7.4,0-14.5,0-21.9,0c-2.4,0-3.9,1.2-4.7,3.3c-0.3,1.2-0.9,2.4-1.5,3.3c-2.7,4.4-5,8.9-7.7,13c-1.5,2.7-1.2,4.7,0.3,7.4
		c5.6,9.2,11,18.7,16.3,28.2c1.5,3,1.5,5.6-0.3,8.6c-0.9,1.5-2.1,3.3-3,4.7c-3.6,5.3-5.9,11.6-10.4,16.3c-2.1,2.4-3.3,5.6-4.7,8.6
		c-0.9,1.8-0.6,3.6,0.6,5.3c3,4.7,5.9,9.2,8.6,13.9c1.8,3.9,3.9,5.3,8.6,5c11.6-0.6,23.1-0.3,34.7-0.3c0.9,3.9,0.6,7.7,0.6,11.6
		C601.2,364.2,601.2,365.4,599.4,365.7z"/>
	<path class="st0" d="M1042.7,398c-16.6,0.9-29.9-11.3-34.1-26.7c-2.7-9.8-2.7-19.3,0.6-28.8c4.7-13.6,18.4-23.1,32.6-23.4
		c9.5,0,17.5,3,24,9.8c4.4,4.7,6.8,10.7,8.3,16.9c0.3,1.5-0.3,2.4-1.5,3.3c-3.3,1.8-8.3,1.2-11-1.5c-2.4-2.4-5-4.7-7.1-7.1
		c-3.6-4.4-8.3-4.4-13.3-3.9c-11.3,0.9-16.9,10.4-17.8,19.9c-1.2,8.9,1.8,16,8.9,21.1c6.5,4.4,18.1,4.2,24.3,0.3
		c2.1-1.2,3.3-3,3.9-5c1.8-6.8,7.1-8.9,13.3-10.4c1.5-0.3,2.1,0,2.1,1.8c0.6,9.5-1.5,18.1-8,25.2c-5.3,5.9-12.5,8.9-20.5,9.5
		C1045.4,398,1043.9,398,1042.7,398z"/>
	<path class="st1" d="M724.3,355.3c0-12.7,0-25.2,0-38c0-2.1-0.6-3.3-2.7-3h-0.3c-9.2,0-9.2,0-13.3-8.3c-0.6-1.5-1.2-2.7-2.1-4.2
		c-1.5-2.1-0.3-2.4,1.5-2.4c7.7,0,15.7,0.3,23.4,0c10.7-0.6,21.3-0.3,32-0.6c2.7,0,3.9,0.6,3.6,3.6c-0.3,2.7,0,5.3,0,8.3
		c0,2.7-0.9,3.9-3.6,3.9c-6.2,0-12.7,0-19,0c-2.4,0-3,0.9-3,3c0,25.2,0,50.7,0,75.9c0,4.2-0.3,4.4-4.4,4.4c-2.7,0-5.3,0-8,0
		c-3.3,0-3.9-0.6-3.9-3.9c0-12.2,0-24.3,0-36.5C724.3,356.8,724.3,356.2,724.3,355.3z"/>
	<path class="st2" d="M814.4,315.9c-6.2,0-6.2,0-6.2,6.2c0,24.3,0,48.6,0,72.9c0,4.2-0.3,4.4-4.4,4.4c-2.4,0-5,0-7.4,0
		c-4.4,0-4.7-0.3-4.7-4.4c0-24.9,0-49.8,0-74.7c0-3.9,0-3.9-3.9-3.9c-4.4,0-8.6,0-13,0c-3.3,0-3.9-0.9-3.9-4.2c0-2.7,0-5,0-7.7
		s1.2-3.6,3.9-3.6c14.2,0,28.5,0,42.7,0c0,1.2-0.3,2.1-0.3,3.3C815.9,307.9,815.3,311.7,814.4,315.9z"/>
	<path class="st3" d="M826.9,381.1c-3.3-4.7-4.7-10.4-5.6-16c-1.5-8.3,0-16,2.7-23.7c4.2-12.2,17.5-21.3,30.2-21.3
		c6.8,0,13.6,0.6,19.6,4.2c0.9,0.6,2.1,0.9,2.7,2.1c-3,2.7-5.6,5.6-8.6,8.3c-0.6,0.6-1.2,1.5-0.9,2.4c-4.4-1.2-8.6-1.5-13-0.6
		c-4.2,0.9-8,3-10.4,6.5c-1.2,1.8-0.9,2.4,1.5,2.4c3.9,0,7.4,0,11.3,0c0,1.2-0.9,1.8-1.5,2.4c-2.1,2.1-4.2,4.4-6.5,6.2
		c-1.5,1.2-2.1,2.7-1.2,4.4c-2.1,0-4.4,0.3-6.5,0c-2.7-0.3-3,1.2-2.7,3c0.3,2.7,1.2,5.3,2.4,7.7c-1.5,0.6-2.7,1.8-3.9,3
		C833.1,374.9,830.4,378.5,826.9,381.1z"/>
	<path class="st0" d="M635.6,254.5c-5,0-10.1,0-15.1,0c-2.7,0-4.4-0.9-5.9-3.6c-5-8.3-9.8-16.9-14.8-25.5c-1.2-2.1-1.2-3.9,0-5.9
		c4.4-7.7,9.5-15.1,13.6-23.1c2.7-5.6,6.5-6.8,12.2-6.5c7.4,0,14.8,1.5,21.9,0.6c5.6-0.6,8.6,1.5,11,6.2c4.2,8,9.2,15.7,13.6,23.7
		c0.6,0.9,0.6,1.8,0,3c-5.9,9.5-11.6,19.3-17.2,29.4c-0.9,1.8-2.7,2.4-4.4,2.4C646,254.5,640.7,254.5,635.6,254.5z M635.3,196.1
		c-3.6,0-7.1,0-10.4,0c-2.1,0-4.2,0.6-5.3,2.7c-3.6,6.8-7.4,13.6-11.3,20.2c-0.9,1.8-0.9,3.3,0,4.7c3.9,6.8,7.7,13.6,11.9,20.8
		c0.6,1.2,1.5,1.8,2.7,1.5c7.7-0.3,15.1,0.9,22.8,0.6c3.3,0,5.6-1.2,7.1-4.2c3.3-5.6,6.2-11.3,9.5-16.6c1.8-3,1.5-5.6,0-8.6
		c-3.3-5.6-6.8-11.3-10.1-17.2c-1.5-3-3.9-4.2-7.1-4.2C641.8,196.1,638.6,196.1,635.3,196.1z"/>
	<path class="st0" d="M917.6,348.8c0,15.1,0,29.9,0,45.1c0,3.6-0.3,3.9-3.9,3.9c-2.4,0-5,0-7.4,0c-2.7,0-3.6-0.9-3.6-3.6
		c0-6.8,0-13.6,0-20.5c0-23.4,0-46.6,0-70c0-4.2,0-4.2,4.2-4.2c2.4,0,4.7,0,7.1,0c2.7,0,3.6,1.2,3.6,3.9
		C917.6,318.6,917.6,333.7,917.6,348.8z"/>
	<path class="st0" d="M1086.6,359.8c-0.3-5,0.3-9.5,1.5-14.2c0.3-1.8,1.2-1.8,2.4-1.2c3.9,2.7,7.7,5,11.6,7.7
		c1.2,0.6,0.9,1.8,0.9,2.7c0,3-0.3,5.6,0.3,8.6c3,13.3,13.9,19.6,27,16c2.4-0.6,5.3-0.9,6.8-3.6c0.6-0.9,1.2-0.6,1.5,0
		c3.3,2.7,6.2,5.3,9.5,7.7c1.5,1.2,1.5,2.1,0.3,3.6c-4.7,5.9-11.3,8.9-18.7,10.4c-9.8,2.1-19,0.9-27.3-4.4
		c-8.3-5.3-12.5-13.6-14.8-22.8C1086.9,366.6,1086.3,363,1086.6,359.8z"/>
	<path class="st4" d="M826.9,381.1c3.3-2.7,5.9-5.9,9.2-8.9c1.2-1.2,2.4-2.4,3.9-3c0.9,0.9,1.8,1.8,2.7,3c3.3,4.7,7.7,6.5,13.3,7.4
		c3.6,0.6,7.1,0,10.7-0.6c4.7-0.9,7.4-3.9,8.9-8.3c1.8-4.7,8.3-9.5,13.3-9.5c0.9,0,1.8,0,1.8,1.5c0.3,8.9-1.5,16.9-7.4,24
		c-8.6,10.1-19.6,12.7-32,11c-10.4-1.5-18.1-6.5-23.7-15.1C827.1,382,827.1,381.4,826.9,381.1z"/>
	<path class="st5" d="M622.3,327.8c-1.5,0-3,0-4.4,0c-1.8,0-3-0.6-3.9-2.4c-5-8.6-9.8-17.5-14.8-26.1c-1.5-2.4-1.2-4.7,0-6.8
		c5.3-9.5,11-19,16.3-28.5c1.5-2.4,3.9-3,6.2-2.7c9.5,0.6,19.3,0.6,28.8,0.6c-1.2,3.3-2.4,6.2-5,8.6c-6.5,0-12.7,0-19.3,0
		c-2.7,0-5.3,0.6-6.8,3.3c-3,5.3-6.2,10.4-8.9,16c-0.9,2.1-1.2,4.2,0,6.2c2.7,4.7,5.3,9.8,8,14.5c2.1,3.9,4.7,6.8,9.5,6.2
		C627,321.2,624.3,324.2,622.3,327.8z"/>
	<path class="st1" d="M698.8,366.9c0,8.9,0,17.8,0,26.7c0,3.3-0.6,3.9-3.9,3.9c-2.7,0-5.3,0-8,0c-2.4,0-3.6-1.2-3.6-3.6
		c0-18.1,0-36.2,0-54.3c0-1.8,0.6-2.4,2.4-2.4c3.6,0,7.1,0,10.7,0c2.1,0,2.4,0.6,2.4,2.4C698.8,348.8,698.8,358,698.8,366.9z"/>
	<path class="st6" d="M866.6,336.6c0-0.9,0.3-1.8,0.9-2.4c3-2.7,5.6-5.6,8.6-8.3c5.6,3.3,8.9,8.3,11,14.2c1.8,4.7,2.1,9.8,2.7,14.8
		c0.3,2.4-0.6,3.3-3.3,3.3c-13.3,0-26.7,0-40,0c-0.9-1.8-0.3-3,1.2-4.4c2.4-2.1,4.2-4.2,6.5-6.2c0.6-0.6,1.5-1.2,1.5-2.4
		c5.6,0,11.3,0,16.6,0c0.6,0,1.5,0.3,1.8-0.6c0.3-0.6-0.6-0.9-0.9-1.5C871.9,340.5,868.7,339,866.6,336.6z"/>
	<path class="st3" d="M731.7,248.9c0.9,1.5,1.8,3,3,4.4c2.7,3.9,0.6,6.8-1.5,10.1c-4.4,7.7-9.2,15.4-13.6,23.1c-1.2,2.1-3,3.3-5.6,3
		c-10.4,0-20.8,0-31.1,0c-2.1,0-3.6-0.6-4.4-2.7c-0.9-1.8-2.4-3.3-3-5.3c2.7-1.2,5.3-2.4,7.4-4.4c2.1,1.2,3.3,3.6,6.2,3.6
		c6.2-0.3,12.2,0,18.4,0c3.3,0,5.6-1.5,7.1-4.4c2.4-4.7,5-9.5,8-13.9c1.8-3,2.4-5.6,0.6-8.6C726.6,253,728.7,250.4,731.7,248.9z"/>
	<path class="st3" d="M622.3,327.8c2.4-3.6,5-6.5,5.6-10.7c5.9,0,11.6,0,17.5,0c2.4,0,3.9-0.9,4.7-2.7c3.3-5.9,6.8-11.6,10.1-17.5
		c1.2-2.1,1.2-4.4-0.3-6.5c-1.5-2.1-2.4-4.2-3.9-6.2c1.2,0,1.8-0.9,2.1-2.1c0.9-2.1,2.1-3.9,3-5.9c2.7,2.7,3.9,6.5,5.9,9.5
		c1.2,1.8,2.1,3.9,3.3,5.6c1.5,2.1,1.2,4.2,0,6.2c-5.3,9.2-10.7,18.7-15.7,27.9c-0.9,1.5-2.1,2.1-3.9,2.1
		C641.2,327.8,631.8,327.8,622.3,327.8z"/>
	<path class="st7" d="M647.2,332.2c7.7-1.8,11,3,13.9,8.9c3.6,7.7,7.7,15.1,11,22.8c0.9,2.1,0.9,3.9-0.3,5.9
		c-5,8.9-10.4,17.8-15.4,26.7c-0.9,1.8-2.4,2.7-4.4,2.4c-1.5,0-3.3,0-4.7,0c-0.3-3.6,0.6-7.1-0.6-10.7c2.4-0.6,4.7-1.5,6.2-3.9
		c3-5.3,6.2-10.7,9.2-16c1.5-3,2.4-6.2,0-9.5c-1.5-1.8-2.4-4.2-3.9-6.2c-3-4.2-3.9-10.7-10.7-11
		C647.2,338.7,647.2,335.5,647.2,332.2z"/>
	<path class="st4" d="M662.9,260.7c-2.1-2.1-2.1-4.4-0.6-6.8c4.4-7.4,8.9-14.8,13-22.5c3.9-7.1,3.3-6.2,11.9-6.2
		c8,0,16.3,0.3,24.3,0c4.7-0.3,8,1.2,9.2,5.6c-1.8,3-4.4,4.4-8,5c-1.2-1.8-3-2.4-5-2.1c-5.3,0.6-10.4,0.6-15.7,0
		c-3.3-0.6-7.1,0.6-8.6,3c-3.3,6.5-7.4,12.7-11,19c-0.9,0-1.5,0.9-2.1,1.2C668.2,258.4,666.2,260.4,662.9,260.7z"/>
	<path class="st1" d="M690.5,299.9c1.5,0,3,0.3,4.4,0c3.9-0.6,5.9,1.2,7.1,4.4c1.2,2.7,2.7,5.3,4.4,7.7c1.5,2.1,1.8,4.2,0.3,6.5
		c-2.4,3.9-4.7,8-6.5,12.2c-0.6,1.2-1.2,1.5-2.4,1.5c-4.7,0-9.5,0-14.2,0c-1.2,0-2.1-0.6-2.7-1.5c-2.4-4.4-4.7-8.6-7.4-13
		c-0.9-1.5-0.6-2.7,0-3.9c2.4-4.2,4.4-8,6.5-12.2c0.6-1.2,1.5-1.8,3-1.8C685.4,299.9,687.8,299.9,690.5,299.9z M690.8,324.2
		L690.8,324.2c1.5,0,3.6,0.6,4.4,0c1.8-1.8,3.3-4.2,4.4-6.5c0.9-1.8-0.6-2.4-0.9-3.6c-3.3-7.4-3.3-7.1-10.7-7.1
		c-1.5,0-2.4,0.6-3,1.8c-3,4.2-4.2,8-0.6,12.7c1.2,1.8,2.1,3,4.4,2.4C689.3,324.2,689.9,324.2,690.8,324.2z"/>
	<path class="st4" d="M842.3,300.5c7.7,0,15.4,0,23.1,0c3.6,0,3.9,0.3,4.2,4.2c0,2.4,0,4.7,0,7.1c0,3.9-0.3,4.2-4.2,4.2
		c-8.6,0-17.5,0-26.1,0c0-0.6,0-1.5,0.3-2.1C840.5,309.1,841.7,304.9,842.3,300.5z"/>
	<path class="st8" d="M599.4,365.7c1.8-0.3,1.8-1.5,1.8-2.7c0-3.9,0.3-7.7-0.6-11.6c2.7,0.3,3.9,2.4,5,4.4c5.3,9.5,10.7,19,16,28.5
		c-0.9,0.6-0.6,1.8-0.6,2.7c0,4.2,0,8,0,12.2c-2.7-0.6-4.4-2.4-5.9-4.7c-4.7-8.6-8.9-17.2-14.2-25.2
		C600.3,368.1,599.7,366.9,599.4,365.7z"/>
	<path class="st0" d="M1113.6,320c23.4-4.4,39.4,9.8,41.5,28.2C1141.1,338.7,1127.5,329.8,1113.6,320z"/>
	<path class="st6" d="M842.3,300.5c-0.3,4.4-1.8,8.6-2.7,13c0,0.6-0.3,1.5-0.3,2.1c-8.3,0-16.6,0-24.9,0c0.9-4.2,1.5-8,2.4-11.9
		c0.3-1.2,0.3-2.1,0.3-3.3C825.7,300.5,834,300.5,842.3,300.5z"/>
	<path class="st8" d="M598.3,322.1c1.8,0,2.4-0.9,2.4-2.4c0-3.3-0.3-6.2-0.9-9.5c0-0.6-0.3-0.9,0.3-1.2c3,3.9,4.7,8.3,7.1,12.5
		c2.1,3.3,3.9,6.5,5.6,10.1c0.6,0.9,1.2,0.9,2.1,0.9c2.1,0,3.9,0,5.9,0c1.2,3.6,0.6,6.8-0.6,10.1c-1.8,0-3.6,0.3-5.3,0
		c-2.1-0.3-4.7,0-6.2-2.1C605.1,334.3,601.5,328.3,598.3,322.1z"/>
	<path class="st9" d="M621.1,399.2c0-4.2,0-8,0-12.2c0-0.9-0.3-1.8,0.6-2.7c1.8,3.3,4.7,3.9,8,3.9c5.6,0,11.3,0,16.9,0
		c1.2,3.6,0.3,7.1,0.6,10.7C638.6,399.2,629.7,399.2,621.1,399.2z"/>
	<path class="st9" d="M620.5,342.3c1.2-3.3,1.8-6.8,0.6-10.1c8.6,0,17.5,0,26.1,0c0,3.3,0,6.5,0,9.5
		C638.3,341.4,629.4,342.3,620.5,342.3z"/>
	<path class="st6" d="M662.9,260.7c3-0.3,5-2.4,7.4-3.9c0.6-0.6,1.2-1.2,2.1-1.2c-0.6,3,1.2,5.3,2.4,8c2.7,4.4,5,9.2,7.7,13.6
		c-2.1,2.1-4.7,3.6-7.4,4.4c-2.4-2.7-3.9-5.6-5.6-8.6C667.6,269,665,265.2,662.9,260.7z"/>
	<path class="st0" d="M1117.7,336.1c0,0.6-0.6,0.6-0.9,0.9c-2.7,0.6-4.7,2.1-6.5,4.2c-1.2,1.2-1.8,1.2-3.3,0.3
		c-3.6-2.4-7.1-4.7-10.7-7.1c-1.5-1.2-1.8-1.8-0.3-3.3c7.1-6.5,4.4-6.8,12.7-1.2c2.7,1.8,5.3,3.6,8.3,5.6
		C1117.1,335.2,1117.7,335.2,1117.7,336.1z"/>
	<path class="st6" d="M713,235.8c3.3-0.6,6.2-2.1,8-5c3.6,5.9,7.1,12.2,10.7,18.1c-2.7,1.5-5,4.2-8.6,4.4
		C719.5,247.7,716.9,241.5,713,235.8z"/>
	<path class="st0" d="M1142.3,352.1c5,3.3,9.5,6.2,13.9,9.8c0.6,0.3,1.2,1.2,0.9,1.8c-0.9,3,0,5.9-0.9,8.9c-0.3,1.2-0.9,1.2-1.8,0.6
		c-3.6-2.4-7.1-4.7-10.7-7.1c-0.9-0.6-1.2-1.5-1.2-2.4C1142.3,359.8,1142.3,356.2,1142.3,352.1z"/>
	<path class="st6" d="M661.4,276.2c-0.9,2.1-2.1,4.2-3,5.9c-0.6,0.9-0.9,2.1-2.1,2.1c-1.2-1.2-1.5-2.4-2.4-3.6
		c-2.4-3.6-3.3-8.3-8.3-9.8c2.7-2.4,3.9-5.3,5-8.6c2.7-0.6,3.9,0.6,5,3C657.3,268.7,660.2,272,661.4,276.2z"/>
</g>
</svg>
