<?xml version="1.0" encoding="utf-8"?>
<!-- Generator: Adobe Illustrator 23.0.0, SVG Export Plug-In . SVG Version: 6.00 Build 0)  -->
<svg version="1.1" id="Layer_1" xmlns="http://www.w3.org/2000/svg" xmlns:xlink="http://www.w3.org/1999/xlink" x="0px" y="0px"
	 viewBox="0 0 595.3 841.9" style="enable-background:new 0 0 595.3 841.9;" xml:space="preserve">
<style type="text/css">
	.st0{fill:url(#SVGID_1_);}
	.st1{fill:#FFFFFF;}
	.st2{fill:#DD1478;}
	.st3{fill:#1D1D1B;}
	.st4{font-family:'2--TitrBold';}
	.st5{font-size:21.0907px;}
	.st6{font-size:13.6136px;}
	.st7{fill:#131364;}
	.st8{fill:url(#XMLID_4_);}
	.st9{fill:url(#XMLID_5_);}
	.st10{fill:url(#XMLID_6_);}
	.st11{fill:url(#XMLID_7_);}
	.st12{fill:url(#XMLID_8_);}
	.st13{fill:url(#XMLID_9_);}
	.st14{fill:url(#XMLID_10_);}
	.st15{fill:url(#XMLID_11_);}
	.st16{fill:url(#XMLID_12_);}
	.st17{fill:#E71E66;}
</style>
<linearGradient id="SVGID_1_" gradientUnits="userSpaceOnUse" x1="297.79" y1="841.5867" x2="297.79" y2="0.1959">
	<stop  offset="0" style="stop-color:#DD1478"/>
	<stop  offset="0.1928" style="stop-color:#DA1478"/>
	<stop  offset="0.3375" style="stop-color:#D01477"/>
	<stop  offset="0.4664" style="stop-color:#C01475"/>
	<stop  offset="0.5862" style="stop-color:#A91473"/>
	<stop  offset="0.6997" style="stop-color:#8C1470"/>
	<stop  offset="0.8084" style="stop-color:#68136C"/>
	<stop  offset="0.9114" style="stop-color:#3E1368"/>
	<stop  offset="1" style="stop-color:#131364"/>
</linearGradient>
<rect x="0.2" y="0.2" class="st0" width="595.1" height="841.4"/>
<path class="st1" d="M560.5,834.3H36.8c-8.6,0-15.6-7-15.6-15.6V37.6c0-8.6,7-15.6,15.6-15.6h523.7c8.6,0,15.6,7,15.6,15.6v781.1
	C576.1,827.4,569.2,834.3,560.5,834.3z"/>
<path class="st2" d="M0.2,694.2c11.7,5.7,36.5,19.4,54.9,45.7c17.6,25.3,20.2,49.2,20.6,60.6c-1.2-3.1-8.2-20.9-26.3-26.9
	c-6-2-11.6-2.1-15.6-1.8c7.7,3.8,17.4,9.9,26.5,19.6c2.4,2.6,7.9,8.7,13.3,17.8c3,5.2,5.2,9.9,6.7,14c3.6-9.7,9.2-29.7,3.4-54.3
	c-5-21.5-16.4-36.7-23.4-44.7c15.7,7.6,44.7,24,66.8,54.3c14.6,20,21,38.9,24,51.9c18.5-9,46.8-20,82.8-24c17.3-1.9,28.9-1.4,45.1-1
	c45.9,1.2,107.1,2.7,169.1-6.3c32-4.6,53.9-8,80-20.2c34.2-16.1,55.4-37.9,67.2-52.4c0,38.9,0,77.9,0,116.8
	c-198.4,0-396.8,0-595.1,0C0.2,793.6,0.2,743.9,0.2,694.2z"/>
<text transform="matrix(1 0 0 1 529.1494 240.9723)" class="st3 st4 st5"> </text>
<text transform="matrix(1 0 0 1 104.9878 70.0514)"><tspan x="0" y="0" class="st3 st4 st6">                    </tspan><tspan x="31.9" y="16.3" class="st3 st4 st6">        </tspan></text>
<g>
	<path id="XMLID_40_" class="st7" d="M521.9,59.8c-0.1,0-0.2,0-0.2-0.1c-0.2,0-0.4-0.1-0.8-0.1c-0.6,0-1.2,0.2-1.7,0.4
		c-0.4,0.2-0.9,0.6-1.2,1.1c-0.3,0.4-0.5,0.9-0.8,1.5c-0.2,0.5-0.2,1-0.2,1.6c0,0,0,0,0,0.1l0,0c0,0.4,0.1,1,0.2,1.3
		c0.2,0.4,0.4,0.8,0.8,1.3c0.3,0.4,0.8,0.7,1.2,0.9s1,0.3,1.7,0.3c0.7,0,1.2-0.1,1.7-0.2c0.4-0.2,0.8-0.4,1-0.7
		c0.4-0.5,0.4-0.9,0.6-1.2c0.2-0.5,0.8-1.1,2.6-1.5c0.1,0.5,0.3,3.1-1.5,5c-2.2,2.4-6.4,2.4-8.6,0.5c-2.5-1.9-2.6-5.6-2.6-5.8
		c0-0.6-0.1-3.8,2.3-5.8c2.2-1.9,5.7-2.3,8-0.4c1.7,1.3,2,3.3,2.2,4c-0.3,0.2-1,0.5-1.7,0.3c-0.4-0.2-0.8-0.4-1.3-0.9
		C522.9,60.7,522.6,60,521.9,59.8z"/>
	<g id="XMLID_32_">
		
			<linearGradient id="XMLID_4_" gradientUnits="userSpaceOnUse" x1="450.7716" y1="530.9093" x2="440.1821" y2="525.0396" gradientTransform="matrix(1 0 0 1 0 -476)">
			<stop  offset="0" style="stop-color:#E71E66"/>
			<stop  offset="0.107" style="stop-color:#C21C66"/>
			<stop  offset="0.2751" style="stop-color:#8D1965"/>
			<stop  offset="0.4402" style="stop-color:#611765"/>
			<stop  offset="0.5984" style="stop-color:#3F1564"/>
			<stop  offset="0.7481" style="stop-color:#271464"/>
			<stop  offset="0.8857" style="stop-color:#181364"/>
			<stop  offset="1" style="stop-color:#131364"/>
		</linearGradient>
		<path id="XMLID_38_" class="st8" d="M438.7,51.7c1.1-1.8,2.1-3.6,3.1-5.4c0.2-0.2,0.4-0.3,0.6-0.3c0.4,0,1,0,1.5,0
			c1.5,0,3,0,4.5,0c0.3,0,0.5,0,0.8,0.3c0.4,0.7,0.8,1.3,1.1,2c0.6,1.1,1.2,2.1,1.8,3.1c0.2,0.4,0.2,0.7,0,1.1
			c-0.8,1.3-1.6,2.7-2.4,4.1c-0.3,0.4-0.4,0.9-0.8,1.3l0,0c-0.2,0.1-0.4,0.1-0.5,0.1c-1.9,0-3.9,0-5.8,0c-0.4,0-0.7-0.2-0.8-0.4
			c-0.7-1.2-1.3-2.4-2-3.6c-0.3-0.5-0.6-1.1-0.9-1.7C438.7,52.1,438.6,51.9,438.7,51.7z M440.8,52.6c0.5,1,1.1,1.9,1.7,3
			c0.2,0.3,0.3,0.4,0.5,0.6c0.3,0.2,0.7,0.2,0.8,0.2c0.7,0,1.9,0,3.6,0c0.2,0,0.3-0.1,0.4-0.1c0.1,0,0.1-0.1,0.2-0.2
			c0.2-0.2,0.2-0.3,0.2-0.3c0.6-1.1,1.2-2.1,1.8-3.1c0.2-0.4,0.3-0.8,0-1.2c-0.4-0.8-0.7-1.1-0.8-1.3c-0.3-0.5-0.4-0.8-0.5-0.9
			c-0.1-0.2-0.3-0.4-0.5-0.9c-0.2-0.4-0.5-0.5-1-0.5c-1.2,0-2.4,0-3.7,0c-0.4,0-0.8,0.2-0.9,0.5c-0.6,1.1-1.3,2.2-1.9,3.3
			C440.6,51.9,440.6,52.3,440.8,52.6z"/>
		
			<linearGradient id="XMLID_5_" gradientUnits="userSpaceOnUse" x1="427.2921" y1="531.0165" x2="452.5244" y2="531.0165" gradientTransform="matrix(1 0 0 1 0 -476)">
			<stop  offset="0" style="stop-color:#131364"/>
			<stop  offset="0.3685" style="stop-color:#131364"/>
			<stop  offset="0.5386" style="stop-color:#2B2BE0"/>
			<stop  offset="1" style="stop-color:#E71E66"/>
		</linearGradient>
		<path id="XMLID_1614_" class="st9" d="M449.4,59.6c-0.2-0.4-0.4-0.5-0.9-0.4c-2.1,0-4.3,0-6.4,0c-0.3,0-0.5,0-0.8,0
			c-0.1-0.2-0.2-0.3-0.2-0.4c-1.2-2.2-2.5-4.3-3.8-6.5c-0.2-0.3-0.2-0.6,0-0.9c0.3-0.4,0.4-0.8,0.8-1.3c1-1.5,1.8-3.1,2.7-4.7
			c0.2-0.2,0.1-0.4-0.1-0.7c-1-1.7-1.9-3.4-3-5.1c-0.2-0.4-0.4-0.5-0.9-0.5c-1.8,0-3.6,0-5.4,0c-0.4,0-0.7-0.1-0.8,0
			c-0.2,0.1-0.2,0.3-0.5,0.8c-0.2,0.2-0.3,0.4-0.4,0.8c-0.8,1.5-1.3,2.2-1.7,2.9c-0.2,0.4-0.4,0.7-0.6,1c-0.2,0.4-0.2,0.8,0,1.1
			c1.1,1.9,2.2,3.8,3.3,5.7c0.2,0.3,0.2,0.5,0,0.8c-0.5,0.8-1,1.7-1.5,2.6c-0.6,1.1-1.2,2.1-1.8,3.1c-0.2,0.4-0.2,0.7,0,1.1
			c1,1.7,1.9,3.4,3,5.1c0.1,0.1,0.2,0.2,0.2,0.3l0,0c0.2,0.2,0.4,0.1,0.7,0.1c2.1,0,4.3,0,6.4,0c0.4,0,0.7,0.2,0.9,0.5
			c0.7,1.2,1.5,2.4,2,3.6c0.2,0.4,0.6,1.2,1.1,1.9c0.1,0.1,0.2,0.2,0.3,0.3c0.2,0.2,0.4,0.2,0.5,0.3c3.3,0,5.8,0,6,0
			c0.1,0,0.2,0,0.4-0.1c0.1-0.1,0.2-0.2,0.2-0.3c1-1.7,2-3.6,3-5.3c0.2-0.2,0.2-0.4,0-0.8C451.4,63.1,450.4,61.4,449.4,59.6z
			 M450.3,65.8c-0.5,1-1.1,1.9-1.7,2.9c-0.2,0.2-0.3,0.4-0.6,0.7c-0.3,0.2-0.7,0.2-0.9,0.2c-1.1,0-2.4,0-3.5,0c-0.2,0-0.4,0-0.5-0.2
			c-0.2-0.1-0.2-0.2-0.2-0.3c-0.3-0.5-0.6-1.1-0.9-1.7c-0.8-1.3-1.6-2.7-2.4-4.1c-0.2-0.3-0.4-0.5-0.8-0.5s-6.1,0.1-6.8,0
			c-0.2,0-0.3-0.1-0.3-0.1c-0.2-0.2-0.4-0.4-0.4-0.4c-0.2-0.5-0.9-1.6-1.3-2.3c-0.2-0.3-0.4-0.6-0.5-0.9c-0.2-0.4-0.3-0.8,0-1.3
			c0.4-0.7,0.5-1,0.8-1.5c0.3-0.4,0.2-0.4,0.5-1c1.6-2.7,1.7-2.8,1.7-2.8c0.4-0.6,0.3-1.1,0-1.7c-1-1.7-1.9-3.4-3-5.1
			c-0.3-0.4-0.3-0.8,0-1.3c1-1.7,1.5-2.5,1.5-2.6c0.2-0.4,0.3-0.7,0.7-0.9c0.2-0.2,0.5-0.2,0.7-0.2c1.7,0,2.9,0,3.4,0
			c0.1,0,0.4,0,0.7,0.2c0.2,0.1,0.4,0.3,0.4,0.5c0.6,1.1,1.1,2,1.7,3.1c0.3,0.4,0.3,0.8,0,1.3c-0.4,0.8-0.8,1.5-1.3,2.2
			c-0.4,0.6-0.2,0.4-0.6,1c-0.5,0.8-0.8,1.3-1.3,2.4c-0.2,0.4-0.2,0.7,0.1,1.1c0.8,1.3,1.5,2.6,2.3,3.9c0.8,1.2,1.5,2.5,2.1,3.7
			c0.2,0.4,0.4,0.8,1,0.8c1.1,0,1.7,0,3.2,0c0.8,0,0.5,0,1.2,0c0.4,0,1,0,2.1,0c0.4,0,0.8,0.2,1,0.5c0.6,1.1,1.3,2.2,1.9,3.2
			C450.6,65,450.5,65.4,450.3,65.8z"/>
		
			<linearGradient id="XMLID_6_" gradientUnits="userSpaceOnUse" x1="460.456" y1="527.2422" x2="453.4215" y2="515.535" gradientTransform="matrix(1 0 0 1 0 -476)">
			<stop  offset="0" style="stop-color:#E71E66"/>
			<stop  offset="1" style="stop-color:#131364"/>
		</linearGradient>
		<path id="XMLID_37_" class="st10" d="M453.9,39.4c0.3,0,0.6,0,0.9,0c1.7,0,3.4,0,5.1,0c0.2,0,0.5-0.1,0.6,0.2l0,0
			c0.1,0.2,0.2,0.3,0.3,0.5c0.9,1.5,1.7,3.1,2.6,4.6c0.3,0.4,0.3,0.8,0,1.3c-1,1.7-1.9,3.3-2.9,5c-0.2,0.4-0.4,0.4-0.8,0.4
			c-1.2,0-2.4,0-3.6,0c-0.8,0-1.5,0-2.2,0c-0.3,0-0.5,0-0.7-0.3l0,0c-0.4-0.6-0.8-1.3-1.2-2c-0.6-1.1-1.3-2.2-1.9-3.2
			c-0.2-0.2-0.2-0.4-0.1-0.8c1.1-1.8,2.1-3.6,3.1-5.4C453.5,39.5,453.7,39.3,453.9,39.4z M452.4,46.1c0.6,1,1.1,2,1.7,3
			c0.1,0.1,0.2,0.3,0.4,0.4c0.2,0.1,0.4,0.1,0.4,0.1c0.3,0,0.4,0,3.6,0c0.2,0,0.4,0,0.8-0.2c0.2-0.1,0.3-0.2,0.4-0.4
			c0.6-1.1,1.1-2,1.7-3.1c0.2-0.4,0.2-0.8,0-1.1c-0.7-1.2-0.9-1.5-1.1-2c0,0-0.3-0.5-0.9-1.5c0-0.1-0.1-0.2-0.2-0.2
			c-0.2-0.2-0.5-0.2-0.6-0.1c-1.2,0.1-2.4,0-3.6,0c-0.5,0-0.8,0.2-1.1,0.7c-0.5,1-1,2-1.6,3C452.1,45.1,452.2,45.5,452.4,46.1z"/>
		
			<linearGradient id="XMLID_7_" gradientUnits="userSpaceOnUse" x1="442.7031" y1="209.2506" x2="442.7031" y2="209.2506" gradientTransform="matrix(1 0 0 -1 0 250.7725)">
			<stop  offset="0" style="stop-color:#5167B0"/>
			<stop  offset="1" style="stop-color:#41C7F4"/>
		</linearGradient>
		<path id="XMLID_34_" class="st11" d="M442.7,41.5"/>
		
			<linearGradient id="XMLID_8_" gradientUnits="userSpaceOnUse" x1="449.0134" y1="519.9974" x2="441.9789" y2="508.2902" gradientTransform="matrix(1 0 0 1 0 -476)">
			<stop  offset="0" style="stop-color:#131364"/>
			<stop  offset="1" style="stop-color:#131364"/>
		</linearGradient>
		<path id="XMLID_1_" class="st12" d="M442.5,32.1c0.3,0,0.6,0,0.9,0c1.7,0,3.4,0,5.1,0c0.2,0,0.5-0.1,0.6,0.2l0,0
			c0.1,0.2,0.2,0.3,0.3,0.5c0.9,1.5,1.7,3.1,2.6,4.6c0.3,0.4,0.3,0.8,0,1.3c-1,1.7-1.9,3.3-2.9,5c-0.2,0.4-0.4,0.4-0.8,0.4
			c-1.2,0-2.4,0-3.6,0c-0.8,0-1.5,0-2.2,0c-0.3,0-0.5,0-0.7-0.3l0,0c-0.4-0.6-0.8-1.3-1.2-2c-0.6-1.1-1.3-2.2-1.9-3.2
			c-0.2-0.2-0.2-0.4-0.1-0.8c1.1-1.8,2.1-3.6,3.1-5.4C442.1,32.2,442.2,32.1,442.5,32.1z M440.9,38.8c0.6,1,1.1,2,1.7,3
			c0.1,0.1,0.2,0.3,0.4,0.4c0.2,0.1,0.4,0.1,0.4,0.1c0.3,0,0.4,0,3.6,0c0.2,0,0.4,0,0.8-0.2c0.2-0.1,0.3-0.2,0.4-0.4
			c0.6-1.1,1.1-2,1.7-3.1c0.2-0.4,0.2-0.8,0-1.1c-0.7-1.2-0.9-1.5-1.1-2c0,0-0.3-0.5-0.9-1.5c0-0.1-0.1-0.2-0.2-0.2
			c-0.2-0.2-0.5-0.2-0.6-0.1c-1.2,0.1-2.4,0-3.6,0c-0.5,0-0.8,0.2-1.1,0.7c-0.6,1-1.1,2-1.7,3C440.7,37.9,440.7,38.3,440.9,38.8z"/>
	</g>
	<g id="XMLID_1602_">
		
			<linearGradient id="XMLID_9_" gradientUnits="userSpaceOnUse" x1="470.3633" y1="194.0455" x2="470.3633" y2="194.0455" gradientTransform="matrix(1 0 0 -1 0 250.7725)">
			<stop  offset="4.878049e-03" style="stop-color:#E71E66"/>
			<stop  offset="1" style="stop-color:#131364"/>
		</linearGradient>
		<path id="XMLID_1605_" class="st13" d="M470.4,56.7L470.4,56.7L470.4,56.7L470.4,56.7z"/>
		
			<linearGradient id="XMLID_10_" gradientUnits="userSpaceOnUse" x1="469.1642" y1="191.2097" x2="486.9065" y2="187.4385" gradientTransform="matrix(1 0 0 -1 0 250.7725)">
			<stop  offset="4.878049e-03" style="stop-color:#E71E66"/>
			<stop  offset="1" style="stop-color:#131364"/>
		</linearGradient>
		<path id="XMLID_1604_" class="st14" d="M488.4,53.3c-0.1-0.1-0.2-0.2-0.3-0.2c-0.3,0-7.2,0-7.5,0c-3.2,0-4.5,0-7.8,0
			c-0.3,0-1.7,0-2,0c0,0-0.2,0-0.3,0.2c-0.1,0.1-0.1,0.2-0.1,0.2c0,0.7,0,1.3,0,2.1c0,0.1,0,0.2,0.1,0.2c0.2,0.2,0.3,0.2,0.3,0.2
			c0.6,0,2.4,0,3,0c0.8,0-0.3,0,0.5,0c0,5.1,0,10.1,0,15c0,0,0,0.2,0.1,0.2c0.1,0.2,0.3,0.1,0.3,0.1c0.4,0,0.7,0,1.1,0
			c0.4,0,0.7,0,1.1,0c0,0,0.2,0,0.3-0.1c0.1-0.1,0.1-0.2,0.1-0.2c0-5.1,0-10.1,0-15c0.8,0,1.7,0,2.5,0c0.6,0,7.8,0,8.4,0
			c0,0,0.2,0,0.3-0.2c0.1-0.1,0.1-0.2,0.1-0.2c0-0.7,0-1.3,0-2.1C488.6,53.4,488.5,53.4,488.4,53.3z"/>
		
			<linearGradient id="XMLID_11_" gradientUnits="userSpaceOnUse" x1="482.1176" y1="194.0455" x2="482.1176" y2="194.0455" gradientTransform="matrix(1 0 0 -1 0 250.7725)">
			<stop  offset="4.878049e-03" style="stop-color:#E71E66"/>
			<stop  offset="1" style="stop-color:#131364"/>
		</linearGradient>
		<path id="XMLID_1603_" class="st15" d="M482.1,56.7L482.1,56.7L482.1,56.7L482.1,56.7z"/>
	</g>
	<path id="XMLID_31_" class="st7" d="M497.2,71.2h-1.9c-0.2,0-0.4-0.2-0.4-0.4V53.6c0-0.2,0.2-0.4,0.4-0.4h1.9
		c0.2,0,0.4,0.2,0.4,0.4v17.2C497.6,71.1,497.4,71.2,497.2,71.2z"/>
	<path id="XMLID_1598_" class="st7" d="M512.3,64.4c-1.7,0.3-2.4,1-2.6,1.5c-0.2,0.3-0.2,0.7-0.6,1.2c-0.2,0.3-0.5,0.5-1,0.7
		c-0.4,0.2-1,0.2-1.7,0.2c-0.6,0-1.1-0.1-1.7-0.3c-0.4-0.2-0.8-0.5-1.2-0.9c-0.3-0.4-0.5-0.8-0.8-1.3c-0.2-0.4-0.2-0.9-0.2-1.3l0,0
		V64c0-0.2,0,0,0-0.2c3.2,0,6.4,0,9.6,0c0-0.2,0.4-3.8-2.4-5.9c-2.5-1.9-6-1.3-8,0.4c-2.4,2-2.4,5.2-2.3,5.8c0,0.2,0.2,3.9,2.6,5.8
		c2.3,1.8,6.4,1.9,8.6-0.5C512.6,67.5,512.3,64.9,512.3,64.4z M504.8,60c0.4-0.2,1-0.4,1.7-0.4c0.1,0,0.4,0,0.8,0.1
		c1.2,0.2,2,1.5,2.3,1.8h-6.1c0.1-0.2,0.2-0.4,0.3-0.5C503.8,60.7,504.3,60.3,504.8,60z"/>
	<path id="XMLID_27_" class="st7" d="M562.5,61.3c0,0-0.1-0.4-0.3-0.8c-1-1.9-3-2.6-3-2.6c-2-0.7-4.4-0.1-5.6,1.3
		c-0.1,0.1-0.2,0.2-0.2,0.3c-0.1-0.1-0.2-0.2-0.2-0.3c-1.3-1.5-3.6-2-5.6-1.3c0,0-2.1,0.8-3,2.6c-0.2,0.4-0.3,0.8-0.3,0.8
		c0,0.3-0.1,0.5-0.1,0.8c0,3,0,6,0,9c0,0.1,0,0.2,0.1,0.2c0.1,0.1,0.2,0.2,0.2,0.2c1,0,1.7,0,2,0c0.1,0,0.2,0,0.3-0.1
		c0.1-0.1,0.2-0.2,0.2-0.3c0-2.5,0-4.9,0-7.4c0-0.1,0-0.2,0-0.3l0,0c0,0,0,0,0-0.1c0-0.4,0.1-0.8,0.2-1.1c0-0.1,0.1-0.2,0.1-0.3
		c0.2-0.4,0.3-0.7,0.4-0.8c0.2-0.4,1.3-1.5,2.7-1.1c1.1,0.3,1.6,1.3,1.7,1.7c0,0.1,0.1,0.2,0.1,0.2c0.2,0.4,0.2,0.8,0.2,1.1
		c0,2.7,0,5.4,0,8.1c0,0.1,0,0.2,0.1,0.2c0.1,0.1,0.2,0.1,0.3,0.1c0.5,0,1.1,0,1.6,0c0.1,0,0.2,0,0.3-0.1c0.1-0.1,0.1-0.2,0.1-0.2
		c0-2.7,0-5.4,0-8.1c0-0.3,0-0.7,0.2-1.1c0,0,0-0.1,0.1-0.2c0.2-0.4,0.7-1.5,1.7-1.7c1.3-0.4,2.5,0.8,2.7,1.1
		c0.1,0.1,0.2,0.4,0.4,0.8c0,0.1,0.1,0.2,0.1,0.3c0.1,0.4,0.2,0.8,0.2,1.1c0,0,0,0,0,0.1l0,0c0,0.1,0,0.2,0,0.3c0,2.5,0,4.9,0,7.4
		c0,0.1,0,0.2,0.2,0.3c0.1,0.1,0.2,0.1,0.3,0.1c0.3,0,1,0,2,0c0.1,0,0.2-0.1,0.2-0.2c0.1-0.1,0.1-0.2,0.1-0.2c0-3,0-6,0-9
		C562.6,61.9,562.6,61.6,562.5,61.3z"/>
	
		<linearGradient id="XMLID_12_" gradientUnits="userSpaceOnUse" x1="479.7645" y1="776.7184" x2="492.5618" y2="776.7184" gradientTransform="matrix(1 0 0 -1 0 840.6622)">
		<stop  offset="0" style="stop-color:#96184B"/>
		<stop  offset="3.225541e-02" style="stop-color:#8C184D"/>
		<stop  offset="0.1668" style="stop-color:#671654"/>
		<stop  offset="0.3079" style="stop-color:#49155A"/>
		<stop  offset="0.4553" style="stop-color:#31145E"/>
		<stop  offset="0.6119" style="stop-color:#201361"/>
		<stop  offset="0.7837" style="stop-color:#161363"/>
		<stop  offset="1" style="stop-color:#131364"/>
	</linearGradient>
	<path id="XMLID_25_" class="st16" d="M492.5,64.4c-1.7,0.3-2.4,1-2.6,1.5c-0.2,0.3-0.2,0.7-0.6,1.2c-0.2,0.3-0.5,0.5-1,0.7
		c-0.4,0.2-1,0.2-1.7,0.2c-0.6,0-1.1-0.1-1.7-0.3c-0.4-0.2-0.8-0.5-1.2-0.9c-0.3-0.4-0.5-0.8-0.8-1.3c-0.2-0.4-0.2-1-0.2-1.5l0,0
		c0,0,0,0,0-0.1c0-0.2,0,0,0-0.2c3.2,0,6.4,0,9.6,0c0-0.2,0.4-3.8-2.4-5.9c-2.5-1.9-6-1.3-8,0.4c-2.4,2-2.4,5.2-2.3,5.8
		c0,0.2,0.2,3.9,2.6,5.8c2.3,1.8,6.4,1.9,8.6-0.5C492.8,67.5,492.6,64.9,492.5,64.4z M485,60c0.4-0.2,1-0.4,1.7-0.4
		c0.1,0,0.4,0,0.8,0.1c1.2,0.2,2,1.5,2.3,1.8h-6.1c0.1-0.2,0.2-0.4,0.3-0.5C484.1,60.7,484.5,60.3,485,60z"/>
	<path id="XMLID_17_" class="st17" d="M456.7,71.2h-1.9c-0.2,0-0.4-0.2-0.4-0.4V60h2.8v10.7C457.1,71,456.9,71.2,456.7,71.2z"/>
	<g id="XMLID_3_">
		<g>
			<path id="XMLID_55_" class="st7" d="M534,60.1c0.2-0.1,0.4-0.2,0.7-0.2l-3-2c-0.2,0.2-0.4,0.3-0.5,0.4c-0.4,0.3-0.6,0.6-0.9,0.9
				L533,61C533.3,60.7,533.7,60.3,534,60.1z"/>
			<path id="XMLID_54_" class="st7" d="M539.2,63.9c0,0.4,0,0.8-0.1,1.2l2.4,1.7c0.2-0.8,0.2-1.6,0.2-2.2l-2.7-1.8
				C539.2,63.2,539.2,63.7,539.2,63.9z"/>
			<path id="XMLID_53_" class="st7" d="M541.5,62.1c-0.2-1.3-0.8-3-2.4-4.2c-1.5-1.1-3.5-1.3-5.3-1L541.5,62.1z"/>
			<path id="XMLID_52_" class="st7" d="M538.4,67.1c-0.2,0.2-0.4,0.4-0.6,0.5c-0.3,0.2-1.1,0.4-1.9,0.4c-0.1,0-0.1,0-0.1,0
				c-0.9,0-1.5-0.2-1.7-0.3c-0.4-0.2-0.8-0.5-1.2-0.9c-0.3-0.4-0.5-0.8-0.8-1.3c-0.2-0.4-0.2-0.9-0.2-1.3l0,0c0,0,0,0,0-0.1
				c0-0.4,0.1-0.8,0.2-1.2l-2.7-1.8c-0.4,1.5-0.4,2.6-0.4,3c0,0.2,0.2,3.9,2.6,5.8c2.4,1.9,6.4,1.7,8.6-0.5c0.2-0.2,0.4-0.4,0.5-0.7
				L538.4,67.1z"/>
		</g>
	</g>
	<g>
		<path class="st17" d="M469.4,53.2c-0.1-0.1-0.2-0.2-0.3-0.2c-3.6,0.1-7.3,0.1-10.9,0.1c0.5,0.9,1,1.8,1.5,2.7c0.7,0,1.5,0,2.2,0
			c0,5.1,0,10.1,0,15c0,0,0,0.2,0.1,0.2c0.1,0.1,0.2,0.1,0.2,0.1c0.7,0,1.5,0,2.1,0c0,0,0.2,0,0.3-0.1c0.1-0.1,0.1-0.2,0.1-0.2
			c0-5.1,0-10.1,0-15c1.5,0,3,0,4.4,0c0,0,0.2,0,0.3-0.2c0.1-0.1,0.1-0.2,0.1-0.2c0-0.7,0-1.3,0-2.1
			C469.5,53.3,469.5,53.3,469.4,53.2z"/>
		<path class="st17" d="M457.6,53.3c-0.1-0.2-0.2-0.2-0.3-0.2c-0.2,0-0.4,0-0.7,0c-0.3,0-0.6,0-0.9,0s-0.6,0-0.9,0
			c-0.2,0-0.4,0-0.7,0c-0.2,0-0.2,0-0.3,0.2c-0.5,0.9-1,1.8-1.5,2.6c-0.1,0.1-0.1,0.2,0,0.3c0.2,0.3,0.3,0.5,0.4,0.8
			c0.3,0.6,0.7,1.2,1,1.7c0.1,0.2,0.2,0.2,0.4,0.2c0.5,0,1.1,0,1.6,0s1.1,0,1.6,0c0.2,0,0.3-0.1,0.4-0.2c0.3-0.5,0.7-1.1,1-1.7
			c0.2-0.3,0.3-0.5,0.4-0.8c0.1-0.1,0.1-0.2,0-0.3C458.6,55.1,458.2,54.2,457.6,53.3z M457.6,56.2c-0.1,0.2-0.2,0.3-0.2,0.4
			c-0.2,0.3-0.4,0.7-0.5,1c-0.1,0.2-0.2,0.2-0.2,0.2c-0.3,0-0.6,0-0.9,0s-0.5,0-0.9,0c-0.1,0-0.2,0-0.2-0.2c-0.2-0.3-0.4-0.7-0.5-1
			c-0.1-0.2-0.2-0.3-0.2-0.4c0-0.1-0.1-0.1,0-0.2c0.3-0.4,0.5-1,0.8-1.5c0-0.1,0.1-0.1,0.2-0.1c0.2,0,0.2,0,0.4,0c0.2,0,0.3,0,0.5,0
			c0.2,0,0.3,0,0.5,0c0.2,0,0.2,0,0.4,0c0.1,0,0.2,0,0.2,0.1c0.3,0.4,0.5,1,0.8,1.5C457.6,56.1,457.6,56.1,457.6,56.2z"/>
	</g>
</g>
</svg>
