<?xml version="1.0" encoding="utf-8"?>
<!-- Generator: Adobe Illustrator 23.0.0, SVG Export Plug-In . SVG Version: 6.00 Build 0)  -->
<svg version="1.1" id="Layer_1" xmlns="http://www.w3.org/2000/svg" xmlns:xlink="http://www.w3.org/1999/xlink" x="0px" y="0px"
	 viewBox="0 0 595.3 841.9" style="enable-background:new 0 0 595.3 841.9;" xml:space="preserve">
<style type="text/css">
	.st0{fill:#305FA8;}
	.st1{fill:#FFFFFF;}
	.st2{fill:#1B4C8E;}
	.st3{fill:#1D1D1B;}
	.st4{font-family:'2--TitrBold';}
	.st5{font-size:21.0907px;}
	.st6{font-size:13.6136px;}
</style>
<rect x="0.2" y="0.2" class="st0" width="595.1" height="841.4"/>
<path class="st1" d="M553.2,834.3H44.1c-12.7,0-22.9-10.3-22.9-22.9V44.9C21.2,32.2,31.5,22,44.1,22h509.1
	c12.7,0,22.9,10.3,22.9,22.9v766.6C576.1,824.1,565.9,834.3,553.2,834.3z"/>
<path class="st0" d="M0.2,694.2c11.7,5.7,36.5,19.4,54.9,45.7c17.6,25.3,20.2,49.2,20.6,60.6c-1.2-3.1-8.2-20.9-26.3-26.9
	c-6-2-11.6-2.1-15.6-1.8c7.7,3.8,17.4,9.9,26.5,19.6c2.4,2.6,7.9,8.7,13.3,17.8c3,5.2,5.2,9.9,6.7,14c3.6-9.7,9.2-29.7,3.4-54.3
	c-5-21.5-16.4-36.7-23.4-44.7c15.7,7.6,44.7,24,66.8,54.3c14.6,20,21,38.9,24,51.9c18.5-9,46.8-20,82.8-24c17.3-1.9,28.9-1.4,45.1-1
	c45.9,1.2,107.1,2.7,169.1-6.3c32-4.6,53.9-8,80-20.2c34.2-16.1,55.4-37.9,67.2-52.4c0,38.9,0,77.9,0,116.8
	c-198.4,0-396.8,0-595.1,0C0.2,793.6,0.2,743.9,0.2,694.2z"/>
<g>
	<path class="st2" d="M505.5,42.5c-0.6,0.9-1.5,1.5-2.5,1.9c-2.4,1.1-4.9,1.6-7.4,1.8c-2.9,0.3-5.9,0.3-8.8-0.2
		c-1.5-0.3-3.1-0.6-3.3-2.6c0-0.1,0-0.3-0.2-0.3c-0.2,0-0.2,0.2-0.2,0.3c-0.3,1.2-0.4,2.3-0.5,3.5c-0.1,1.3,0.5,2.1,1.6,2.7
		c0.8,0.4,1.6,0.5,2.4,0.6c2,0.2,4,0.2,6,0c2.7-0.2,5.3-0.8,7.9-1.8c2.6-1,4.4-2.8,5.3-5.5c0.1-0.2,0.2-0.5,0.1-0.8
		C505.7,42.3,505.6,42.4,505.5,42.5z"/>
	<path class="st2" d="M515.8,51c-2.4,1.1-4.6,2.5-6.5,4.2c-1,0.9-1.8,1.8-2.3,3c-0.2,0.5-0.1,0.7,0.5,0.7c1.1,0,2.2-0.2,3.2-0.5
		c0,0,0.1,0,0.1,0c0,0-0.1,0-0.1,0c0,0,0.1,0.1,0.1,0.1c-0.8,1.3-2,2-3.5,2.1c-1.2,0.1-2.1-0.4-2.4-1.6c-0.2-0.7-0.4-1.4-0.3-2.2
		c0.1-2.5,0.5-4.9,0.8-7.4c0.1-0.7,0.3-1.3,0.1-2c-0.5,0.9-0.9,1.9-1.1,2.9c-0.5,2.3-0.8,4.7-1.1,7.1c-0.2,1.5-0.4,3-0.1,4.5
		c0.4,2,1.8,3,3.8,2.5c1.2-0.3,2-1.1,2.7-2c1.2-1.6,2-3.4,3-5.1c0.1-0.1,0.1-0.2,0.1-0.3c0.1-0.5,0-0.6-0.5-0.5
		c-0.3,0.1-0.6,0.2-1,0.3c-1,0.2-2,0.5-3.1,0.6c-0.1-0.2,0-0.3,0.1-0.3c0.7-0.6,1.4-1.2,2.2-1.6c1.3-0.7,2.5-1.4,3.8-2
		c1.8-0.8,3-2,3.9-3.7c0.1-0.1,0.2-0.2,0-0.4C517.5,50.1,516.6,50.6,515.8,51z"/>
	<path class="st2" d="M477.4,48c-0.2,0.4-0.4,0.8-0.7,1.2c-0.1,0.2-0.3,0.5-0.6,0.4c-0.4-0.1-0.5,0.1-0.7,0.4c-0.6,0.7-1,1.1-2,0.6
		c-0.4-0.2-0.8-0.1-1.2,0.1c-0.5,0.2-0.9,0.5-1.3,0.9c-1,0.8-1.5,1.8-2.3,2.7c-0.9,1-1.9,2.1-2.7,3.2c-0.1,0.2-0.4,0.4-0.7,0.3
		c-1-0.4-1.9,0-2.6,0.7c-0.7,0.7-1.7,1-2.7,1.1c-1.7,0.1-3.4-1.3-2.5-3.4c0.1-0.2,0.2-0.4,0.2-0.7c0-0.1,0.1-0.3-0.1-0.3
		c-0.2-0.1-0.3,0.1-0.3,0.2c-0.2,0.5-0.5,0.9-0.7,1.4c-1.2,2.9-3.1,5-5.8,6.5c-0.4,0.2-0.8,0.4-1.1,0.8c0.8,0.2,3.3-0.4,4-1
		c0.6-0.5,1-1.1,1.4-1.7c0.1-0.1,0.1-0.4,0.4-0.4c0.2,0,0.1,0.3,0.2,0.5c0.5,2,2.3,2.8,4.1,1.7c0.7-0.4,1.1-0.9,1.6-1.5
		c0.4-0.5,0.7-1.1,1.2-1.4c0.4-0.3,0.7-0.4,1.2-0.3c0.6,0.2,1.2,0,1.6-0.5c0.3-0.4,0.6-0.7,0.9-1.1c0.6-0.8,1.3-1.3,2.4-0.8
		c0.1,0,0.1,0,0.2,0c0.7,0.1,1.2-0.3,1.7-1.1c0.3-0.6,0.1-1-0.3-1.5c-0.7-0.7-0.7-0.8-0.1-1.6c0.6-0.7,1.3-1,2-0.7
		c0.9,0.5,1.5,0.2,2.2-0.4c0.3-0.3,0.6-0.7,1.1-0.7c0.8-0.2,1.2-0.8,1.5-1.4c0.2-0.5,0.4-1.1,0.5-1.6
		C477.5,48.3,477.6,48.1,477.4,48z"/>
	<path class="st2" d="M530.7,53.3c-0.7,1.5-1,3.1-1,4.8c0.1,2-0.5,3.9-1.8,5.6c-2,2.7-4.7,3.8-8,3.3c-2.8-0.4-4.1-2.5-3.5-5.2
		c0.3-1.4,0.8-2.6,1.3-3.9c0.1-0.3,0.3-0.6,0.2-1c-0.2,0.3-0.3,0.5-0.4,0.8c-1.3,2.5-2.3,5.2-2.4,8.1c-0.1,2.6,1.3,4.6,3.8,5.2
		c1.9,0.5,3.7,0,5.3-1c2.6-1.6,4.1-4.1,5.2-6.9c1-2.5,1.4-5.2,1.6-7.9c0.1-1,0.2-2.1,0.3-3.1C531,52.4,530.9,52.9,530.7,53.3z"/>
	<path class="st2" d="M444.6,51.1c-0.4-0.1-0.4,0.4-0.6,0.7c0,0.1-0.1,0.1-0.1,0.2c-0.1,0.3-0.2,0.2-0.4,0.1
		c-0.8-0.7-1.4-0.6-2.1,0.2c-0.5,0.6-0.8,1.4-1.1,2.1c-0.3,0.8-0.7,1.6-1.5,2.1c-0.2-0.4-0.3-0.8-0.5-1.1c-0.7-1-1.7-1.1-2.4-0.1
		c-0.7,0.9-1.2,1.9-1.5,3c-0.3,1.1,0.3,1.9,1.5,2c0.5,0,1,0,1.5-0.1c-1,2.3-3.1,3.3-4.9,4.7c0.8,0.1,1.6-0.2,2.3-0.4
		c0.9-0.2,1.6-0.7,2.1-1.5c0.4-0.7,0.7-1.4,1.1-2.1c0.2-0.4,0.3-1,0.6-1.3c1.1-1.2,1.8-2.6,2.5-4c0.5-1,0.8-1.1,1.8-0.7
		c0.7,0.3,1.3,0.2,1.8-0.3c0.6-0.6,0.9-1.4,0.7-2.2C445.3,51.6,445,51.2,444.6,51.1z"/>
	<path class="st2" d="M482.3,51.8c-0.4-0.1-0.4,0.4-0.6,0.7c0,0.1-0.1,0.1-0.1,0.2c-0.1,0.2-0.2,0.2-0.4,0.1
		c-0.9-0.7-1.5-0.6-2.2,0.3c-0.5,0.6-0.7,1.3-1,2c-0.3,0.8-0.7,1.6-1.5,2c-0.1-0.3-0.2-0.6-0.4-0.9c-0.5-0.9-1.7-1.6-2.6-0.2
		c-0.6,0.9-1.1,1.8-1.4,2.8c-0.4,1.1,0.3,2,1.5,2.1c0.5,0,0.9,0,1.5-0.2c-0.5,1.2-1.3,2-2.2,2.7c-0.9,0.7-1.9,1.3-2.8,2
		c1,0.1,1.9-0.2,2.8-0.5c0.6-0.2,1.1-0.6,1.5-1.1c0.5-0.7,0.9-1.5,1.2-2.3c0.2-0.5,0.3-1,0.6-1.3c1.1-1.2,1.8-2.6,2.6-4
		c0.4-0.9,0.8-1.1,1.7-0.7c0.7,0.3,1.4,0.2,1.9-0.3c0.6-0.6,0.9-1.3,0.7-2.2C482.9,52.3,482.7,51.9,482.3,51.8z"/>
	<path class="st2" d="M538,59.1c-0.2-0.1-0.4-0.2-0.5,0.2c-0.1,0.4-0.3,0.8-0.4,1.2c-0.2,0.5-0.5,0.5-0.9,0.3
		c-0.5-0.3-0.7-0.7-0.9-1.2c-0.2-0.7-0.2-1.5-0.2-2.2c0.1-2.1,0.3-4.1,0.6-6.1c0.1-1.2,0.3-2.3,0.4-3.5c-0.1,0-0.1,0-0.2,0
		c-0.5,1.1-0.9,2.1-1.2,3.3c-0.5,2.3-0.7,4.7-1.1,7.1c-0.2,1.5-0.3,3,0,4.5c0.2,1.2,1,2.2,1.9,2.3c0.9,0.1,1.8-0.5,2.4-1.6
		c0.4-0.9,0.7-1.9,0.6-2.9C538.7,59.7,538.5,59.3,538,59.1z"/>
	<path class="st2" d="M559.5,37.3c-0.2-0.2-0.5,0.3-0.7,0.5c-1.5,1.5-3.2,2.4-5.5,2.2c-3-0.3-5.4,2.2-6.2,3.8
		c-0.1,0.1-0.2,0.3-0.1,0.4c0.1,0.1,0.3,0,0.4-0.1c1.2-0.8,2.6-1,4-0.9c1.5,0.1,3,0,4.3-0.9c1.5-1.1,2.7-2.4,3.6-4
		C559.5,37.9,559.8,37.6,559.5,37.3z"/>
	<path class="st2" d="M426.3,47.2c-1,2.2-1.9,4.3-2,6.8c0,2.2-0.3,4.4-0.8,6.6c-0.1,0.4-0.3,0.7-0.3,1.2c0.4-0.3,0.6-0.6,0.8-1
		c0.9-1.7,1.4-3.5,1.6-5.5c0.2-2.1,0.4-4.3,0.6-6.4c0.1-0.6,0.2-1.2,0.3-1.8c0,0-0.1,0-0.1,0C426.4,47.1,426.4,47.1,426.3,47.2z"/>
	<path class="st2" d="M551.6,49c-0.3,0.7-0.6,1.4-0.9,2.1c-0.7,1.4-1,2.9-1.1,4.4c-0.1,1.9-0.3,3.7-0.6,5.6
		c-0.1,0.9-0.4,1.7-0.6,2.6c0.5-0.2,0.6-0.5,0.8-0.8c1-1.9,1.5-3.9,1.7-6c0.2-2.6,0.3-5.2,0.8-7.7C551.8,49.1,551.8,49,551.6,49z"/>
	<path class="st2" d="M448.4,49c-0.1,0.2-0.2,0.5-0.3,0.7c-0.8,1.7-1.6,3.5-1.6,5.5c-0.1,2-0.3,4-0.6,6c-0.1,0.8-0.4,1.6-0.6,2.5
		c0.5-0.3,0.6-0.4,1-1.2c1.1-2.1,1.5-4.3,1.6-6.6c0.2-2,0.3-4,0.6-6c0-0.3,0.2-0.6,0.1-0.9C448.5,49,448.4,49,448.4,49z"/>
	<path class="st2" d="M546.8,54.2c-0.2,0-0.3,0.2-0.3,0.3c-0.3,0.9-0.7,1.9-0.9,2.8c-0.5,2.1-1.6,3.9-3.4,5.2
		c-0.7,0.5-1.3,1.1-2,1.7c-0.1,0.1-0.4,0.3-0.2,0.5c0.1,0.2,0.3,0.1,0.5,0c1-0.2,2-0.5,2.9-0.9c0.8-0.3,1.4-0.9,1.7-1.7
		c1-2.4,1.4-5,1.9-7.5C546.9,54.5,547,54.3,546.8,54.2z"/>
	<path class="st2" d="M501.1,54.2c-0.2,0-0.3,0.2-0.3,0.4c-0.3,0.9-0.6,1.9-0.9,2.8c-0.5,2-1.5,3.7-3.2,4.9
		c-0.6,0.4-1.1,0.9-1.6,1.3c-0.3,0.2-0.5,0.5-0.7,0.7c-0.1,0.1-0.1,0.2-0.1,0.3c0,0.2,0.2,0.1,0.3,0.1c0.8-0.2,1.6-0.4,2.3-0.6
		c1.5-0.4,2.4-1.4,2.8-2.8c0.7-2.2,1.1-4.4,1.5-6.6C501.2,54.6,501.4,54.3,501.1,54.2z"/>
	<path class="st2" d="M431.3,54.2c-0.2,0-0.2,0.1-0.3,0.3c-0.3,0.9-0.6,1.8-0.9,2.8c-0.5,1.9-1.3,3.7-3,4.9
		c-0.9,0.6-1.7,1.4-2.5,2.1c-0.1,0.1-0.3,0.3-0.2,0.4c0.1,0.2,0.3,0.1,0.5,0c0.9-0.2,1.8-0.5,2.7-0.8c1-0.4,1.7-1,2-2
		c0.9-2.4,1.3-4.9,1.7-7.4C431.5,54.4,431.5,54.3,431.3,54.2z"/>
	<path class="st2" d="M521.7,56c0.6,0.5,1.2,0.9,1.7,1.5c0.1,0.1,0.2,0.2,0.4,0.1c0.9-0.7,1.6-1.5,1.8-2.7c0-0.3-0.1-0.5-0.2-0.7
		c-0.4-0.7-1.1-1.1-1.8-1.6c-0.2-0.2-0.3,0-0.4,0.2c-0.5,0.9-1,1.8-1.6,2.6C521.4,55.7,521.4,55.9,521.7,56z"/>
	<path class="st2" d="M460.4,47c0.5,0.4,1,0.8,1.5,1.2c0.1,0.1,0.3,0.2,0.5,0.1c0.7-0.3,1.9-1.9,1.9-2.8c-0.1-0.9-0.8-1.4-1.5-1.9
		c-0.3-0.2-0.5-0.2-0.7,0.1c-0.6,0.9-1.2,1.8-1.7,2.7C460.2,46.7,460.1,46.8,460.4,47z"/>
	<path class="st2" d="M506.8,68.3c-0.3-0.2-0.5-0.2-0.7,0.1c-0.6,0.9-1.1,1.8-1.7,2.7c-0.2,0.3-0.1,0.4,0.1,0.6
		c0.5,0.4,1,0.7,1.4,1.1c0.1,0.1,0.2,0.2,0.5,0.1c0.7-0.3,1.9-1.9,1.9-2.7C508.2,69.3,507.5,68.8,506.8,68.3z"/>
	<path class="st2" d="M517.2,37.7c-0.2-0.1-0.3,0-0.4,0.1c-0.6,0.9-1.2,1.8-1.7,2.7c0,0-0.1-0.1-0.1-0.1c0.3-1.2-0.5-1.9-1.3-2.5
		c-0.3-0.2-0.5-0.2-0.7,0.2c-0.4,0.7-0.9,1.4-1.4,2.1c-0.4,0.7-0.4,0.7,0.2,1.2c0.2,0.2,0.5,0.4,0.7,0.6c0.8,0.7,0.9,0.7,1.6-0.2
		c0.3-0.3,0.5-0.6,0.7-1c0.1-0.1,0.1-0.3,0.3-0.3c-0.3,0.2,0,0.3,0.1,0.4c0.4,0.4,0.9,0.7,1.4,1.1c0.3,0.3,0.6,0.3,0.9,0
		c0.5-0.5,0.9-1,1.2-1.7c0.2-0.5,0.2-0.9,0-1.4C518.3,38.4,517.7,38,517.2,37.7z"/>
	<path class="st2" d="M491.4,39.2c0.5,0.4,1,0.7,1.4,1.1c0.2,0.2,0.5,0.2,0.7,0c0.6-0.5,1.1-1.1,1.3-1.8c0.2,0.4,0.6,0.6,0.9,0.9
		c1.4,1.1,1.4,1.1,2.5-0.4c0.9-1.2,0.7-2.1-0.5-3c-0.7-0.5-0.8-0.5-1.2,0.2c-0.4,0.6-0.7,1.1-1.1,1.7c-0.1,0.2-0.2,0.5-0.5,0.6
		c0.2-1.1-0.4-2.3-1.5-2.6c-0.2-0.1-0.3,0-0.4,0.2c-0.6,0.9-1.1,1.8-1.7,2.6C491.1,38.9,491.2,39,491.4,39.2z"/>
	<path class="st2" d="M473.7,39c0.5,0.4,1,0.7,1.4,1.1c0.2,0.1,0.3,0.2,0.5,0.1c0.6-0.3,1.7-1.9,1.7-2.5c0-0.7-0.9-1.9-1.7-2.1
		c-0.2-0.1-0.3,0.1-0.4,0.2c-0.6,0.9-1.1,1.7-1.7,2.6C473.5,38.7,473.5,38.9,473.7,39z"/>
	<path class="st2" d="M478.3,42.9c0.2-0.5,0.2-1-0.1-1.5c-0.3-0.5-0.8-0.9-1.3-1.2c-0.2-0.1-0.4-0.1-0.5,0.1
		c-0.6,0.9-1.2,1.9-1.8,2.8c0,0.1,0,0.2,0,0.2c0.6,0.4,1.1,0.9,1.7,1.3c0.2,0.2,0.4,0.1,0.6-0.1C477.5,44.1,478,43.6,478.3,42.9z"/>
	<path class="st2" d="M481.5,61.2c-0.5,0.2-0.7,0.5-0.9,0.8c-0.8,1.4-1.4,2.8-1.7,4.4c-0.1,0.5-0.1,1,0.1,1.5
		c0.1,0.3,0.3,0.6,0.6,0.6c0.4,0,0.7-0.1,0.9-0.4c0.6-0.8,0.5-1.6-0.4-2.1c-0.4-0.3-0.4-0.5-0.3-0.9
		C480.1,63.7,480.7,62.5,481.5,61.2z"/>
	<path class="st2" d="M443.2,60.5c-0.5,0.2-0.8,0.6-1,1c-0.8,1.3-1.4,2.7-1.7,4.3c-0.1,0.5-0.1,1.1,0.1,1.6c0.1,0.3,0.3,0.5,0.6,0.6
		c0.4,0,0.7-0.1,0.9-0.4c0.6-0.8,0.5-1.6-0.4-2.2c-0.4-0.2-0.4-0.5-0.3-0.9C441.8,63.1,442.4,61.8,443.2,60.5z"/>
	<path class="st2" d="M475.1,43.2C475.1,43.2,475.1,43.2,475.1,43.2c0.3-0.7,0.2-1.3-0.3-1.9c-0.3-0.3-0.6-0.5-1-0.8
		c-0.3-0.2-0.4-0.1-0.6,0.1c-0.6,0.9-1.1,1.7-1.7,2.6c-0.2,0.3-0.1,0.4,0.1,0.6c0.5,0.3,0.9,0.7,1.3,1.1c0.3,0.3,0.6,0.2,0.8,0
		C474.4,44.3,474.8,43.8,475.1,43.2c0,0,0.1,0,0.2,0c0,0,0,0,0,0c0,0,0,0,0,0C475.2,43.1,475.2,43.1,475.1,43.2z"/>
</g>
<text transform="matrix(1 0 0 1 529.1494 240.9723)" class="st3 st4 st5"> </text>
<text transform="matrix(1 0 0 1 104.9878 70.0514)"><tspan x="0" y="0" class="st3 st4 st6">                    </tspan><tspan x="31.9" y="16.3" class="st3 st4 st6">        </tspan></text>
</svg>
